<?xml version="1.0" standalone="no"?>
<!DOCTYPE svg PUBLIC "-//W3C//DTD SVG 1.1//EN" "http://www.w3.org/Graphics/SVG/1.1/DTD/svg11.dtd" >
<svg xmlns="http://www.w3.org/2000/svg">
<metadata></metadata>
<defs>
<font id="bella_donna_personal_useRg" horiz-adv-x="0" >
<font-face units-per-em="2048" ascent="1741" descent="-307" />
<missing-glyph horiz-adv-x="512" />
<glyph />
<glyph unicode="&#xd;" horiz-adv-x="1024" />
<glyph />
<glyph />
<glyph unicode=" "  horiz-adv-x="512" />
<glyph unicode="&#x09;" horiz-adv-x="512" />
<glyph unicode="&#xa0;" horiz-adv-x="512" />
<glyph unicode="!" />
<glyph unicode="&#x22;" />
<glyph unicode="#" />
<glyph unicode="%" />
<glyph unicode="&#x26;" />
<glyph unicode="'" />
<glyph unicode="(" />
<glyph unicode=")" />
<glyph unicode="*" />
<glyph unicode="+" />
<glyph unicode="," />
<glyph unicode="-" />
<glyph unicode="." />
<glyph unicode="/" />
<glyph unicode="0" horiz-adv-x="1665" d="M1499 639q0 -43 -41 -43q-39 0 -39 45l8 8l13 -6q4 -14 6 -20.5t12 -6.5q16 0 17 19q0 12 -21 33l-13 13t-14 15q-8 16 -8 25q0 41 39 41t39 -39l-22 -4q-4 20 -17 20q-12 0 -12 -18q0 -16 33 -43q20 -21 20 -39zM1401 735h-27v-139l-10 -8l-14 8v139h-27v23h78v-23z M1169 1235l-186 -170l49 -254l-219 129l-225 -129l53 248l-188 176l254 27l106 233l102 -231zM1305 596h-27l-35 104v-104h-24v141l-7 11l7 10h30l31 -109v109h25v-162zM1198 633q0 -37 -39 -37t-39 37v90q0 39 39 39t39 -39v-90zM1102 735h-43v-47h33v-22h-33v-70h-27v139 l-6 13l6 10h70v-23zM1001 596h-67v162l12 10l12 -10v-137h43v-25zM915 596h-69v139l-6 13l6 10h69v-23h-45v-47h35v-22h-35v-45h45v-25zM825 633q0 -39 -39 -39t-38 39v88q0 41 38 41q39 0 39 -41v-19h-26v21q0 14 -13 14q-14 0 -14 -14v-90q0 -12 14 -12q12 0 13 12v33h-13 l-8 10l8 12h39v-55zM729 596h-27l-12 61h-16v-61h-25v141l-8 11l8 10h37q41 0 41 -37v-25q0 -16 -16 -28zM629 596l-15 -8l-12 8l-6 37h-23l-8 -37l-14 -8l-10 8l26 162h35zM506 758l-33 -92v-70h-22v70l-35 92h26l19 -58l18 58h27zM428 596h-66v162l11 10l14 -10v-137h41 v-25zM346 596h-65v162l10 10l12 -10v-137h43v-25zM256 596l-14 -8l-11 8v162h25v-162zM211 643q0 -47 -37 -47h-47v139l-6 10l6 13h39q41 0 41 -45q0 -25 -19 -31q23 -10 23 -39zM905 954l-59 353h-72l-61 -353l30 -18l27 18l12 80h54l14 -80l29 -18zM1171 723q0 14 -12 14 q-14 0 -14 -14v-90q0 -12 14 -12q12 0 12 12v90zM700 721q0 14 -14 14h-12v-51h12q14 0 14 12v25zM594 657l-10 64l-9 -64h19zM180 713q0 23 -14 22h-12v-43h12q14 1 14 21zM184 643q0 27 -18 27h-12v-49h12q18 -1 18 22zM831 1085h-40l18 140zM807 197h29l-11 24q-2 4 -2 7 t-4 8q0 -6 -4 -15zM455 162v10h14v-10h-14zM1126 162v86h11v-78h43v-8h-54zM1049 162v86h61v-12h-51v-27h47v-10h-47v-29h51v-8h-61zM745 162v35l-32 51h14l16 -27q4 -12 9 -14q2 2 4 6t6 8l16 27h13l-35 -51v-35h-11zM487 162v86h33q4 0 7 -2t5 -2q8 -2 11 -8q4 -4 4 -13 q0 -6 -4 -8q-2 -8 -8 -8q6 -2 12 -8q4 -8 4 -13q0 -4 -1 -6t-1 -4q-2 -8 -8 -8q-2 -4 -4 -4t-5 -2h-12h-33zM254 162l-25 86h13l12 -58q2 -6 2 -10t2 -8q2 10 2 16l16 60h15l12 -45q6 -18 6 -31q2 4 2 8t2 10l15 58h10l-25 -86h-10l-16 63q-2 6 -2 11q-2 -4 -2 -11l-19 -63 h-10zM141 162l-24 86h14l10 -58q2 -6 2 -10t4 -8q2 10 3 16l16 60h12l15 -45q2 -10 3 -16.5t1 -14.5q4 4 4 8t2 10l12 58h12l-24 -86h-10l-17 63q-2 6 -2 11q-4 -4 -4 -11l-18 -63h-11zM498 209h18q8 0 10 4q6 0 6 2q2 2 3 8q0 6 -3 8h-2q-2 0 -2 1t-2 1q-2 2 -12 3h-16v-27 zM362 162l-22 86h12l13 -58q2 -6 2 -10t4 -8q0 8 1 11t1 5l16 60h12l15 -45q2 -10 3 -16.5t1 -14.5q4 4 4 8t2 10l14 58h11l-25 -86h-10l-17 63q-2 6 -2 11q-4 -4 -4 -11l-18 -63h-13zM881 207h24q4 0 7 1t8 1q4 0 4 6q2 2 2 8t-4 10q-2 2 -15 3h-26v-29zM498 170h22 q4 0 6 2h6q2 4 7 6v8q0 4 -4 9q0 4 -5 4h-14h-18v-29zM567 162v86h11v-86h-11zM1319 203q0 -18 6 -25q8 -8 23 -8q14 0 20 8q8 6 8 27q0 10 -2 16q-4 10 -10 12t-16 3q-12 0 -19 -7q-10 -8 -10 -26zM1307 203q0 23 12 33q8 12 29 12q6 0 11 -2t9 -4q6 -2 9 -6.5l7 -10.5 q2 -4 2 -20q0 -18 -4 -25q-6 -10 -14 -16q-8 -4 -20 -4q-6 0 -11.5 1t-11.5 3q-4 4 -7 8t-5 8q-2 6 -4 11.5t-2 11.5zM782 162l33 86h12l35 -86h-12l-10 24h-35l-12 -24h-11zM600 162v86h10v-78h39v-8h-49zM1192 162v10h14v-10h-14zM995 195v10h35v-33q-8 -8 -16 -10 q-4 0 -9.5 -1t-9.5 -1q-12 0 -20 4q-6 4 -10 7t-7 9q-2 6 -4 11.5t-2 11.5q0 8 2 12t4 10q4 12 15 17q4 2 10 4t12 2q10 0 17 -4q8 -2 10 -8q6 -6 8 -13l-10 -2q0 2 -6 8q0 4 -8 7h-11h-12q-6 -2 -10 -7q0 -2 -6 -8q0 -4 -1 -8t-1 -8q0 -14 4 -19q8 -12 10 -14q6 -2 16 -2 q8 0 15 2q4 4 6 4t4 2v17h-25zM870 162v86h37q6 0 10.5 -2t8.5 -2q6 -2 8 -8q4 -4 4 -13q0 -10 -6 -16q-2 -2 -7 -3t-12 -5q4 0 5.5 -1t3.5 -1q2 -4 8 -15l16 -20h-14l-12 16q-4 4 -5.5 7t-3.5 5q0 4 -2 4.5t-4 2.5h-2q-2 0 -2 1t-2 1h-4h-14v-37h-11zM664 162v86h12v-78h41 v-8h-53zM1286 190l10 -2q-4 -16 -12 -20q-8 -8 -22 -8q-12 0 -21 4q-6 4 -8 8t-6 8q-4 16 -4 25q0 8 4 24q10 10 14 13q6 2 10 4t11 2q6 0 12 -2t10 -4q4 -4 7 -8.5t5 -10.5l-12 -2q0 8 -8 12q-4 2 -14 3q-12 0 -17 -3q-4 -2 -5 -5t-5 -7q0 -4 -1 -8t-1 -8q0 -12 6 -19 q0 -4 2 -7t4 -7q6 -2 17 -2q10 0 16 6t8 14zM1403 162v86h16l21 -62q0 -4 2 -7t2 -7q0 2 4 14l18 62h17v-86h-10v69l-25 -69h-10l-25 71v-71h-10zM807 197h29l-11 24q-2 4 -2 7t-4 8q0 -6 -4 -15zM455 162v10h14v-10h-14zM1126 162v86h11v-78h43v-8h-54zM1049 162v86h61v-12 h-51v-27h47v-10h-47v-29h51v-8h-61zM745 162v35l-32 51h14l16 -27q4 -12 9 -14q2 2 4 6t6 8l16 27h13l-35 -51v-35h-11zM487 162v86h33q4 0 7 -2t5 -2q8 -2 11 -8q4 -4 4 -13q0 -6 -4 -8q-2 -8 -8 -8q6 -2 12 -8q4 -8 4 -13q0 -4 -1 -6t-1 -4q-2 -8 -8 -8q-2 -4 -4 -4t-5 -2 h-12h-33zM254 162l-25 86h13l12 -58q2 -6 2 -10t2 -8q2 10 2 16l16 60h15l12 -45q6 -18 6 -31q2 4 2 8t2 10l15 58h10l-25 -86h-10l-16 63q-2 6 -2 11q-2 -4 -2 -11l-19 -63h-10zM141 162l-24 86h14l10 -58q2 -6 2 -10t4 -8q2 10 3 16l16 60h12l15 -45q2 -10 3 -16.5 t1 -14.5q4 4 4 8t2 10l12 58h12l-24 -86h-10l-17 63q-2 6 -2 11q-4 -4 -4 -11l-18 -63h-11zM498 209h18q8 0 10 4q6 0 6 2q2 2 3 8q0 6 -3 8h-2q-2 0 -2 1t-2 1q-2 2 -12 3h-16v-27zM362 162l-22 86h12l13 -58q2 -6 2 -10t4 -8q0 8 1 11t1 5l16 60h12l15 -45q2 -10 3 -16.5 t1 -14.5q4 4 4 8t2 10l14 58h11l-25 -86h-10l-17 63q-2 6 -2 11q-4 -4 -4 -11l-18 -63h-13zM881 207h24q4 0 7 1t8 1q4 0 4 6q2 2 2 8t-4 10q-2 2 -15 3h-26v-29zM498 170h22q4 0 6 2h6q2 4 7 6v8q0 4 -4 9q0 4 -5 4h-14h-18v-29zM567 162v86h11v-86h-11zM1319 203 q0 -18 6 -25q8 -8 23 -8q14 0 20 8q8 6 8 27q0 10 -2 16q-4 10 -10 12t-16 3q-12 0 -19 -7q-10 -8 -10 -26zM1307 203q0 23 12 33q8 12 29 12q6 0 11 -2t9 -4q6 -2 9 -6.5l7 -10.5q2 -4 2 -20q0 -18 -4 -25q-6 -10 -14 -16q-8 -4 -20 -4q-6 0 -11.5 1t-11.5 3q-4 4 -7 8 t-5 8q-2 6 -4 11.5t-2 11.5zM782 162l33 86h12l35 -86h-12l-10 24h-35l-12 -24h-11zM600 162v86h10v-78h39v-8h-49zM1192 162v10h14v-10h-14zM995 195v10h35v-33q-8 -8 -16 -10q-4 0 -9.5 -1t-9.5 -1q-12 0 -20 4q-6 4 -10 7t-7 9q-2 6 -4 11.5t-2 11.5q0 8 2 12t4 10 q4 12 15 17q4 2 10 4t12 2q10 0 17 -4q8 -2 10 -8q6 -6 8 -13l-10 -2q0 2 -6 8q0 4 -8 7h-11h-12q-6 -2 -10 -7q0 -2 -6 -8q0 -4 -1 -8t-1 -8q0 -14 4 -19q8 -12 10 -14q6 -2 16 -2q8 0 15 2q4 4 6 4t4 2v17h-25zM870 162v86h37q6 0 10.5 -2t8.5 -2q6 -2 8 -8q4 -4 4 -13 q0 -10 -6 -16q-2 -2 -7 -3t-12 -5q4 0 5.5 -1t3.5 -1q2 -4 8 -15l16 -20h-14l-12 16q-4 4 -5.5 7t-3.5 5q0 4 -2 4.5t-4 2.5h-2q-2 0 -2 1t-2 1h-4h-14v-37h-11zM664 162v86h12v-78h41v-8h-53zM1286 190l10 -2q-4 -16 -12 -20q-8 -8 -22 -8q-12 0 -21 4q-6 4 -8 8t-6 8 q-4 16 -4 25q0 8 4 24q10 10 14 13q6 2 10 4t11 2q6 0 12 -2t10 -4q4 -4 7 -8.5t5 -10.5l-12 -2q0 8 -8 12q-4 2 -14 3q-12 0 -17 -3q-4 -2 -5 -5t-5 -7q0 -4 -1 -8t-1 -8q0 -12 6 -19q0 -4 2 -7t4 -7q6 -2 17 -2q10 0 16 6t8 14zM1403 162v86h16l21 -62q0 -4 2 -7t2 -7 q0 2 4 14l18 62h17v-86h-10v69l-25 -69h-10l-25 71v-71h-10zM807 197h29l-11 24q-2 4 -2 7t-4 8q0 -6 -4 -15zM455 162v10h14v-10h-14zM1126 162v86h11v-78h43v-8h-54zM1049 162v86h61v-12h-51v-27h47v-10h-47v-29h51v-8h-61zM745 162v35l-32 51h14l16 -27q4 -12 9 -14 q2 2 4 6t6 8l16 27h13l-35 -51v-35h-11zM487 162v86h33q4 0 7 -2t5 -2q8 -2 11 -8q4 -4 4 -13q0 -6 -4 -8q-2 -8 -8 -8q6 -2 12 -8q4 -8 4 -13q0 -4 -1 -6t-1 -4q-2 -8 -8 -8q-2 -4 -4 -4t-5 -2h-12h-33zM254 162l-25 86h13l12 -58q2 -6 2 -10t2 -8q2 10 2 16l16 60h15 l12 -45q6 -18 6 -31q2 4 2 8t2 10l15 58h10l-25 -86h-10l-16 63q-2 6 -2 11q-2 -4 -2 -11l-19 -63h-10zM141 162l-24 86h14l10 -58q2 -6 2 -10t4 -8q2 10 3 16l16 60h12l15 -45q2 -10 3 -16.5t1 -14.5q4 4 4 8t2 10l12 58h12l-24 -86h-10l-17 63q-2 6 -2 11q-4 -4 -4 -11 l-18 -63h-11zM498 209h18q8 0 10 4q6 0 6 2q2 2 3 8q0 6 -3 8h-2q-2 0 -2 1t-2 1q-2 2 -12 3h-16v-27zM362 162l-22 86h12l13 -58q2 -6 2 -10t4 -8q0 8 1 11t1 5l16 60h12l15 -45q2 -10 3 -16.5t1 -14.5q4 4 4 8t2 10l14 58h11l-25 -86h-10l-17 63q-2 6 -2 11q-4 -4 -4 -11 l-18 -63h-13zM881 207h24q4 0 7 1t8 1q4 0 4 6q2 2 2 8t-4 10q-2 2 -15 3h-26v-29zM498 170h22q4 0 6 2h6q2 4 7 6v8q0 4 -4 9q0 4 -5 4h-14h-18v-29zM567 162v86h11v-86h-11zM1319 203q0 -18 6 -25q8 -8 23 -8q14 0 20 8q8 6 8 27q0 10 -2 16q-4 10 -10 12t-16 3 q-12 0 -19 -7q-10 -8 -10 -26zM1307 203q0 23 12 33q8 12 29 12q6 0 11 -2t9 -4q6 -2 9 -6.5l7 -10.5q2 -4 2 -20q0 -18 -4 -25q-6 -10 -14 -16q-8 -4 -20 -4q-6 0 -11.5 1t-11.5 3q-4 4 -7 8t-5 8q-2 6 -4 11.5t-2 11.5zM782 162l33 86h12l35 -86h-12l-10 24h-35l-12 -24 h-11zM600 162v86h10v-78h39v-8h-49zM1192 162v10h14v-10h-14zM995 195v10h35v-33q-8 -8 -16 -10q-4 0 -9.5 -1t-9.5 -1q-12 0 -20 4q-6 4 -10 7t-7 9q-2 6 -4 11.5t-2 11.5q0 8 2 12t4 10q4 12 15 17q4 2 10 4t12 2q10 0 17 -4q8 -2 10 -8q6 -6 8 -13l-10 -2q0 2 -6 8 q0 4 -8 7h-11h-12q-6 -2 -10 -7q0 -2 -6 -8q0 -4 -1 -8t-1 -8q0 -14 4 -19q8 -12 10 -14q6 -2 16 -2q8 0 15 2q4 4 6 4t4 2v17h-25zM870 162v86h37q6 0 10.5 -2t8.5 -2q6 -2 8 -8q4 -4 4 -13q0 -10 -6 -16q-2 -2 -7 -3t-12 -5q4 0 5.5 -1t3.5 -1q2 -4 8 -15l16 -20h-14 l-12 16q-4 4 -5.5 7t-3.5 5q0 4 -2 4.5t-4 2.5h-2q-2 0 -2 1t-2 1h-4h-14v-37h-11zM664 162v86h12v-78h41v-8h-53zM1286 190l10 -2q-4 -16 -12 -20q-8 -8 -22 -8q-12 0 -21 4q-6 4 -8 8t-6 8q-4 16 -4 25q0 8 4 24q10 10 14 13q6 2 10 4t11 2q6 0 12 -2t10 -4q4 -4 7 -8.5 t5 -10.5l-12 -2q0 8 -8 12q-4 2 -14 3q-12 0 -17 -3q-4 -2 -5 -5t-5 -7q0 -4 -1 -8t-1 -8q0 -12 6 -19q0 -4 2 -7t4 -7q6 -2 17 -2q10 0 16 6t8 14zM1403 162v86h16l21 -62q0 -4 2 -7t2 -7q0 2 4 14l18 62h17v-86h-10v69l-25 -69h-10l-25 71v-71h-10zM213 319l16 -6 q-4 -18 -18 -30q-16 -12 -35 -13q-18 0 -35 9q-16 12 -18 24q-8 14 -8 35q0 23 8 37q6 14 20 20q14 8 33 8q23 0 31 -10q14 -4 20 -26l-16 -2q-8 16 -14 18q-6 8 -21 8q-16 0 -24 -8q-12 -8 -17 -18q-2 -8 -2 -27q0 -18 6 -27q4 -14 13 -18q10 -8 22 -8q16 0 27 10q4 4 7 10 t5 14zM246 336q0 16 4 28.5t14 20.5q8 10 19.5 14t23.5 4q18 0 33 -8q12 -6 22 -22q8 -20 9 -35q0 -10 -2 -18.5t-7 -16.5q-10 -16 -24 -24q-16 -8 -31 -9q-10 0 -17 2t-16 7q-14 8 -20 24q-8 15 -8 33zM264 336q0 -25 10 -39q14 -12 33 -12q20 0 31 16q14 14 14 37 q0 8 -2 14t-4 13q-4 14 -16 18q-6 8 -23 8q-16 0 -31 -14q-12 -10 -12 -41zM391 274v127h25l30 -90q6 -12 7 -18q4 4 8 20l33 88h20v-127h-16v107l-37 -107h-17l-36 109v-109h-17zM543 274v127h49h18q10 0 17 -6q2 -2 10 -12q2 -4 3 -8t1 -10q0 -12 -10 -27q-10 -10 -39 -10 h-33v-54h-16zM559 340h35q18 0 20 8q8 2 9 17q0 10 -2 12q-8 8 -15 8q-2 4 -14 4h-33v-49zM664 274v127h16v-114h63v-13h-79zM764 274v127h94v-12h-78v-41h72v-16h-72v-45h80v-13h-96zM915 274v115h-43v12h105v-12h-43v-115h-19zM995 274v127h95v-12h-78v-41h71v-16h-71v-45 h80v-13h-97zM1161 313l17 2q0 -10 4 -14q4 -8 14 -12q4 -2 18 -2h9.5t9.5 2q6 0 10 8q2 4 2 12q0 6 -2 10q-2 2 -5 3.5t-7 5.5q-2 0 -23 4q-10 4 -16 5t-10 3q-8 4 -13 14q-4 2 -5 6.5t-1 8.5q0 12 8 20q2 4 6.5 6t10.5 6q4 2 24 2q14 0 23 -4q6 -4 10 -6t6 -8q8 -6 9 -18 l-17 -2q-4 16 -10 18q-6 6 -21 6q-20 0 -24 -6q-6 -6 -6 -14q0 -6 6 -11l24 -10q10 -2 17.5 -4t11.5 -4q6 -2 9 -5l7 -7q4 -6 5 -19q0 -14 -5 -20q-8 -8 -16 -13l-12 -4t-15 -2q-8 0 -16 2t-12 4q-10 2 -21 17q-4 8 -4 20zM1286 274v127h92v-12h-73v-41h71v-16h-71v-45h77 v-13h-96zM1440 274v115h-41v12h100v-12h-43v-115h-16zM127 428v127h51h19q4 0 16 -4q2 -2 5 -6t5 -8q4 -4 4 -15q0 -18 -12 -30q-6 -10 -37 -11h-31v-53h-20zM147 498h31q18 0 25 4q8 8 8 16q0 4 -2 8t-4 9q-6 6 -10 6q-2 2 -17 2h-31v-45zM248 428v127h92v-12h-74v-41h70 v-15h-70v-43h78v-16h-96zM367 428v127h59q18 0 27 -2q10 -4 14 -10q4 -16 4 -21q0 -14 -8 -22t-29 -13q4 -4 6 -4t4 -2q10 -10 15 -18l22 -35h-20l-19 27q-2 6 -5 10t-5 8q-4 2 -5 5t-3 3q-4 2 -8 2q-2 4 -10 4h-19v-59h-20zM387 500h33q16 0 20 2q6 6 11 8q2 4 2 12t-7 15 q-6 6 -20 6h-39v-43zM494 471h14q0 -4 2 -8l4 -8q2 -2 5 -5.5t7 -3.5q12 -4 21 -4h8t6 2q12 4 14 9q0 2 1.5 5t1.5 5q0 8 -3 10q-6 4 -14 8q-2 2 -7 2t-13 4q-18 2 -27 9q-10 8 -14 12q-2 6 -2 16q0 4 1 9.5t5 9.5q2 8 16 12q4 4 23 4q16 0 24 -4q12 -6 17 -14q8 -12 8 -19 l-17 -4q-4 14 -10 19q-8 8 -22 8q-16 0 -23 -8q-6 -4 -6 -13q0 -8 6 -10q2 -4 23 -8q18 -8 30 -8q4 -4 8.5 -7.5t6.5 -7.5q6 -6 6 -18q0 -10 -6 -19q-4 -6 -7 -9t-8 -7q-16 -4 -26 -4q-14 0 -31 4q-6 4 -10 7t-8 9q-2 6 -3 11.5t-1 13.5zM612 492q0 29 17 49q18 18 45 18 q8 0 15 -2t18 -6q8 -4 12 -10t8 -15q8 -14 8 -34q0 -18 -8 -35q-8 -14 -20 -23q-16 -8 -33 -8q-18 0 -33 10q-18 10 -20 25q-9 11 -9 31zM629 492q0 -25 12 -37t33 -13q20 0 33 13q10 14 10 37q0 8 -1 16t-5 14q-6 10 -13 15q-10 8 -24 8q-10 0 -16.5 -3t-16.5 -10 q-12 -11 -12 -40zM756 428v127h18l68 -98v98h16v-127h-16l-70 100v-100h-16zM872 428l50 127h18l53 -127h-20l-15 41h-53l-16 -41h-17zM907 481h45l-12 35q-4 8 -6 15.5t-4 11.5q0 -6 -2 -12.5t-4 -12.5zM1004 428v127h18v-111h63v-16h-81zM1233 555h16v-72q0 -23 -4 -30 q-4 -12 -14 -19q-10 -8 -31 -8q-20 0 -29 8q-6 2 -10 7t-8 12q-2 4 -2 30v72h14v-72q0 -20 4 -26q4 -8 11 -11q4 -2 8 -3t10 -1q16 0 27 7q8 8 8 34v72zM1272 471h16q0 -4 2 -8l4 -8l5.5 -5.5t7.5 -3.5q12 -4 18 -4q14 0 21 2q4 2 10 9q2 2 2 10t-2 10q-4 2 -5 4t-5 4 t-10.5 2t-14.5 4q-8 2 -15.5 3.5t-9.5 5.5q-10 4 -12 12q-6 6 -6 16q0 8 6 19q2 8 14 12q8 4 25 4h13t12 -4q12 -6 18 -14q2 -4 4 -9.5t2 -9.5l-16 -4q-4 6 -5 11.5t-5 7.5q-6 8 -23 8q-18 0 -20 -8q-8 -2 -9 -13q0 -6 4 -10t25 -8q23 -8 29 -8q6 -4 10 -7.5t6 -7.5 q6 -4 6 -18q0 -12 -6 -19q-2 -6 -6 -9t-10 -7q-12 -4 -23 -4q-10 0 -17 1t-14 3q-4 4 -9 7t-9 9t-6 11.5t-2 13.5zM1399 428v127h92v-12h-74v-41h68v-15h-68v-43h76v-16h-94z" />
<glyph unicode="1" horiz-adv-x="1665" d="M1499 639q0 -43 -41 -43q-39 0 -39 45l8 8l13 -6q4 -14 6 -20.5t12 -6.5q16 0 17 19q0 12 -21 33l-13 13t-14 15q-8 16 -8 25q0 41 39 41t39 -39l-22 -4q-4 20 -17 20q-12 0 -12 -18q0 -16 33 -43q20 -21 20 -39zM1401 735h-27v-139l-10 -8l-14 8v139h-27v23h78v-23z M1169 1235l-186 -170l49 -254l-219 129l-225 -129l53 248l-188 176l254 27l106 233l102 -231zM1305 596h-27l-35 104v-104h-24v141l-7 11l7 10h30l31 -109v109h25v-162zM1198 633q0 -37 -39 -37t-39 37v90q0 39 39 39t39 -39v-90zM1102 735h-43v-47h33v-22h-33v-70h-27v139 l-6 13l6 10h70v-23zM1001 596h-67v162l12 10l12 -10v-137h43v-25zM915 596h-69v139l-6 13l6 10h69v-23h-45v-47h35v-22h-35v-45h45v-25zM825 633q0 -39 -39 -39t-38 39v88q0 41 38 41q39 0 39 -41v-19h-26v21q0 14 -13 14q-14 0 -14 -14v-90q0 -12 14 -12q12 0 13 12v33h-13 l-8 10l8 12h39v-55zM729 596h-27l-12 61h-16v-61h-25v141l-8 11l8 10h37q41 0 41 -37v-25q0 -16 -16 -28zM629 596l-15 -8l-12 8l-6 37h-23l-8 -37l-14 -8l-10 8l26 162h35zM506 758l-33 -92v-70h-22v70l-35 92h26l19 -58l18 58h27zM428 596h-66v162l11 10l14 -10v-137h41 v-25zM346 596h-65v162l10 10l12 -10v-137h43v-25zM256 596l-14 -8l-11 8v162h25v-162zM211 643q0 -47 -37 -47h-47v139l-6 10l6 13h39q41 0 41 -45q0 -25 -19 -31q23 -10 23 -39zM905 954l-59 353h-72l-61 -353l30 -18l27 18l12 80h54l14 -80l29 -18zM1171 723q0 14 -12 14 q-14 0 -14 -14v-90q0 -12 14 -12q12 0 12 12v90zM700 721q0 14 -14 14h-12v-51h12q14 0 14 12v25zM594 657l-10 64l-9 -64h19zM180 713q0 23 -14 22h-12v-43h12q14 1 14 21zM184 643q0 27 -18 27h-12v-49h12q18 -1 18 22zM831 1085h-40l18 140zM807 197h29l-11 24q-2 4 -2 7 t-4 8q0 -6 -4 -15zM455 162v10h14v-10h-14zM1126 162v86h11v-78h43v-8h-54zM1049 162v86h61v-12h-51v-27h47v-10h-47v-29h51v-8h-61zM745 162v35l-32 51h14l16 -27q4 -12 9 -14q2 2 4 6t6 8l16 27h13l-35 -51v-35h-11zM487 162v86h33q4 0 7 -2t5 -2q8 -2 11 -8q4 -4 4 -13 q0 -6 -4 -8q-2 -8 -8 -8q6 -2 12 -8q4 -8 4 -13q0 -4 -1 -6t-1 -4q-2 -8 -8 -8q-2 -4 -4 -4t-5 -2h-12h-33zM254 162l-25 86h13l12 -58q2 -6 2 -10t2 -8q2 10 2 16l16 60h15l12 -45q6 -18 6 -31q2 4 2 8t2 10l15 58h10l-25 -86h-10l-16 63q-2 6 -2 11q-2 -4 -2 -11l-19 -63 h-10zM141 162l-24 86h14l10 -58q2 -6 2 -10t4 -8q2 10 3 16l16 60h12l15 -45q2 -10 3 -16.5t1 -14.5q4 4 4 8t2 10l12 58h12l-24 -86h-10l-17 63q-2 6 -2 11q-4 -4 -4 -11l-18 -63h-11zM498 209h18q8 0 10 4q6 0 6 2q2 2 3 8q0 6 -3 8h-2q-2 0 -2 1t-2 1q-2 2 -12 3h-16v-27 zM362 162l-22 86h12l13 -58q2 -6 2 -10t4 -8q0 8 1 11t1 5l16 60h12l15 -45q2 -10 3 -16.5t1 -14.5q4 4 4 8t2 10l14 58h11l-25 -86h-10l-17 63q-2 6 -2 11q-4 -4 -4 -11l-18 -63h-13zM881 207h24q4 0 7 1t8 1q4 0 4 6q2 2 2 8t-4 10q-2 2 -15 3h-26v-29zM498 170h22 q4 0 6 2h6q2 4 7 6v8q0 4 -4 9q0 4 -5 4h-14h-18v-29zM567 162v86h11v-86h-11zM1319 203q0 -18 6 -25q8 -8 23 -8q14 0 20 8q8 6 8 27q0 10 -2 16q-4 10 -10 12t-16 3q-12 0 -19 -7q-10 -8 -10 -26zM1307 203q0 23 12 33q8 12 29 12q6 0 11 -2t9 -4q6 -2 9 -6.5l7 -10.5 q2 -4 2 -20q0 -18 -4 -25q-6 -10 -14 -16q-8 -4 -20 -4q-6 0 -11.5 1t-11.5 3q-4 4 -7 8t-5 8q-2 6 -4 11.5t-2 11.5zM782 162l33 86h12l35 -86h-12l-10 24h-35l-12 -24h-11zM600 162v86h10v-78h39v-8h-49zM1192 162v10h14v-10h-14zM995 195v10h35v-33q-8 -8 -16 -10 q-4 0 -9.5 -1t-9.5 -1q-12 0 -20 4q-6 4 -10 7t-7 9q-2 6 -4 11.5t-2 11.5q0 8 2 12t4 10q4 12 15 17q4 2 10 4t12 2q10 0 17 -4q8 -2 10 -8q6 -6 8 -13l-10 -2q0 2 -6 8q0 4 -8 7h-11h-12q-6 -2 -10 -7q0 -2 -6 -8q0 -4 -1 -8t-1 -8q0 -14 4 -19q8 -12 10 -14q6 -2 16 -2 q8 0 15 2q4 4 6 4t4 2v17h-25zM870 162v86h37q6 0 10.5 -2t8.5 -2q6 -2 8 -8q4 -4 4 -13q0 -10 -6 -16q-2 -2 -7 -3t-12 -5q4 0 5.5 -1t3.5 -1q2 -4 8 -15l16 -20h-14l-12 16q-4 4 -5.5 7t-3.5 5q0 4 -2 4.5t-4 2.5h-2q-2 0 -2 1t-2 1h-4h-14v-37h-11zM664 162v86h12v-78h41 v-8h-53zM1286 190l10 -2q-4 -16 -12 -20q-8 -8 -22 -8q-12 0 -21 4q-6 4 -8 8t-6 8q-4 16 -4 25q0 8 4 24q10 10 14 13q6 2 10 4t11 2q6 0 12 -2t10 -4q4 -4 7 -8.5t5 -10.5l-12 -2q0 8 -8 12q-4 2 -14 3q-12 0 -17 -3q-4 -2 -5 -5t-5 -7q0 -4 -1 -8t-1 -8q0 -12 6 -19 q0 -4 2 -7t4 -7q6 -2 17 -2q10 0 16 6t8 14zM1403 162v86h16l21 -62q0 -4 2 -7t2 -7q0 2 4 14l18 62h17v-86h-10v69l-25 -69h-10l-25 71v-71h-10zM807 197h29l-11 24q-2 4 -2 7t-4 8q0 -6 -4 -15zM455 162v10h14v-10h-14zM1126 162v86h11v-78h43v-8h-54zM1049 162v86h61v-12 h-51v-27h47v-10h-47v-29h51v-8h-61zM745 162v35l-32 51h14l16 -27q4 -12 9 -14q2 2 4 6t6 8l16 27h13l-35 -51v-35h-11zM487 162v86h33q4 0 7 -2t5 -2q8 -2 11 -8q4 -4 4 -13q0 -6 -4 -8q-2 -8 -8 -8q6 -2 12 -8q4 -8 4 -13q0 -4 -1 -6t-1 -4q-2 -8 -8 -8q-2 -4 -4 -4t-5 -2 h-12h-33zM254 162l-25 86h13l12 -58q2 -6 2 -10t2 -8q2 10 2 16l16 60h15l12 -45q6 -18 6 -31q2 4 2 8t2 10l15 58h10l-25 -86h-10l-16 63q-2 6 -2 11q-2 -4 -2 -11l-19 -63h-10zM141 162l-24 86h14l10 -58q2 -6 2 -10t4 -8q2 10 3 16l16 60h12l15 -45q2 -10 3 -16.5 t1 -14.5q4 4 4 8t2 10l12 58h12l-24 -86h-10l-17 63q-2 6 -2 11q-4 -4 -4 -11l-18 -63h-11zM498 209h18q8 0 10 4q6 0 6 2q2 2 3 8q0 6 -3 8h-2q-2 0 -2 1t-2 1q-2 2 -12 3h-16v-27zM362 162l-22 86h12l13 -58q2 -6 2 -10t4 -8q0 8 1 11t1 5l16 60h12l15 -45q2 -10 3 -16.5 t1 -14.5q4 4 4 8t2 10l14 58h11l-25 -86h-10l-17 63q-2 6 -2 11q-4 -4 -4 -11l-18 -63h-13zM881 207h24q4 0 7 1t8 1q4 0 4 6q2 2 2 8t-4 10q-2 2 -15 3h-26v-29zM498 170h22q4 0 6 2h6q2 4 7 6v8q0 4 -4 9q0 4 -5 4h-14h-18v-29zM567 162v86h11v-86h-11zM1319 203 q0 -18 6 -25q8 -8 23 -8q14 0 20 8q8 6 8 27q0 10 -2 16q-4 10 -10 12t-16 3q-12 0 -19 -7q-10 -8 -10 -26zM1307 203q0 23 12 33q8 12 29 12q6 0 11 -2t9 -4q6 -2 9 -6.5l7 -10.5q2 -4 2 -20q0 -18 -4 -25q-6 -10 -14 -16q-8 -4 -20 -4q-6 0 -11.5 1t-11.5 3q-4 4 -7 8 t-5 8q-2 6 -4 11.5t-2 11.5zM782 162l33 86h12l35 -86h-12l-10 24h-35l-12 -24h-11zM600 162v86h10v-78h39v-8h-49zM1192 162v10h14v-10h-14zM995 195v10h35v-33q-8 -8 -16 -10q-4 0 -9.5 -1t-9.5 -1q-12 0 -20 4q-6 4 -10 7t-7 9q-2 6 -4 11.5t-2 11.5q0 8 2 12t4 10 q4 12 15 17q4 2 10 4t12 2q10 0 17 -4q8 -2 10 -8q6 -6 8 -13l-10 -2q0 2 -6 8q0 4 -8 7h-11h-12q-6 -2 -10 -7q0 -2 -6 -8q0 -4 -1 -8t-1 -8q0 -14 4 -19q8 -12 10 -14q6 -2 16 -2q8 0 15 2q4 4 6 4t4 2v17h-25zM870 162v86h37q6 0 10.5 -2t8.5 -2q6 -2 8 -8q4 -4 4 -13 q0 -10 -6 -16q-2 -2 -7 -3t-12 -5q4 0 5.5 -1t3.5 -1q2 -4 8 -15l16 -20h-14l-12 16q-4 4 -5.5 7t-3.5 5q0 4 -2 4.5t-4 2.5h-2q-2 0 -2 1t-2 1h-4h-14v-37h-11zM664 162v86h12v-78h41v-8h-53zM1286 190l10 -2q-4 -16 -12 -20q-8 -8 -22 -8q-12 0 -21 4q-6 4 -8 8t-6 8 q-4 16 -4 25q0 8 4 24q10 10 14 13q6 2 10 4t11 2q6 0 12 -2t10 -4q4 -4 7 -8.5t5 -10.5l-12 -2q0 8 -8 12q-4 2 -14 3q-12 0 -17 -3q-4 -2 -5 -5t-5 -7q0 -4 -1 -8t-1 -8q0 -12 6 -19q0 -4 2 -7t4 -7q6 -2 17 -2q10 0 16 6t8 14zM1403 162v86h16l21 -62q0 -4 2 -7t2 -7 q0 2 4 14l18 62h17v-86h-10v69l-25 -69h-10l-25 71v-71h-10zM807 197h29l-11 24q-2 4 -2 7t-4 8q0 -6 -4 -15zM455 162v10h14v-10h-14zM1126 162v86h11v-78h43v-8h-54zM1049 162v86h61v-12h-51v-27h47v-10h-47v-29h51v-8h-61zM745 162v35l-32 51h14l16 -27q4 -12 9 -14 q2 2 4 6t6 8l16 27h13l-35 -51v-35h-11zM487 162v86h33q4 0 7 -2t5 -2q8 -2 11 -8q4 -4 4 -13q0 -6 -4 -8q-2 -8 -8 -8q6 -2 12 -8q4 -8 4 -13q0 -4 -1 -6t-1 -4q-2 -8 -8 -8q-2 -4 -4 -4t-5 -2h-12h-33zM254 162l-25 86h13l12 -58q2 -6 2 -10t2 -8q2 10 2 16l16 60h15 l12 -45q6 -18 6 -31q2 4 2 8t2 10l15 58h10l-25 -86h-10l-16 63q-2 6 -2 11q-2 -4 -2 -11l-19 -63h-10zM141 162l-24 86h14l10 -58q2 -6 2 -10t4 -8q2 10 3 16l16 60h12l15 -45q2 -10 3 -16.5t1 -14.5q4 4 4 8t2 10l12 58h12l-24 -86h-10l-17 63q-2 6 -2 11q-4 -4 -4 -11 l-18 -63h-11zM498 209h18q8 0 10 4q6 0 6 2q2 2 3 8q0 6 -3 8h-2q-2 0 -2 1t-2 1q-2 2 -12 3h-16v-27zM362 162l-22 86h12l13 -58q2 -6 2 -10t4 -8q0 8 1 11t1 5l16 60h12l15 -45q2 -10 3 -16.5t1 -14.5q4 4 4 8t2 10l14 58h11l-25 -86h-10l-17 63q-2 6 -2 11q-4 -4 -4 -11 l-18 -63h-13zM881 207h24q4 0 7 1t8 1q4 0 4 6q2 2 2 8t-4 10q-2 2 -15 3h-26v-29zM498 170h22q4 0 6 2h6q2 4 7 6v8q0 4 -4 9q0 4 -5 4h-14h-18v-29zM567 162v86h11v-86h-11zM1319 203q0 -18 6 -25q8 -8 23 -8q14 0 20 8q8 6 8 27q0 10 -2 16q-4 10 -10 12t-16 3 q-12 0 -19 -7q-10 -8 -10 -26zM1307 203q0 23 12 33q8 12 29 12q6 0 11 -2t9 -4q6 -2 9 -6.5l7 -10.5q2 -4 2 -20q0 -18 -4 -25q-6 -10 -14 -16q-8 -4 -20 -4q-6 0 -11.5 1t-11.5 3q-4 4 -7 8t-5 8q-2 6 -4 11.5t-2 11.5zM782 162l33 86h12l35 -86h-12l-10 24h-35l-12 -24 h-11zM600 162v86h10v-78h39v-8h-49zM1192 162v10h14v-10h-14zM995 195v10h35v-33q-8 -8 -16 -10q-4 0 -9.5 -1t-9.5 -1q-12 0 -20 4q-6 4 -10 7t-7 9q-2 6 -4 11.5t-2 11.5q0 8 2 12t4 10q4 12 15 17q4 2 10 4t12 2q10 0 17 -4q8 -2 10 -8q6 -6 8 -13l-10 -2q0 2 -6 8 q0 4 -8 7h-11h-12q-6 -2 -10 -7q0 -2 -6 -8q0 -4 -1 -8t-1 -8q0 -14 4 -19q8 -12 10 -14q6 -2 16 -2q8 0 15 2q4 4 6 4t4 2v17h-25zM870 162v86h37q6 0 10.5 -2t8.5 -2q6 -2 8 -8q4 -4 4 -13q0 -10 -6 -16q-2 -2 -7 -3t-12 -5q4 0 5.5 -1t3.5 -1q2 -4 8 -15l16 -20h-14 l-12 16q-4 4 -5.5 7t-3.5 5q0 4 -2 4.5t-4 2.5h-2q-2 0 -2 1t-2 1h-4h-14v-37h-11zM664 162v86h12v-78h41v-8h-53zM1286 190l10 -2q-4 -16 -12 -20q-8 -8 -22 -8q-12 0 -21 4q-6 4 -8 8t-6 8q-4 16 -4 25q0 8 4 24q10 10 14 13q6 2 10 4t11 2q6 0 12 -2t10 -4q4 -4 7 -8.5 t5 -10.5l-12 -2q0 8 -8 12q-4 2 -14 3q-12 0 -17 -3q-4 -2 -5 -5t-5 -7q0 -4 -1 -8t-1 -8q0 -12 6 -19q0 -4 2 -7t4 -7q6 -2 17 -2q10 0 16 6t8 14zM1403 162v86h16l21 -62q0 -4 2 -7t2 -7q0 2 4 14l18 62h17v-86h-10v69l-25 -69h-10l-25 71v-71h-10zM213 319l16 -6 q-4 -18 -18 -30q-16 -12 -35 -13q-18 0 -35 9q-16 12 -18 24q-8 14 -8 35q0 23 8 37q6 14 20 20q14 8 33 8q23 0 31 -10q14 -4 20 -26l-16 -2q-8 16 -14 18q-6 8 -21 8q-16 0 -24 -8q-12 -8 -17 -18q-2 -8 -2 -27q0 -18 6 -27q4 -14 13 -18q10 -8 22 -8q16 0 27 10q4 4 7 10 t5 14zM246 336q0 16 4 28.5t14 20.5q8 10 19.5 14t23.5 4q18 0 33 -8q12 -6 22 -22q8 -20 9 -35q0 -10 -2 -18.5t-7 -16.5q-10 -16 -24 -24q-16 -8 -31 -9q-10 0 -17 2t-16 7q-14 8 -20 24q-8 15 -8 33zM264 336q0 -25 10 -39q14 -12 33 -12q20 0 31 16q14 14 14 37 q0 8 -2 14t-4 13q-4 14 -16 18q-6 8 -23 8q-16 0 -31 -14q-12 -10 -12 -41zM391 274v127h25l30 -90q6 -12 7 -18q4 4 8 20l33 88h20v-127h-16v107l-37 -107h-17l-36 109v-109h-17zM543 274v127h49h18q10 0 17 -6q2 -2 10 -12q2 -4 3 -8t1 -10q0 -12 -10 -27q-10 -10 -39 -10 h-33v-54h-16zM559 340h35q18 0 20 8q8 2 9 17q0 10 -2 12q-8 8 -15 8q-2 4 -14 4h-33v-49zM664 274v127h16v-114h63v-13h-79zM764 274v127h94v-12h-78v-41h72v-16h-72v-45h80v-13h-96zM915 274v115h-43v12h105v-12h-43v-115h-19zM995 274v127h95v-12h-78v-41h71v-16h-71v-45 h80v-13h-97zM1161 313l17 2q0 -10 4 -14q4 -8 14 -12q4 -2 18 -2h9.5t9.5 2q6 0 10 8q2 4 2 12q0 6 -2 10q-2 2 -5 3.5t-7 5.5q-2 0 -23 4q-10 4 -16 5t-10 3q-8 4 -13 14q-4 2 -5 6.5t-1 8.5q0 12 8 20q2 4 6.5 6t10.5 6q4 2 24 2q14 0 23 -4q6 -4 10 -6t6 -8q8 -6 9 -18 l-17 -2q-4 16 -10 18q-6 6 -21 6q-20 0 -24 -6q-6 -6 -6 -14q0 -6 6 -11l24 -10q10 -2 17.5 -4t11.5 -4q6 -2 9 -5l7 -7q4 -6 5 -19q0 -14 -5 -20q-8 -8 -16 -13l-12 -4t-15 -2q-8 0 -16 2t-12 4q-10 2 -21 17q-4 8 -4 20zM1286 274v127h92v-12h-73v-41h71v-16h-71v-45h77 v-13h-96zM1440 274v115h-41v12h100v-12h-43v-115h-16zM127 428v127h51h19q4 0 16 -4q2 -2 5 -6t5 -8q4 -4 4 -15q0 -18 -12 -30q-6 -10 -37 -11h-31v-53h-20zM147 498h31q18 0 25 4q8 8 8 16q0 4 -2 8t-4 9q-6 6 -10 6q-2 2 -17 2h-31v-45zM248 428v127h92v-12h-74v-41h70 v-15h-70v-43h78v-16h-96zM367 428v127h59q18 0 27 -2q10 -4 14 -10q4 -16 4 -21q0 -14 -8 -22t-29 -13q4 -4 6 -4t4 -2q10 -10 15 -18l22 -35h-20l-19 27q-2 6 -5 10t-5 8q-4 2 -5 5t-3 3q-4 2 -8 2q-2 4 -10 4h-19v-59h-20zM387 500h33q16 0 20 2q6 6 11 8q2 4 2 12t-7 15 q-6 6 -20 6h-39v-43zM494 471h14q0 -4 2 -8l4 -8q2 -2 5 -5.5t7 -3.5q12 -4 21 -4h8t6 2q12 4 14 9q0 2 1.5 5t1.5 5q0 8 -3 10q-6 4 -14 8q-2 2 -7 2t-13 4q-18 2 -27 9q-10 8 -14 12q-2 6 -2 16q0 4 1 9.5t5 9.5q2 8 16 12q4 4 23 4q16 0 24 -4q12 -6 17 -14q8 -12 8 -19 l-17 -4q-4 14 -10 19q-8 8 -22 8q-16 0 -23 -8q-6 -4 -6 -13q0 -8 6 -10q2 -4 23 -8q18 -8 30 -8q4 -4 8.5 -7.5t6.5 -7.5q6 -6 6 -18q0 -10 -6 -19q-4 -6 -7 -9t-8 -7q-16 -4 -26 -4q-14 0 -31 4q-6 4 -10 7t-8 9q-2 6 -3 11.5t-1 13.5zM612 492q0 29 17 49q18 18 45 18 q8 0 15 -2t18 -6q8 -4 12 -10t8 -15q8 -14 8 -34q0 -18 -8 -35q-8 -14 -20 -23q-16 -8 -33 -8q-18 0 -33 10q-18 10 -20 25q-9 11 -9 31zM629 492q0 -25 12 -37t33 -13q20 0 33 13q10 14 10 37q0 8 -1 16t-5 14q-6 10 -13 15q-10 8 -24 8q-10 0 -16.5 -3t-16.5 -10 q-12 -11 -12 -40zM756 428v127h18l68 -98v98h16v-127h-16l-70 100v-100h-16zM872 428l50 127h18l53 -127h-20l-15 41h-53l-16 -41h-17zM907 481h45l-12 35q-4 8 -6 15.5t-4 11.5q0 -6 -2 -12.5t-4 -12.5zM1004 428v127h18v-111h63v-16h-81zM1233 555h16v-72q0 -23 -4 -30 q-4 -12 -14 -19q-10 -8 -31 -8q-20 0 -29 8q-6 2 -10 7t-8 12q-2 4 -2 30v72h14v-72q0 -20 4 -26q4 -8 11 -11q4 -2 8 -3t10 -1q16 0 27 7q8 8 8 34v72zM1272 471h16q0 -4 2 -8l4 -8l5.5 -5.5t7.5 -3.5q12 -4 18 -4q14 0 21 2q4 2 10 9q2 2 2 10t-2 10q-4 2 -5 4t-5 4 t-10.5 2t-14.5 4q-8 2 -15.5 3.5t-9.5 5.5q-10 4 -12 12q-6 6 -6 16q0 8 6 19q2 8 14 12q8 4 25 4h13t12 -4q12 -6 18 -14q2 -4 4 -9.5t2 -9.5l-16 -4q-4 6 -5 11.5t-5 7.5q-6 8 -23 8q-18 0 -20 -8q-8 -2 -9 -13q0 -6 4 -10t25 -8q23 -8 29 -8q6 -4 10 -7.5t6 -7.5 q6 -4 6 -18q0 -12 -6 -19q-2 -6 -6 -9t-10 -7q-12 -4 -23 -4q-10 0 -17 1t-14 3q-4 4 -9 7t-9 9t-6 11.5t-2 13.5zM1399 428v127h92v-12h-74v-41h68v-15h-68v-43h76v-16h-94z" />
<glyph unicode="2" horiz-adv-x="1665" d="M1499 639q0 -43 -41 -43q-39 0 -39 45l8 8l13 -6q4 -14 6 -20.5t12 -6.5q16 0 17 19q0 12 -21 33l-13 13t-14 15q-8 16 -8 25q0 41 39 41t39 -39l-22 -4q-4 20 -17 20q-12 0 -12 -18q0 -16 33 -43q20 -21 20 -39zM1401 735h-27v-139l-10 -8l-14 8v139h-27v23h78v-23z M1169 1235l-186 -170l49 -254l-219 129l-225 -129l53 248l-188 176l254 27l106 233l102 -231zM1305 596h-27l-35 104v-104h-24v141l-7 11l7 10h30l31 -109v109h25v-162zM1198 633q0 -37 -39 -37t-39 37v90q0 39 39 39t39 -39v-90zM1102 735h-43v-47h33v-22h-33v-70h-27v139 l-6 13l6 10h70v-23zM1001 596h-67v162l12 10l12 -10v-137h43v-25zM915 596h-69v139l-6 13l6 10h69v-23h-45v-47h35v-22h-35v-45h45v-25zM825 633q0 -39 -39 -39t-38 39v88q0 41 38 41q39 0 39 -41v-19h-26v21q0 14 -13 14q-14 0 -14 -14v-90q0 -12 14 -12q12 0 13 12v33h-13 l-8 10l8 12h39v-55zM729 596h-27l-12 61h-16v-61h-25v141l-8 11l8 10h37q41 0 41 -37v-25q0 -16 -16 -28zM629 596l-15 -8l-12 8l-6 37h-23l-8 -37l-14 -8l-10 8l26 162h35zM506 758l-33 -92v-70h-22v70l-35 92h26l19 -58l18 58h27zM428 596h-66v162l11 10l14 -10v-137h41 v-25zM346 596h-65v162l10 10l12 -10v-137h43v-25zM256 596l-14 -8l-11 8v162h25v-162zM211 643q0 -47 -37 -47h-47v139l-6 10l6 13h39q41 0 41 -45q0 -25 -19 -31q23 -10 23 -39zM905 954l-59 353h-72l-61 -353l30 -18l27 18l12 80h54l14 -80l29 -18zM1171 723q0 14 -12 14 q-14 0 -14 -14v-90q0 -12 14 -12q12 0 12 12v90zM700 721q0 14 -14 14h-12v-51h12q14 0 14 12v25zM594 657l-10 64l-9 -64h19zM180 713q0 23 -14 22h-12v-43h12q14 1 14 21zM184 643q0 27 -18 27h-12v-49h12q18 -1 18 22zM831 1085h-40l18 140zM807 197h29l-11 24q-2 4 -2 7 t-4 8q0 -6 -4 -15zM455 162v10h14v-10h-14zM1126 162v86h11v-78h43v-8h-54zM1049 162v86h61v-12h-51v-27h47v-10h-47v-29h51v-8h-61zM745 162v35l-32 51h14l16 -27q4 -12 9 -14q2 2 4 6t6 8l16 27h13l-35 -51v-35h-11zM487 162v86h33q4 0 7 -2t5 -2q8 -2 11 -8q4 -4 4 -13 q0 -6 -4 -8q-2 -8 -8 -8q6 -2 12 -8q4 -8 4 -13q0 -4 -1 -6t-1 -4q-2 -8 -8 -8q-2 -4 -4 -4t-5 -2h-12h-33zM254 162l-25 86h13l12 -58q2 -6 2 -10t2 -8q2 10 2 16l16 60h15l12 -45q6 -18 6 -31q2 4 2 8t2 10l15 58h10l-25 -86h-10l-16 63q-2 6 -2 11q-2 -4 -2 -11l-19 -63 h-10zM141 162l-24 86h14l10 -58q2 -6 2 -10t4 -8q2 10 3 16l16 60h12l15 -45q2 -10 3 -16.5t1 -14.5q4 4 4 8t2 10l12 58h12l-24 -86h-10l-17 63q-2 6 -2 11q-4 -4 -4 -11l-18 -63h-11zM498 209h18q8 0 10 4q6 0 6 2q2 2 3 8q0 6 -3 8h-2q-2 0 -2 1t-2 1q-2 2 -12 3h-16v-27 zM362 162l-22 86h12l13 -58q2 -6 2 -10t4 -8q0 8 1 11t1 5l16 60h12l15 -45q2 -10 3 -16.5t1 -14.5q4 4 4 8t2 10l14 58h11l-25 -86h-10l-17 63q-2 6 -2 11q-4 -4 -4 -11l-18 -63h-13zM881 207h24q4 0 7 1t8 1q4 0 4 6q2 2 2 8t-4 10q-2 2 -15 3h-26v-29zM498 170h22 q4 0 6 2h6q2 4 7 6v8q0 4 -4 9q0 4 -5 4h-14h-18v-29zM567 162v86h11v-86h-11zM1319 203q0 -18 6 -25q8 -8 23 -8q14 0 20 8q8 6 8 27q0 10 -2 16q-4 10 -10 12t-16 3q-12 0 -19 -7q-10 -8 -10 -26zM1307 203q0 23 12 33q8 12 29 12q6 0 11 -2t9 -4q6 -2 9 -6.5l7 -10.5 q2 -4 2 -20q0 -18 -4 -25q-6 -10 -14 -16q-8 -4 -20 -4q-6 0 -11.5 1t-11.5 3q-4 4 -7 8t-5 8q-2 6 -4 11.5t-2 11.5zM782 162l33 86h12l35 -86h-12l-10 24h-35l-12 -24h-11zM600 162v86h10v-78h39v-8h-49zM1192 162v10h14v-10h-14zM995 195v10h35v-33q-8 -8 -16 -10 q-4 0 -9.5 -1t-9.5 -1q-12 0 -20 4q-6 4 -10 7t-7 9q-2 6 -4 11.5t-2 11.5q0 8 2 12t4 10q4 12 15 17q4 2 10 4t12 2q10 0 17 -4q8 -2 10 -8q6 -6 8 -13l-10 -2q0 2 -6 8q0 4 -8 7h-11h-12q-6 -2 -10 -7q0 -2 -6 -8q0 -4 -1 -8t-1 -8q0 -14 4 -19q8 -12 10 -14q6 -2 16 -2 q8 0 15 2q4 4 6 4t4 2v17h-25zM870 162v86h37q6 0 10.5 -2t8.5 -2q6 -2 8 -8q4 -4 4 -13q0 -10 -6 -16q-2 -2 -7 -3t-12 -5q4 0 5.5 -1t3.5 -1q2 -4 8 -15l16 -20h-14l-12 16q-4 4 -5.5 7t-3.5 5q0 4 -2 4.5t-4 2.5h-2q-2 0 -2 1t-2 1h-4h-14v-37h-11zM664 162v86h12v-78h41 v-8h-53zM1286 190l10 -2q-4 -16 -12 -20q-8 -8 -22 -8q-12 0 -21 4q-6 4 -8 8t-6 8q-4 16 -4 25q0 8 4 24q10 10 14 13q6 2 10 4t11 2q6 0 12 -2t10 -4q4 -4 7 -8.5t5 -10.5l-12 -2q0 8 -8 12q-4 2 -14 3q-12 0 -17 -3q-4 -2 -5 -5t-5 -7q0 -4 -1 -8t-1 -8q0 -12 6 -19 q0 -4 2 -7t4 -7q6 -2 17 -2q10 0 16 6t8 14zM1403 162v86h16l21 -62q0 -4 2 -7t2 -7q0 2 4 14l18 62h17v-86h-10v69l-25 -69h-10l-25 71v-71h-10zM807 197h29l-11 24q-2 4 -2 7t-4 8q0 -6 -4 -15zM455 162v10h14v-10h-14zM1126 162v86h11v-78h43v-8h-54zM1049 162v86h61v-12 h-51v-27h47v-10h-47v-29h51v-8h-61zM745 162v35l-32 51h14l16 -27q4 -12 9 -14q2 2 4 6t6 8l16 27h13l-35 -51v-35h-11zM487 162v86h33q4 0 7 -2t5 -2q8 -2 11 -8q4 -4 4 -13q0 -6 -4 -8q-2 -8 -8 -8q6 -2 12 -8q4 -8 4 -13q0 -4 -1 -6t-1 -4q-2 -8 -8 -8q-2 -4 -4 -4t-5 -2 h-12h-33zM254 162l-25 86h13l12 -58q2 -6 2 -10t2 -8q2 10 2 16l16 60h15l12 -45q6 -18 6 -31q2 4 2 8t2 10l15 58h10l-25 -86h-10l-16 63q-2 6 -2 11q-2 -4 -2 -11l-19 -63h-10zM141 162l-24 86h14l10 -58q2 -6 2 -10t4 -8q2 10 3 16l16 60h12l15 -45q2 -10 3 -16.5 t1 -14.5q4 4 4 8t2 10l12 58h12l-24 -86h-10l-17 63q-2 6 -2 11q-4 -4 -4 -11l-18 -63h-11zM498 209h18q8 0 10 4q6 0 6 2q2 2 3 8q0 6 -3 8h-2q-2 0 -2 1t-2 1q-2 2 -12 3h-16v-27zM362 162l-22 86h12l13 -58q2 -6 2 -10t4 -8q0 8 1 11t1 5l16 60h12l15 -45q2 -10 3 -16.5 t1 -14.5q4 4 4 8t2 10l14 58h11l-25 -86h-10l-17 63q-2 6 -2 11q-4 -4 -4 -11l-18 -63h-13zM881 207h24q4 0 7 1t8 1q4 0 4 6q2 2 2 8t-4 10q-2 2 -15 3h-26v-29zM498 170h22q4 0 6 2h6q2 4 7 6v8q0 4 -4 9q0 4 -5 4h-14h-18v-29zM567 162v86h11v-86h-11zM1319 203 q0 -18 6 -25q8 -8 23 -8q14 0 20 8q8 6 8 27q0 10 -2 16q-4 10 -10 12t-16 3q-12 0 -19 -7q-10 -8 -10 -26zM1307 203q0 23 12 33q8 12 29 12q6 0 11 -2t9 -4q6 -2 9 -6.5l7 -10.5q2 -4 2 -20q0 -18 -4 -25q-6 -10 -14 -16q-8 -4 -20 -4q-6 0 -11.5 1t-11.5 3q-4 4 -7 8 t-5 8q-2 6 -4 11.5t-2 11.5zM782 162l33 86h12l35 -86h-12l-10 24h-35l-12 -24h-11zM600 162v86h10v-78h39v-8h-49zM1192 162v10h14v-10h-14zM995 195v10h35v-33q-8 -8 -16 -10q-4 0 -9.5 -1t-9.5 -1q-12 0 -20 4q-6 4 -10 7t-7 9q-2 6 -4 11.5t-2 11.5q0 8 2 12t4 10 q4 12 15 17q4 2 10 4t12 2q10 0 17 -4q8 -2 10 -8q6 -6 8 -13l-10 -2q0 2 -6 8q0 4 -8 7h-11h-12q-6 -2 -10 -7q0 -2 -6 -8q0 -4 -1 -8t-1 -8q0 -14 4 -19q8 -12 10 -14q6 -2 16 -2q8 0 15 2q4 4 6 4t4 2v17h-25zM870 162v86h37q6 0 10.5 -2t8.5 -2q6 -2 8 -8q4 -4 4 -13 q0 -10 -6 -16q-2 -2 -7 -3t-12 -5q4 0 5.5 -1t3.5 -1q2 -4 8 -15l16 -20h-14l-12 16q-4 4 -5.5 7t-3.5 5q0 4 -2 4.5t-4 2.5h-2q-2 0 -2 1t-2 1h-4h-14v-37h-11zM664 162v86h12v-78h41v-8h-53zM1286 190l10 -2q-4 -16 -12 -20q-8 -8 -22 -8q-12 0 -21 4q-6 4 -8 8t-6 8 q-4 16 -4 25q0 8 4 24q10 10 14 13q6 2 10 4t11 2q6 0 12 -2t10 -4q4 -4 7 -8.5t5 -10.5l-12 -2q0 8 -8 12q-4 2 -14 3q-12 0 -17 -3q-4 -2 -5 -5t-5 -7q0 -4 -1 -8t-1 -8q0 -12 6 -19q0 -4 2 -7t4 -7q6 -2 17 -2q10 0 16 6t8 14zM1403 162v86h16l21 -62q0 -4 2 -7t2 -7 q0 2 4 14l18 62h17v-86h-10v69l-25 -69h-10l-25 71v-71h-10zM807 197h29l-11 24q-2 4 -2 7t-4 8q0 -6 -4 -15zM455 162v10h14v-10h-14zM1126 162v86h11v-78h43v-8h-54zM1049 162v86h61v-12h-51v-27h47v-10h-47v-29h51v-8h-61zM745 162v35l-32 51h14l16 -27q4 -12 9 -14 q2 2 4 6t6 8l16 27h13l-35 -51v-35h-11zM487 162v86h33q4 0 7 -2t5 -2q8 -2 11 -8q4 -4 4 -13q0 -6 -4 -8q-2 -8 -8 -8q6 -2 12 -8q4 -8 4 -13q0 -4 -1 -6t-1 -4q-2 -8 -8 -8q-2 -4 -4 -4t-5 -2h-12h-33zM254 162l-25 86h13l12 -58q2 -6 2 -10t2 -8q2 10 2 16l16 60h15 l12 -45q6 -18 6 -31q2 4 2 8t2 10l15 58h10l-25 -86h-10l-16 63q-2 6 -2 11q-2 -4 -2 -11l-19 -63h-10zM141 162l-24 86h14l10 -58q2 -6 2 -10t4 -8q2 10 3 16l16 60h12l15 -45q2 -10 3 -16.5t1 -14.5q4 4 4 8t2 10l12 58h12l-24 -86h-10l-17 63q-2 6 -2 11q-4 -4 -4 -11 l-18 -63h-11zM498 209h18q8 0 10 4q6 0 6 2q2 2 3 8q0 6 -3 8h-2q-2 0 -2 1t-2 1q-2 2 -12 3h-16v-27zM362 162l-22 86h12l13 -58q2 -6 2 -10t4 -8q0 8 1 11t1 5l16 60h12l15 -45q2 -10 3 -16.5t1 -14.5q4 4 4 8t2 10l14 58h11l-25 -86h-10l-17 63q-2 6 -2 11q-4 -4 -4 -11 l-18 -63h-13zM881 207h24q4 0 7 1t8 1q4 0 4 6q2 2 2 8t-4 10q-2 2 -15 3h-26v-29zM498 170h22q4 0 6 2h6q2 4 7 6v8q0 4 -4 9q0 4 -5 4h-14h-18v-29zM567 162v86h11v-86h-11zM1319 203q0 -18 6 -25q8 -8 23 -8q14 0 20 8q8 6 8 27q0 10 -2 16q-4 10 -10 12t-16 3 q-12 0 -19 -7q-10 -8 -10 -26zM1307 203q0 23 12 33q8 12 29 12q6 0 11 -2t9 -4q6 -2 9 -6.5l7 -10.5q2 -4 2 -20q0 -18 -4 -25q-6 -10 -14 -16q-8 -4 -20 -4q-6 0 -11.5 1t-11.5 3q-4 4 -7 8t-5 8q-2 6 -4 11.5t-2 11.5zM782 162l33 86h12l35 -86h-12l-10 24h-35l-12 -24 h-11zM600 162v86h10v-78h39v-8h-49zM1192 162v10h14v-10h-14zM995 195v10h35v-33q-8 -8 -16 -10q-4 0 -9.5 -1t-9.5 -1q-12 0 -20 4q-6 4 -10 7t-7 9q-2 6 -4 11.5t-2 11.5q0 8 2 12t4 10q4 12 15 17q4 2 10 4t12 2q10 0 17 -4q8 -2 10 -8q6 -6 8 -13l-10 -2q0 2 -6 8 q0 4 -8 7h-11h-12q-6 -2 -10 -7q0 -2 -6 -8q0 -4 -1 -8t-1 -8q0 -14 4 -19q8 -12 10 -14q6 -2 16 -2q8 0 15 2q4 4 6 4t4 2v17h-25zM870 162v86h37q6 0 10.5 -2t8.5 -2q6 -2 8 -8q4 -4 4 -13q0 -10 -6 -16q-2 -2 -7 -3t-12 -5q4 0 5.5 -1t3.5 -1q2 -4 8 -15l16 -20h-14 l-12 16q-4 4 -5.5 7t-3.5 5q0 4 -2 4.5t-4 2.5h-2q-2 0 -2 1t-2 1h-4h-14v-37h-11zM664 162v86h12v-78h41v-8h-53zM1286 190l10 -2q-4 -16 -12 -20q-8 -8 -22 -8q-12 0 -21 4q-6 4 -8 8t-6 8q-4 16 -4 25q0 8 4 24q10 10 14 13q6 2 10 4t11 2q6 0 12 -2t10 -4q4 -4 7 -8.5 t5 -10.5l-12 -2q0 8 -8 12q-4 2 -14 3q-12 0 -17 -3q-4 -2 -5 -5t-5 -7q0 -4 -1 -8t-1 -8q0 -12 6 -19q0 -4 2 -7t4 -7q6 -2 17 -2q10 0 16 6t8 14zM1403 162v86h16l21 -62q0 -4 2 -7t2 -7q0 2 4 14l18 62h17v-86h-10v69l-25 -69h-10l-25 71v-71h-10zM213 319l16 -6 q-4 -18 -18 -30q-16 -12 -35 -13q-18 0 -35 9q-16 12 -18 24q-8 14 -8 35q0 23 8 37q6 14 20 20q14 8 33 8q23 0 31 -10q14 -4 20 -26l-16 -2q-8 16 -14 18q-6 8 -21 8q-16 0 -24 -8q-12 -8 -17 -18q-2 -8 -2 -27q0 -18 6 -27q4 -14 13 -18q10 -8 22 -8q16 0 27 10q4 4 7 10 t5 14zM246 336q0 16 4 28.5t14 20.5q8 10 19.5 14t23.5 4q18 0 33 -8q12 -6 22 -22q8 -20 9 -35q0 -10 -2 -18.5t-7 -16.5q-10 -16 -24 -24q-16 -8 -31 -9q-10 0 -17 2t-16 7q-14 8 -20 24q-8 15 -8 33zM264 336q0 -25 10 -39q14 -12 33 -12q20 0 31 16q14 14 14 37 q0 8 -2 14t-4 13q-4 14 -16 18q-6 8 -23 8q-16 0 -31 -14q-12 -10 -12 -41zM391 274v127h25l30 -90q6 -12 7 -18q4 4 8 20l33 88h20v-127h-16v107l-37 -107h-17l-36 109v-109h-17zM543 274v127h49h18q10 0 17 -6q2 -2 10 -12q2 -4 3 -8t1 -10q0 -12 -10 -27q-10 -10 -39 -10 h-33v-54h-16zM559 340h35q18 0 20 8q8 2 9 17q0 10 -2 12q-8 8 -15 8q-2 4 -14 4h-33v-49zM664 274v127h16v-114h63v-13h-79zM764 274v127h94v-12h-78v-41h72v-16h-72v-45h80v-13h-96zM915 274v115h-43v12h105v-12h-43v-115h-19zM995 274v127h95v-12h-78v-41h71v-16h-71v-45 h80v-13h-97zM1161 313l17 2q0 -10 4 -14q4 -8 14 -12q4 -2 18 -2h9.5t9.5 2q6 0 10 8q2 4 2 12q0 6 -2 10q-2 2 -5 3.5t-7 5.5q-2 0 -23 4q-10 4 -16 5t-10 3q-8 4 -13 14q-4 2 -5 6.5t-1 8.5q0 12 8 20q2 4 6.5 6t10.5 6q4 2 24 2q14 0 23 -4q6 -4 10 -6t6 -8q8 -6 9 -18 l-17 -2q-4 16 -10 18q-6 6 -21 6q-20 0 -24 -6q-6 -6 -6 -14q0 -6 6 -11l24 -10q10 -2 17.5 -4t11.5 -4q6 -2 9 -5l7 -7q4 -6 5 -19q0 -14 -5 -20q-8 -8 -16 -13l-12 -4t-15 -2q-8 0 -16 2t-12 4q-10 2 -21 17q-4 8 -4 20zM1286 274v127h92v-12h-73v-41h71v-16h-71v-45h77 v-13h-96zM1440 274v115h-41v12h100v-12h-43v-115h-16zM127 428v127h51h19q4 0 16 -4q2 -2 5 -6t5 -8q4 -4 4 -15q0 -18 -12 -30q-6 -10 -37 -11h-31v-53h-20zM147 498h31q18 0 25 4q8 8 8 16q0 4 -2 8t-4 9q-6 6 -10 6q-2 2 -17 2h-31v-45zM248 428v127h92v-12h-74v-41h70 v-15h-70v-43h78v-16h-96zM367 428v127h59q18 0 27 -2q10 -4 14 -10q4 -16 4 -21q0 -14 -8 -22t-29 -13q4 -4 6 -4t4 -2q10 -10 15 -18l22 -35h-20l-19 27q-2 6 -5 10t-5 8q-4 2 -5 5t-3 3q-4 2 -8 2q-2 4 -10 4h-19v-59h-20zM387 500h33q16 0 20 2q6 6 11 8q2 4 2 12t-7 15 q-6 6 -20 6h-39v-43zM494 471h14q0 -4 2 -8l4 -8q2 -2 5 -5.5t7 -3.5q12 -4 21 -4h8t6 2q12 4 14 9q0 2 1.5 5t1.5 5q0 8 -3 10q-6 4 -14 8q-2 2 -7 2t-13 4q-18 2 -27 9q-10 8 -14 12q-2 6 -2 16q0 4 1 9.5t5 9.5q2 8 16 12q4 4 23 4q16 0 24 -4q12 -6 17 -14q8 -12 8 -19 l-17 -4q-4 14 -10 19q-8 8 -22 8q-16 0 -23 -8q-6 -4 -6 -13q0 -8 6 -10q2 -4 23 -8q18 -8 30 -8q4 -4 8.5 -7.5t6.5 -7.5q6 -6 6 -18q0 -10 -6 -19q-4 -6 -7 -9t-8 -7q-16 -4 -26 -4q-14 0 -31 4q-6 4 -10 7t-8 9q-2 6 -3 11.5t-1 13.5zM612 492q0 29 17 49q18 18 45 18 q8 0 15 -2t18 -6q8 -4 12 -10t8 -15q8 -14 8 -34q0 -18 -8 -35q-8 -14 -20 -23q-16 -8 -33 -8q-18 0 -33 10q-18 10 -20 25q-9 11 -9 31zM629 492q0 -25 12 -37t33 -13q20 0 33 13q10 14 10 37q0 8 -1 16t-5 14q-6 10 -13 15q-10 8 -24 8q-10 0 -16.5 -3t-16.5 -10 q-12 -11 -12 -40zM756 428v127h18l68 -98v98h16v-127h-16l-70 100v-100h-16zM872 428l50 127h18l53 -127h-20l-15 41h-53l-16 -41h-17zM907 481h45l-12 35q-4 8 -6 15.5t-4 11.5q0 -6 -2 -12.5t-4 -12.5zM1004 428v127h18v-111h63v-16h-81zM1233 555h16v-72q0 -23 -4 -30 q-4 -12 -14 -19q-10 -8 -31 -8q-20 0 -29 8q-6 2 -10 7t-8 12q-2 4 -2 30v72h14v-72q0 -20 4 -26q4 -8 11 -11q4 -2 8 -3t10 -1q16 0 27 7q8 8 8 34v72zM1272 471h16q0 -4 2 -8l4 -8l5.5 -5.5t7.5 -3.5q12 -4 18 -4q14 0 21 2q4 2 10 9q2 2 2 10t-2 10q-4 2 -5 4t-5 4 t-10.5 2t-14.5 4q-8 2 -15.5 3.5t-9.5 5.5q-10 4 -12 12q-6 6 -6 16q0 8 6 19q2 8 14 12q8 4 25 4h13t12 -4q12 -6 18 -14q2 -4 4 -9.5t2 -9.5l-16 -4q-4 6 -5 11.5t-5 7.5q-6 8 -23 8q-18 0 -20 -8q-8 -2 -9 -13q0 -6 4 -10t25 -8q23 -8 29 -8q6 -4 10 -7.5t6 -7.5 q6 -4 6 -18q0 -12 -6 -19q-2 -6 -6 -9t-10 -7q-12 -4 -23 -4q-10 0 -17 1t-14 3q-4 4 -9 7t-9 9t-6 11.5t-2 13.5zM1399 428v127h92v-12h-74v-41h68v-15h-68v-43h76v-16h-94z" />
<glyph unicode="3" horiz-adv-x="1665" d="M1499 639q0 -43 -41 -43q-39 0 -39 45l8 8l13 -6q4 -14 6 -20.5t12 -6.5q16 0 17 19q0 12 -21 33l-13 13t-14 15q-8 16 -8 25q0 41 39 41t39 -39l-22 -4q-4 20 -17 20q-12 0 -12 -18q0 -16 33 -43q20 -21 20 -39zM1401 735h-27v-139l-10 -8l-14 8v139h-27v23h78v-23z M1169 1235l-186 -170l49 -254l-219 129l-225 -129l53 248l-188 176l254 27l106 233l102 -231zM1305 596h-27l-35 104v-104h-24v141l-7 11l7 10h30l31 -109v109h25v-162zM1198 633q0 -37 -39 -37t-39 37v90q0 39 39 39t39 -39v-90zM1102 735h-43v-47h33v-22h-33v-70h-27v139 l-6 13l6 10h70v-23zM1001 596h-67v162l12 10l12 -10v-137h43v-25zM915 596h-69v139l-6 13l6 10h69v-23h-45v-47h35v-22h-35v-45h45v-25zM825 633q0 -39 -39 -39t-38 39v88q0 41 38 41q39 0 39 -41v-19h-26v21q0 14 -13 14q-14 0 -14 -14v-90q0 -12 14 -12q12 0 13 12v33h-13 l-8 10l8 12h39v-55zM729 596h-27l-12 61h-16v-61h-25v141l-8 11l8 10h37q41 0 41 -37v-25q0 -16 -16 -28zM629 596l-15 -8l-12 8l-6 37h-23l-8 -37l-14 -8l-10 8l26 162h35zM506 758l-33 -92v-70h-22v70l-35 92h26l19 -58l18 58h27zM428 596h-66v162l11 10l14 -10v-137h41 v-25zM346 596h-65v162l10 10l12 -10v-137h43v-25zM256 596l-14 -8l-11 8v162h25v-162zM211 643q0 -47 -37 -47h-47v139l-6 10l6 13h39q41 0 41 -45q0 -25 -19 -31q23 -10 23 -39zM905 954l-59 353h-72l-61 -353l30 -18l27 18l12 80h54l14 -80l29 -18zM1171 723q0 14 -12 14 q-14 0 -14 -14v-90q0 -12 14 -12q12 0 12 12v90zM700 721q0 14 -14 14h-12v-51h12q14 0 14 12v25zM594 657l-10 64l-9 -64h19zM180 713q0 23 -14 22h-12v-43h12q14 1 14 21zM184 643q0 27 -18 27h-12v-49h12q18 -1 18 22zM831 1085h-40l18 140zM807 197h29l-11 24q-2 4 -2 7 t-4 8q0 -6 -4 -15zM455 162v10h14v-10h-14zM1126 162v86h11v-78h43v-8h-54zM1049 162v86h61v-12h-51v-27h47v-10h-47v-29h51v-8h-61zM745 162v35l-32 51h14l16 -27q4 -12 9 -14q2 2 4 6t6 8l16 27h13l-35 -51v-35h-11zM487 162v86h33q4 0 7 -2t5 -2q8 -2 11 -8q4 -4 4 -13 q0 -6 -4 -8q-2 -8 -8 -8q6 -2 12 -8q4 -8 4 -13q0 -4 -1 -6t-1 -4q-2 -8 -8 -8q-2 -4 -4 -4t-5 -2h-12h-33zM254 162l-25 86h13l12 -58q2 -6 2 -10t2 -8q2 10 2 16l16 60h15l12 -45q6 -18 6 -31q2 4 2 8t2 10l15 58h10l-25 -86h-10l-16 63q-2 6 -2 11q-2 -4 -2 -11l-19 -63 h-10zM141 162l-24 86h14l10 -58q2 -6 2 -10t4 -8q2 10 3 16l16 60h12l15 -45q2 -10 3 -16.5t1 -14.5q4 4 4 8t2 10l12 58h12l-24 -86h-10l-17 63q-2 6 -2 11q-4 -4 -4 -11l-18 -63h-11zM498 209h18q8 0 10 4q6 0 6 2q2 2 3 8q0 6 -3 8h-2q-2 0 -2 1t-2 1q-2 2 -12 3h-16v-27 zM362 162l-22 86h12l13 -58q2 -6 2 -10t4 -8q0 8 1 11t1 5l16 60h12l15 -45q2 -10 3 -16.5t1 -14.5q4 4 4 8t2 10l14 58h11l-25 -86h-10l-17 63q-2 6 -2 11q-4 -4 -4 -11l-18 -63h-13zM881 207h24q4 0 7 1t8 1q4 0 4 6q2 2 2 8t-4 10q-2 2 -15 3h-26v-29zM498 170h22 q4 0 6 2h6q2 4 7 6v8q0 4 -4 9q0 4 -5 4h-14h-18v-29zM567 162v86h11v-86h-11zM1319 203q0 -18 6 -25q8 -8 23 -8q14 0 20 8q8 6 8 27q0 10 -2 16q-4 10 -10 12t-16 3q-12 0 -19 -7q-10 -8 -10 -26zM1307 203q0 23 12 33q8 12 29 12q6 0 11 -2t9 -4q6 -2 9 -6.5l7 -10.5 q2 -4 2 -20q0 -18 -4 -25q-6 -10 -14 -16q-8 -4 -20 -4q-6 0 -11.5 1t-11.5 3q-4 4 -7 8t-5 8q-2 6 -4 11.5t-2 11.5zM782 162l33 86h12l35 -86h-12l-10 24h-35l-12 -24h-11zM600 162v86h10v-78h39v-8h-49zM1192 162v10h14v-10h-14zM995 195v10h35v-33q-8 -8 -16 -10 q-4 0 -9.5 -1t-9.5 -1q-12 0 -20 4q-6 4 -10 7t-7 9q-2 6 -4 11.5t-2 11.5q0 8 2 12t4 10q4 12 15 17q4 2 10 4t12 2q10 0 17 -4q8 -2 10 -8q6 -6 8 -13l-10 -2q0 2 -6 8q0 4 -8 7h-11h-12q-6 -2 -10 -7q0 -2 -6 -8q0 -4 -1 -8t-1 -8q0 -14 4 -19q8 -12 10 -14q6 -2 16 -2 q8 0 15 2q4 4 6 4t4 2v17h-25zM870 162v86h37q6 0 10.5 -2t8.5 -2q6 -2 8 -8q4 -4 4 -13q0 -10 -6 -16q-2 -2 -7 -3t-12 -5q4 0 5.5 -1t3.5 -1q2 -4 8 -15l16 -20h-14l-12 16q-4 4 -5.5 7t-3.5 5q0 4 -2 4.5t-4 2.5h-2q-2 0 -2 1t-2 1h-4h-14v-37h-11zM664 162v86h12v-78h41 v-8h-53zM1286 190l10 -2q-4 -16 -12 -20q-8 -8 -22 -8q-12 0 -21 4q-6 4 -8 8t-6 8q-4 16 -4 25q0 8 4 24q10 10 14 13q6 2 10 4t11 2q6 0 12 -2t10 -4q4 -4 7 -8.5t5 -10.5l-12 -2q0 8 -8 12q-4 2 -14 3q-12 0 -17 -3q-4 -2 -5 -5t-5 -7q0 -4 -1 -8t-1 -8q0 -12 6 -19 q0 -4 2 -7t4 -7q6 -2 17 -2q10 0 16 6t8 14zM1403 162v86h16l21 -62q0 -4 2 -7t2 -7q0 2 4 14l18 62h17v-86h-10v69l-25 -69h-10l-25 71v-71h-10zM807 197h29l-11 24q-2 4 -2 7t-4 8q0 -6 -4 -15zM455 162v10h14v-10h-14zM1126 162v86h11v-78h43v-8h-54zM1049 162v86h61v-12 h-51v-27h47v-10h-47v-29h51v-8h-61zM745 162v35l-32 51h14l16 -27q4 -12 9 -14q2 2 4 6t6 8l16 27h13l-35 -51v-35h-11zM487 162v86h33q4 0 7 -2t5 -2q8 -2 11 -8q4 -4 4 -13q0 -6 -4 -8q-2 -8 -8 -8q6 -2 12 -8q4 -8 4 -13q0 -4 -1 -6t-1 -4q-2 -8 -8 -8q-2 -4 -4 -4t-5 -2 h-12h-33zM254 162l-25 86h13l12 -58q2 -6 2 -10t2 -8q2 10 2 16l16 60h15l12 -45q6 -18 6 -31q2 4 2 8t2 10l15 58h10l-25 -86h-10l-16 63q-2 6 -2 11q-2 -4 -2 -11l-19 -63h-10zM141 162l-24 86h14l10 -58q2 -6 2 -10t4 -8q2 10 3 16l16 60h12l15 -45q2 -10 3 -16.5 t1 -14.5q4 4 4 8t2 10l12 58h12l-24 -86h-10l-17 63q-2 6 -2 11q-4 -4 -4 -11l-18 -63h-11zM498 209h18q8 0 10 4q6 0 6 2q2 2 3 8q0 6 -3 8h-2q-2 0 -2 1t-2 1q-2 2 -12 3h-16v-27zM362 162l-22 86h12l13 -58q2 -6 2 -10t4 -8q0 8 1 11t1 5l16 60h12l15 -45q2 -10 3 -16.5 t1 -14.5q4 4 4 8t2 10l14 58h11l-25 -86h-10l-17 63q-2 6 -2 11q-4 -4 -4 -11l-18 -63h-13zM881 207h24q4 0 7 1t8 1q4 0 4 6q2 2 2 8t-4 10q-2 2 -15 3h-26v-29zM498 170h22q4 0 6 2h6q2 4 7 6v8q0 4 -4 9q0 4 -5 4h-14h-18v-29zM567 162v86h11v-86h-11zM1319 203 q0 -18 6 -25q8 -8 23 -8q14 0 20 8q8 6 8 27q0 10 -2 16q-4 10 -10 12t-16 3q-12 0 -19 -7q-10 -8 -10 -26zM1307 203q0 23 12 33q8 12 29 12q6 0 11 -2t9 -4q6 -2 9 -6.5l7 -10.5q2 -4 2 -20q0 -18 -4 -25q-6 -10 -14 -16q-8 -4 -20 -4q-6 0 -11.5 1t-11.5 3q-4 4 -7 8 t-5 8q-2 6 -4 11.5t-2 11.5zM782 162l33 86h12l35 -86h-12l-10 24h-35l-12 -24h-11zM600 162v86h10v-78h39v-8h-49zM1192 162v10h14v-10h-14zM995 195v10h35v-33q-8 -8 -16 -10q-4 0 -9.5 -1t-9.5 -1q-12 0 -20 4q-6 4 -10 7t-7 9q-2 6 -4 11.5t-2 11.5q0 8 2 12t4 10 q4 12 15 17q4 2 10 4t12 2q10 0 17 -4q8 -2 10 -8q6 -6 8 -13l-10 -2q0 2 -6 8q0 4 -8 7h-11h-12q-6 -2 -10 -7q0 -2 -6 -8q0 -4 -1 -8t-1 -8q0 -14 4 -19q8 -12 10 -14q6 -2 16 -2q8 0 15 2q4 4 6 4t4 2v17h-25zM870 162v86h37q6 0 10.5 -2t8.5 -2q6 -2 8 -8q4 -4 4 -13 q0 -10 -6 -16q-2 -2 -7 -3t-12 -5q4 0 5.5 -1t3.5 -1q2 -4 8 -15l16 -20h-14l-12 16q-4 4 -5.5 7t-3.5 5q0 4 -2 4.5t-4 2.5h-2q-2 0 -2 1t-2 1h-4h-14v-37h-11zM664 162v86h12v-78h41v-8h-53zM1286 190l10 -2q-4 -16 -12 -20q-8 -8 -22 -8q-12 0 -21 4q-6 4 -8 8t-6 8 q-4 16 -4 25q0 8 4 24q10 10 14 13q6 2 10 4t11 2q6 0 12 -2t10 -4q4 -4 7 -8.5t5 -10.5l-12 -2q0 8 -8 12q-4 2 -14 3q-12 0 -17 -3q-4 -2 -5 -5t-5 -7q0 -4 -1 -8t-1 -8q0 -12 6 -19q0 -4 2 -7t4 -7q6 -2 17 -2q10 0 16 6t8 14zM1403 162v86h16l21 -62q0 -4 2 -7t2 -7 q0 2 4 14l18 62h17v-86h-10v69l-25 -69h-10l-25 71v-71h-10zM807 197h29l-11 24q-2 4 -2 7t-4 8q0 -6 -4 -15zM455 162v10h14v-10h-14zM1126 162v86h11v-78h43v-8h-54zM1049 162v86h61v-12h-51v-27h47v-10h-47v-29h51v-8h-61zM745 162v35l-32 51h14l16 -27q4 -12 9 -14 q2 2 4 6t6 8l16 27h13l-35 -51v-35h-11zM487 162v86h33q4 0 7 -2t5 -2q8 -2 11 -8q4 -4 4 -13q0 -6 -4 -8q-2 -8 -8 -8q6 -2 12 -8q4 -8 4 -13q0 -4 -1 -6t-1 -4q-2 -8 -8 -8q-2 -4 -4 -4t-5 -2h-12h-33zM254 162l-25 86h13l12 -58q2 -6 2 -10t2 -8q2 10 2 16l16 60h15 l12 -45q6 -18 6 -31q2 4 2 8t2 10l15 58h10l-25 -86h-10l-16 63q-2 6 -2 11q-2 -4 -2 -11l-19 -63h-10zM141 162l-24 86h14l10 -58q2 -6 2 -10t4 -8q2 10 3 16l16 60h12l15 -45q2 -10 3 -16.5t1 -14.5q4 4 4 8t2 10l12 58h12l-24 -86h-10l-17 63q-2 6 -2 11q-4 -4 -4 -11 l-18 -63h-11zM498 209h18q8 0 10 4q6 0 6 2q2 2 3 8q0 6 -3 8h-2q-2 0 -2 1t-2 1q-2 2 -12 3h-16v-27zM362 162l-22 86h12l13 -58q2 -6 2 -10t4 -8q0 8 1 11t1 5l16 60h12l15 -45q2 -10 3 -16.5t1 -14.5q4 4 4 8t2 10l14 58h11l-25 -86h-10l-17 63q-2 6 -2 11q-4 -4 -4 -11 l-18 -63h-13zM881 207h24q4 0 7 1t8 1q4 0 4 6q2 2 2 8t-4 10q-2 2 -15 3h-26v-29zM498 170h22q4 0 6 2h6q2 4 7 6v8q0 4 -4 9q0 4 -5 4h-14h-18v-29zM567 162v86h11v-86h-11zM1319 203q0 -18 6 -25q8 -8 23 -8q14 0 20 8q8 6 8 27q0 10 -2 16q-4 10 -10 12t-16 3 q-12 0 -19 -7q-10 -8 -10 -26zM1307 203q0 23 12 33q8 12 29 12q6 0 11 -2t9 -4q6 -2 9 -6.5l7 -10.5q2 -4 2 -20q0 -18 -4 -25q-6 -10 -14 -16q-8 -4 -20 -4q-6 0 -11.5 1t-11.5 3q-4 4 -7 8t-5 8q-2 6 -4 11.5t-2 11.5zM782 162l33 86h12l35 -86h-12l-10 24h-35l-12 -24 h-11zM600 162v86h10v-78h39v-8h-49zM1192 162v10h14v-10h-14zM995 195v10h35v-33q-8 -8 -16 -10q-4 0 -9.5 -1t-9.5 -1q-12 0 -20 4q-6 4 -10 7t-7 9q-2 6 -4 11.5t-2 11.5q0 8 2 12t4 10q4 12 15 17q4 2 10 4t12 2q10 0 17 -4q8 -2 10 -8q6 -6 8 -13l-10 -2q0 2 -6 8 q0 4 -8 7h-11h-12q-6 -2 -10 -7q0 -2 -6 -8q0 -4 -1 -8t-1 -8q0 -14 4 -19q8 -12 10 -14q6 -2 16 -2q8 0 15 2q4 4 6 4t4 2v17h-25zM870 162v86h37q6 0 10.5 -2t8.5 -2q6 -2 8 -8q4 -4 4 -13q0 -10 -6 -16q-2 -2 -7 -3t-12 -5q4 0 5.5 -1t3.5 -1q2 -4 8 -15l16 -20h-14 l-12 16q-4 4 -5.5 7t-3.5 5q0 4 -2 4.5t-4 2.5h-2q-2 0 -2 1t-2 1h-4h-14v-37h-11zM664 162v86h12v-78h41v-8h-53zM1286 190l10 -2q-4 -16 -12 -20q-8 -8 -22 -8q-12 0 -21 4q-6 4 -8 8t-6 8q-4 16 -4 25q0 8 4 24q10 10 14 13q6 2 10 4t11 2q6 0 12 -2t10 -4q4 -4 7 -8.5 t5 -10.5l-12 -2q0 8 -8 12q-4 2 -14 3q-12 0 -17 -3q-4 -2 -5 -5t-5 -7q0 -4 -1 -8t-1 -8q0 -12 6 -19q0 -4 2 -7t4 -7q6 -2 17 -2q10 0 16 6t8 14zM1403 162v86h16l21 -62q0 -4 2 -7t2 -7q0 2 4 14l18 62h17v-86h-10v69l-25 -69h-10l-25 71v-71h-10zM213 319l16 -6 q-4 -18 -18 -30q-16 -12 -35 -13q-18 0 -35 9q-16 12 -18 24q-8 14 -8 35q0 23 8 37q6 14 20 20q14 8 33 8q23 0 31 -10q14 -4 20 -26l-16 -2q-8 16 -14 18q-6 8 -21 8q-16 0 -24 -8q-12 -8 -17 -18q-2 -8 -2 -27q0 -18 6 -27q4 -14 13 -18q10 -8 22 -8q16 0 27 10q4 4 7 10 t5 14zM246 336q0 16 4 28.5t14 20.5q8 10 19.5 14t23.5 4q18 0 33 -8q12 -6 22 -22q8 -20 9 -35q0 -10 -2 -18.5t-7 -16.5q-10 -16 -24 -24q-16 -8 -31 -9q-10 0 -17 2t-16 7q-14 8 -20 24q-8 15 -8 33zM264 336q0 -25 10 -39q14 -12 33 -12q20 0 31 16q14 14 14 37 q0 8 -2 14t-4 13q-4 14 -16 18q-6 8 -23 8q-16 0 -31 -14q-12 -10 -12 -41zM391 274v127h25l30 -90q6 -12 7 -18q4 4 8 20l33 88h20v-127h-16v107l-37 -107h-17l-36 109v-109h-17zM543 274v127h49h18q10 0 17 -6q2 -2 10 -12q2 -4 3 -8t1 -10q0 -12 -10 -27q-10 -10 -39 -10 h-33v-54h-16zM559 340h35q18 0 20 8q8 2 9 17q0 10 -2 12q-8 8 -15 8q-2 4 -14 4h-33v-49zM664 274v127h16v-114h63v-13h-79zM764 274v127h94v-12h-78v-41h72v-16h-72v-45h80v-13h-96zM915 274v115h-43v12h105v-12h-43v-115h-19zM995 274v127h95v-12h-78v-41h71v-16h-71v-45 h80v-13h-97zM1161 313l17 2q0 -10 4 -14q4 -8 14 -12q4 -2 18 -2h9.5t9.5 2q6 0 10 8q2 4 2 12q0 6 -2 10q-2 2 -5 3.5t-7 5.5q-2 0 -23 4q-10 4 -16 5t-10 3q-8 4 -13 14q-4 2 -5 6.5t-1 8.5q0 12 8 20q2 4 6.5 6t10.5 6q4 2 24 2q14 0 23 -4q6 -4 10 -6t6 -8q8 -6 9 -18 l-17 -2q-4 16 -10 18q-6 6 -21 6q-20 0 -24 -6q-6 -6 -6 -14q0 -6 6 -11l24 -10q10 -2 17.5 -4t11.5 -4q6 -2 9 -5l7 -7q4 -6 5 -19q0 -14 -5 -20q-8 -8 -16 -13l-12 -4t-15 -2q-8 0 -16 2t-12 4q-10 2 -21 17q-4 8 -4 20zM1286 274v127h92v-12h-73v-41h71v-16h-71v-45h77 v-13h-96zM1440 274v115h-41v12h100v-12h-43v-115h-16zM127 428v127h51h19q4 0 16 -4q2 -2 5 -6t5 -8q4 -4 4 -15q0 -18 -12 -30q-6 -10 -37 -11h-31v-53h-20zM147 498h31q18 0 25 4q8 8 8 16q0 4 -2 8t-4 9q-6 6 -10 6q-2 2 -17 2h-31v-45zM248 428v127h92v-12h-74v-41h70 v-15h-70v-43h78v-16h-96zM367 428v127h59q18 0 27 -2q10 -4 14 -10q4 -16 4 -21q0 -14 -8 -22t-29 -13q4 -4 6 -4t4 -2q10 -10 15 -18l22 -35h-20l-19 27q-2 6 -5 10t-5 8q-4 2 -5 5t-3 3q-4 2 -8 2q-2 4 -10 4h-19v-59h-20zM387 500h33q16 0 20 2q6 6 11 8q2 4 2 12t-7 15 q-6 6 -20 6h-39v-43zM494 471h14q0 -4 2 -8l4 -8q2 -2 5 -5.5t7 -3.5q12 -4 21 -4h8t6 2q12 4 14 9q0 2 1.5 5t1.5 5q0 8 -3 10q-6 4 -14 8q-2 2 -7 2t-13 4q-18 2 -27 9q-10 8 -14 12q-2 6 -2 16q0 4 1 9.5t5 9.5q2 8 16 12q4 4 23 4q16 0 24 -4q12 -6 17 -14q8 -12 8 -19 l-17 -4q-4 14 -10 19q-8 8 -22 8q-16 0 -23 -8q-6 -4 -6 -13q0 -8 6 -10q2 -4 23 -8q18 -8 30 -8q4 -4 8.5 -7.5t6.5 -7.5q6 -6 6 -18q0 -10 -6 -19q-4 -6 -7 -9t-8 -7q-16 -4 -26 -4q-14 0 -31 4q-6 4 -10 7t-8 9q-2 6 -3 11.5t-1 13.5zM612 492q0 29 17 49q18 18 45 18 q8 0 15 -2t18 -6q8 -4 12 -10t8 -15q8 -14 8 -34q0 -18 -8 -35q-8 -14 -20 -23q-16 -8 -33 -8q-18 0 -33 10q-18 10 -20 25q-9 11 -9 31zM629 492q0 -25 12 -37t33 -13q20 0 33 13q10 14 10 37q0 8 -1 16t-5 14q-6 10 -13 15q-10 8 -24 8q-10 0 -16.5 -3t-16.5 -10 q-12 -11 -12 -40zM756 428v127h18l68 -98v98h16v-127h-16l-70 100v-100h-16zM872 428l50 127h18l53 -127h-20l-15 41h-53l-16 -41h-17zM907 481h45l-12 35q-4 8 -6 15.5t-4 11.5q0 -6 -2 -12.5t-4 -12.5zM1004 428v127h18v-111h63v-16h-81zM1233 555h16v-72q0 -23 -4 -30 q-4 -12 -14 -19q-10 -8 -31 -8q-20 0 -29 8q-6 2 -10 7t-8 12q-2 4 -2 30v72h14v-72q0 -20 4 -26q4 -8 11 -11q4 -2 8 -3t10 -1q16 0 27 7q8 8 8 34v72zM1272 471h16q0 -4 2 -8l4 -8l5.5 -5.5t7.5 -3.5q12 -4 18 -4q14 0 21 2q4 2 10 9q2 2 2 10t-2 10q-4 2 -5 4t-5 4 t-10.5 2t-14.5 4q-8 2 -15.5 3.5t-9.5 5.5q-10 4 -12 12q-6 6 -6 16q0 8 6 19q2 8 14 12q8 4 25 4h13t12 -4q12 -6 18 -14q2 -4 4 -9.5t2 -9.5l-16 -4q-4 6 -5 11.5t-5 7.5q-6 8 -23 8q-18 0 -20 -8q-8 -2 -9 -13q0 -6 4 -10t25 -8q23 -8 29 -8q6 -4 10 -7.5t6 -7.5 q6 -4 6 -18q0 -12 -6 -19q-2 -6 -6 -9t-10 -7q-12 -4 -23 -4q-10 0 -17 1t-14 3q-4 4 -9 7t-9 9t-6 11.5t-2 13.5zM1399 428v127h92v-12h-74v-41h68v-15h-68v-43h76v-16h-94z" />
<glyph unicode="4" horiz-adv-x="1665" d="M1499 639q0 -43 -41 -43q-39 0 -39 45l8 8l13 -6q4 -14 6 -20.5t12 -6.5q16 0 17 19q0 12 -21 33l-13 13t-14 15q-8 16 -8 25q0 41 39 41t39 -39l-22 -4q-4 20 -17 20q-12 0 -12 -18q0 -16 33 -43q20 -21 20 -39zM1401 735h-27v-139l-10 -8l-14 8v139h-27v23h78v-23z M1169 1235l-186 -170l49 -254l-219 129l-225 -129l53 248l-188 176l254 27l106 233l102 -231zM1305 596h-27l-35 104v-104h-24v141l-7 11l7 10h30l31 -109v109h25v-162zM1198 633q0 -37 -39 -37t-39 37v90q0 39 39 39t39 -39v-90zM1102 735h-43v-47h33v-22h-33v-70h-27v139 l-6 13l6 10h70v-23zM1001 596h-67v162l12 10l12 -10v-137h43v-25zM915 596h-69v139l-6 13l6 10h69v-23h-45v-47h35v-22h-35v-45h45v-25zM825 633q0 -39 -39 -39t-38 39v88q0 41 38 41q39 0 39 -41v-19h-26v21q0 14 -13 14q-14 0 -14 -14v-90q0 -12 14 -12q12 0 13 12v33h-13 l-8 10l8 12h39v-55zM729 596h-27l-12 61h-16v-61h-25v141l-8 11l8 10h37q41 0 41 -37v-25q0 -16 -16 -28zM629 596l-15 -8l-12 8l-6 37h-23l-8 -37l-14 -8l-10 8l26 162h35zM506 758l-33 -92v-70h-22v70l-35 92h26l19 -58l18 58h27zM428 596h-66v162l11 10l14 -10v-137h41 v-25zM346 596h-65v162l10 10l12 -10v-137h43v-25zM256 596l-14 -8l-11 8v162h25v-162zM211 643q0 -47 -37 -47h-47v139l-6 10l6 13h39q41 0 41 -45q0 -25 -19 -31q23 -10 23 -39zM905 954l-59 353h-72l-61 -353l30 -18l27 18l12 80h54l14 -80l29 -18zM1171 723q0 14 -12 14 q-14 0 -14 -14v-90q0 -12 14 -12q12 0 12 12v90zM700 721q0 14 -14 14h-12v-51h12q14 0 14 12v25zM594 657l-10 64l-9 -64h19zM180 713q0 23 -14 22h-12v-43h12q14 1 14 21zM184 643q0 27 -18 27h-12v-49h12q18 -1 18 22zM831 1085h-40l18 140zM807 197h29l-11 24q-2 4 -2 7 t-4 8q0 -6 -4 -15zM455 162v10h14v-10h-14zM1126 162v86h11v-78h43v-8h-54zM1049 162v86h61v-12h-51v-27h47v-10h-47v-29h51v-8h-61zM745 162v35l-32 51h14l16 -27q4 -12 9 -14q2 2 4 6t6 8l16 27h13l-35 -51v-35h-11zM487 162v86h33q4 0 7 -2t5 -2q8 -2 11 -8q4 -4 4 -13 q0 -6 -4 -8q-2 -8 -8 -8q6 -2 12 -8q4 -8 4 -13q0 -4 -1 -6t-1 -4q-2 -8 -8 -8q-2 -4 -4 -4t-5 -2h-12h-33zM254 162l-25 86h13l12 -58q2 -6 2 -10t2 -8q2 10 2 16l16 60h15l12 -45q6 -18 6 -31q2 4 2 8t2 10l15 58h10l-25 -86h-10l-16 63q-2 6 -2 11q-2 -4 -2 -11l-19 -63 h-10zM141 162l-24 86h14l10 -58q2 -6 2 -10t4 -8q2 10 3 16l16 60h12l15 -45q2 -10 3 -16.5t1 -14.5q4 4 4 8t2 10l12 58h12l-24 -86h-10l-17 63q-2 6 -2 11q-4 -4 -4 -11l-18 -63h-11zM498 209h18q8 0 10 4q6 0 6 2q2 2 3 8q0 6 -3 8h-2q-2 0 -2 1t-2 1q-2 2 -12 3h-16v-27 zM362 162l-22 86h12l13 -58q2 -6 2 -10t4 -8q0 8 1 11t1 5l16 60h12l15 -45q2 -10 3 -16.5t1 -14.5q4 4 4 8t2 10l14 58h11l-25 -86h-10l-17 63q-2 6 -2 11q-4 -4 -4 -11l-18 -63h-13zM881 207h24q4 0 7 1t8 1q4 0 4 6q2 2 2 8t-4 10q-2 2 -15 3h-26v-29zM498 170h22 q4 0 6 2h6q2 4 7 6v8q0 4 -4 9q0 4 -5 4h-14h-18v-29zM567 162v86h11v-86h-11zM1319 203q0 -18 6 -25q8 -8 23 -8q14 0 20 8q8 6 8 27q0 10 -2 16q-4 10 -10 12t-16 3q-12 0 -19 -7q-10 -8 -10 -26zM1307 203q0 23 12 33q8 12 29 12q6 0 11 -2t9 -4q6 -2 9 -6.5l7 -10.5 q2 -4 2 -20q0 -18 -4 -25q-6 -10 -14 -16q-8 -4 -20 -4q-6 0 -11.5 1t-11.5 3q-4 4 -7 8t-5 8q-2 6 -4 11.5t-2 11.5zM782 162l33 86h12l35 -86h-12l-10 24h-35l-12 -24h-11zM600 162v86h10v-78h39v-8h-49zM1192 162v10h14v-10h-14zM995 195v10h35v-33q-8 -8 -16 -10 q-4 0 -9.5 -1t-9.5 -1q-12 0 -20 4q-6 4 -10 7t-7 9q-2 6 -4 11.5t-2 11.5q0 8 2 12t4 10q4 12 15 17q4 2 10 4t12 2q10 0 17 -4q8 -2 10 -8q6 -6 8 -13l-10 -2q0 2 -6 8q0 4 -8 7h-11h-12q-6 -2 -10 -7q0 -2 -6 -8q0 -4 -1 -8t-1 -8q0 -14 4 -19q8 -12 10 -14q6 -2 16 -2 q8 0 15 2q4 4 6 4t4 2v17h-25zM870 162v86h37q6 0 10.5 -2t8.5 -2q6 -2 8 -8q4 -4 4 -13q0 -10 -6 -16q-2 -2 -7 -3t-12 -5q4 0 5.5 -1t3.5 -1q2 -4 8 -15l16 -20h-14l-12 16q-4 4 -5.5 7t-3.5 5q0 4 -2 4.5t-4 2.5h-2q-2 0 -2 1t-2 1h-4h-14v-37h-11zM664 162v86h12v-78h41 v-8h-53zM1286 190l10 -2q-4 -16 -12 -20q-8 -8 -22 -8q-12 0 -21 4q-6 4 -8 8t-6 8q-4 16 -4 25q0 8 4 24q10 10 14 13q6 2 10 4t11 2q6 0 12 -2t10 -4q4 -4 7 -8.5t5 -10.5l-12 -2q0 8 -8 12q-4 2 -14 3q-12 0 -17 -3q-4 -2 -5 -5t-5 -7q0 -4 -1 -8t-1 -8q0 -12 6 -19 q0 -4 2 -7t4 -7q6 -2 17 -2q10 0 16 6t8 14zM1403 162v86h16l21 -62q0 -4 2 -7t2 -7q0 2 4 14l18 62h17v-86h-10v69l-25 -69h-10l-25 71v-71h-10zM807 197h29l-11 24q-2 4 -2 7t-4 8q0 -6 -4 -15zM455 162v10h14v-10h-14zM1126 162v86h11v-78h43v-8h-54zM1049 162v86h61v-12 h-51v-27h47v-10h-47v-29h51v-8h-61zM745 162v35l-32 51h14l16 -27q4 -12 9 -14q2 2 4 6t6 8l16 27h13l-35 -51v-35h-11zM487 162v86h33q4 0 7 -2t5 -2q8 -2 11 -8q4 -4 4 -13q0 -6 -4 -8q-2 -8 -8 -8q6 -2 12 -8q4 -8 4 -13q0 -4 -1 -6t-1 -4q-2 -8 -8 -8q-2 -4 -4 -4t-5 -2 h-12h-33zM254 162l-25 86h13l12 -58q2 -6 2 -10t2 -8q2 10 2 16l16 60h15l12 -45q6 -18 6 -31q2 4 2 8t2 10l15 58h10l-25 -86h-10l-16 63q-2 6 -2 11q-2 -4 -2 -11l-19 -63h-10zM141 162l-24 86h14l10 -58q2 -6 2 -10t4 -8q2 10 3 16l16 60h12l15 -45q2 -10 3 -16.5 t1 -14.5q4 4 4 8t2 10l12 58h12l-24 -86h-10l-17 63q-2 6 -2 11q-4 -4 -4 -11l-18 -63h-11zM498 209h18q8 0 10 4q6 0 6 2q2 2 3 8q0 6 -3 8h-2q-2 0 -2 1t-2 1q-2 2 -12 3h-16v-27zM362 162l-22 86h12l13 -58q2 -6 2 -10t4 -8q0 8 1 11t1 5l16 60h12l15 -45q2 -10 3 -16.5 t1 -14.5q4 4 4 8t2 10l14 58h11l-25 -86h-10l-17 63q-2 6 -2 11q-4 -4 -4 -11l-18 -63h-13zM881 207h24q4 0 7 1t8 1q4 0 4 6q2 2 2 8t-4 10q-2 2 -15 3h-26v-29zM498 170h22q4 0 6 2h6q2 4 7 6v8q0 4 -4 9q0 4 -5 4h-14h-18v-29zM567 162v86h11v-86h-11zM1319 203 q0 -18 6 -25q8 -8 23 -8q14 0 20 8q8 6 8 27q0 10 -2 16q-4 10 -10 12t-16 3q-12 0 -19 -7q-10 -8 -10 -26zM1307 203q0 23 12 33q8 12 29 12q6 0 11 -2t9 -4q6 -2 9 -6.5l7 -10.5q2 -4 2 -20q0 -18 -4 -25q-6 -10 -14 -16q-8 -4 -20 -4q-6 0 -11.5 1t-11.5 3q-4 4 -7 8 t-5 8q-2 6 -4 11.5t-2 11.5zM782 162l33 86h12l35 -86h-12l-10 24h-35l-12 -24h-11zM600 162v86h10v-78h39v-8h-49zM1192 162v10h14v-10h-14zM995 195v10h35v-33q-8 -8 -16 -10q-4 0 -9.5 -1t-9.5 -1q-12 0 -20 4q-6 4 -10 7t-7 9q-2 6 -4 11.5t-2 11.5q0 8 2 12t4 10 q4 12 15 17q4 2 10 4t12 2q10 0 17 -4q8 -2 10 -8q6 -6 8 -13l-10 -2q0 2 -6 8q0 4 -8 7h-11h-12q-6 -2 -10 -7q0 -2 -6 -8q0 -4 -1 -8t-1 -8q0 -14 4 -19q8 -12 10 -14q6 -2 16 -2q8 0 15 2q4 4 6 4t4 2v17h-25zM870 162v86h37q6 0 10.5 -2t8.5 -2q6 -2 8 -8q4 -4 4 -13 q0 -10 -6 -16q-2 -2 -7 -3t-12 -5q4 0 5.5 -1t3.5 -1q2 -4 8 -15l16 -20h-14l-12 16q-4 4 -5.5 7t-3.5 5q0 4 -2 4.5t-4 2.5h-2q-2 0 -2 1t-2 1h-4h-14v-37h-11zM664 162v86h12v-78h41v-8h-53zM1286 190l10 -2q-4 -16 -12 -20q-8 -8 -22 -8q-12 0 -21 4q-6 4 -8 8t-6 8 q-4 16 -4 25q0 8 4 24q10 10 14 13q6 2 10 4t11 2q6 0 12 -2t10 -4q4 -4 7 -8.5t5 -10.5l-12 -2q0 8 -8 12q-4 2 -14 3q-12 0 -17 -3q-4 -2 -5 -5t-5 -7q0 -4 -1 -8t-1 -8q0 -12 6 -19q0 -4 2 -7t4 -7q6 -2 17 -2q10 0 16 6t8 14zM1403 162v86h16l21 -62q0 -4 2 -7t2 -7 q0 2 4 14l18 62h17v-86h-10v69l-25 -69h-10l-25 71v-71h-10zM807 197h29l-11 24q-2 4 -2 7t-4 8q0 -6 -4 -15zM455 162v10h14v-10h-14zM1126 162v86h11v-78h43v-8h-54zM1049 162v86h61v-12h-51v-27h47v-10h-47v-29h51v-8h-61zM745 162v35l-32 51h14l16 -27q4 -12 9 -14 q2 2 4 6t6 8l16 27h13l-35 -51v-35h-11zM487 162v86h33q4 0 7 -2t5 -2q8 -2 11 -8q4 -4 4 -13q0 -6 -4 -8q-2 -8 -8 -8q6 -2 12 -8q4 -8 4 -13q0 -4 -1 -6t-1 -4q-2 -8 -8 -8q-2 -4 -4 -4t-5 -2h-12h-33zM254 162l-25 86h13l12 -58q2 -6 2 -10t2 -8q2 10 2 16l16 60h15 l12 -45q6 -18 6 -31q2 4 2 8t2 10l15 58h10l-25 -86h-10l-16 63q-2 6 -2 11q-2 -4 -2 -11l-19 -63h-10zM141 162l-24 86h14l10 -58q2 -6 2 -10t4 -8q2 10 3 16l16 60h12l15 -45q2 -10 3 -16.5t1 -14.5q4 4 4 8t2 10l12 58h12l-24 -86h-10l-17 63q-2 6 -2 11q-4 -4 -4 -11 l-18 -63h-11zM498 209h18q8 0 10 4q6 0 6 2q2 2 3 8q0 6 -3 8h-2q-2 0 -2 1t-2 1q-2 2 -12 3h-16v-27zM362 162l-22 86h12l13 -58q2 -6 2 -10t4 -8q0 8 1 11t1 5l16 60h12l15 -45q2 -10 3 -16.5t1 -14.5q4 4 4 8t2 10l14 58h11l-25 -86h-10l-17 63q-2 6 -2 11q-4 -4 -4 -11 l-18 -63h-13zM881 207h24q4 0 7 1t8 1q4 0 4 6q2 2 2 8t-4 10q-2 2 -15 3h-26v-29zM498 170h22q4 0 6 2h6q2 4 7 6v8q0 4 -4 9q0 4 -5 4h-14h-18v-29zM567 162v86h11v-86h-11zM1319 203q0 -18 6 -25q8 -8 23 -8q14 0 20 8q8 6 8 27q0 10 -2 16q-4 10 -10 12t-16 3 q-12 0 -19 -7q-10 -8 -10 -26zM1307 203q0 23 12 33q8 12 29 12q6 0 11 -2t9 -4q6 -2 9 -6.5l7 -10.5q2 -4 2 -20q0 -18 -4 -25q-6 -10 -14 -16q-8 -4 -20 -4q-6 0 -11.5 1t-11.5 3q-4 4 -7 8t-5 8q-2 6 -4 11.5t-2 11.5zM782 162l33 86h12l35 -86h-12l-10 24h-35l-12 -24 h-11zM600 162v86h10v-78h39v-8h-49zM1192 162v10h14v-10h-14zM995 195v10h35v-33q-8 -8 -16 -10q-4 0 -9.5 -1t-9.5 -1q-12 0 -20 4q-6 4 -10 7t-7 9q-2 6 -4 11.5t-2 11.5q0 8 2 12t4 10q4 12 15 17q4 2 10 4t12 2q10 0 17 -4q8 -2 10 -8q6 -6 8 -13l-10 -2q0 2 -6 8 q0 4 -8 7h-11h-12q-6 -2 -10 -7q0 -2 -6 -8q0 -4 -1 -8t-1 -8q0 -14 4 -19q8 -12 10 -14q6 -2 16 -2q8 0 15 2q4 4 6 4t4 2v17h-25zM870 162v86h37q6 0 10.5 -2t8.5 -2q6 -2 8 -8q4 -4 4 -13q0 -10 -6 -16q-2 -2 -7 -3t-12 -5q4 0 5.5 -1t3.5 -1q2 -4 8 -15l16 -20h-14 l-12 16q-4 4 -5.5 7t-3.5 5q0 4 -2 4.5t-4 2.5h-2q-2 0 -2 1t-2 1h-4h-14v-37h-11zM664 162v86h12v-78h41v-8h-53zM1286 190l10 -2q-4 -16 -12 -20q-8 -8 -22 -8q-12 0 -21 4q-6 4 -8 8t-6 8q-4 16 -4 25q0 8 4 24q10 10 14 13q6 2 10 4t11 2q6 0 12 -2t10 -4q4 -4 7 -8.5 t5 -10.5l-12 -2q0 8 -8 12q-4 2 -14 3q-12 0 -17 -3q-4 -2 -5 -5t-5 -7q0 -4 -1 -8t-1 -8q0 -12 6 -19q0 -4 2 -7t4 -7q6 -2 17 -2q10 0 16 6t8 14zM1403 162v86h16l21 -62q0 -4 2 -7t2 -7q0 2 4 14l18 62h17v-86h-10v69l-25 -69h-10l-25 71v-71h-10zM213 319l16 -6 q-4 -18 -18 -30q-16 -12 -35 -13q-18 0 -35 9q-16 12 -18 24q-8 14 -8 35q0 23 8 37q6 14 20 20q14 8 33 8q23 0 31 -10q14 -4 20 -26l-16 -2q-8 16 -14 18q-6 8 -21 8q-16 0 -24 -8q-12 -8 -17 -18q-2 -8 -2 -27q0 -18 6 -27q4 -14 13 -18q10 -8 22 -8q16 0 27 10q4 4 7 10 t5 14zM246 336q0 16 4 28.5t14 20.5q8 10 19.5 14t23.5 4q18 0 33 -8q12 -6 22 -22q8 -20 9 -35q0 -10 -2 -18.5t-7 -16.5q-10 -16 -24 -24q-16 -8 -31 -9q-10 0 -17 2t-16 7q-14 8 -20 24q-8 15 -8 33zM264 336q0 -25 10 -39q14 -12 33 -12q20 0 31 16q14 14 14 37 q0 8 -2 14t-4 13q-4 14 -16 18q-6 8 -23 8q-16 0 -31 -14q-12 -10 -12 -41zM391 274v127h25l30 -90q6 -12 7 -18q4 4 8 20l33 88h20v-127h-16v107l-37 -107h-17l-36 109v-109h-17zM543 274v127h49h18q10 0 17 -6q2 -2 10 -12q2 -4 3 -8t1 -10q0 -12 -10 -27q-10 -10 -39 -10 h-33v-54h-16zM559 340h35q18 0 20 8q8 2 9 17q0 10 -2 12q-8 8 -15 8q-2 4 -14 4h-33v-49zM664 274v127h16v-114h63v-13h-79zM764 274v127h94v-12h-78v-41h72v-16h-72v-45h80v-13h-96zM915 274v115h-43v12h105v-12h-43v-115h-19zM995 274v127h95v-12h-78v-41h71v-16h-71v-45 h80v-13h-97zM1161 313l17 2q0 -10 4 -14q4 -8 14 -12q4 -2 18 -2h9.5t9.5 2q6 0 10 8q2 4 2 12q0 6 -2 10q-2 2 -5 3.5t-7 5.5q-2 0 -23 4q-10 4 -16 5t-10 3q-8 4 -13 14q-4 2 -5 6.5t-1 8.5q0 12 8 20q2 4 6.5 6t10.5 6q4 2 24 2q14 0 23 -4q6 -4 10 -6t6 -8q8 -6 9 -18 l-17 -2q-4 16 -10 18q-6 6 -21 6q-20 0 -24 -6q-6 -6 -6 -14q0 -6 6 -11l24 -10q10 -2 17.5 -4t11.5 -4q6 -2 9 -5l7 -7q4 -6 5 -19q0 -14 -5 -20q-8 -8 -16 -13l-12 -4t-15 -2q-8 0 -16 2t-12 4q-10 2 -21 17q-4 8 -4 20zM1286 274v127h92v-12h-73v-41h71v-16h-71v-45h77 v-13h-96zM1440 274v115h-41v12h100v-12h-43v-115h-16zM127 428v127h51h19q4 0 16 -4q2 -2 5 -6t5 -8q4 -4 4 -15q0 -18 -12 -30q-6 -10 -37 -11h-31v-53h-20zM147 498h31q18 0 25 4q8 8 8 16q0 4 -2 8t-4 9q-6 6 -10 6q-2 2 -17 2h-31v-45zM248 428v127h92v-12h-74v-41h70 v-15h-70v-43h78v-16h-96zM367 428v127h59q18 0 27 -2q10 -4 14 -10q4 -16 4 -21q0 -14 -8 -22t-29 -13q4 -4 6 -4t4 -2q10 -10 15 -18l22 -35h-20l-19 27q-2 6 -5 10t-5 8q-4 2 -5 5t-3 3q-4 2 -8 2q-2 4 -10 4h-19v-59h-20zM387 500h33q16 0 20 2q6 6 11 8q2 4 2 12t-7 15 q-6 6 -20 6h-39v-43zM494 471h14q0 -4 2 -8l4 -8q2 -2 5 -5.5t7 -3.5q12 -4 21 -4h8t6 2q12 4 14 9q0 2 1.5 5t1.5 5q0 8 -3 10q-6 4 -14 8q-2 2 -7 2t-13 4q-18 2 -27 9q-10 8 -14 12q-2 6 -2 16q0 4 1 9.5t5 9.5q2 8 16 12q4 4 23 4q16 0 24 -4q12 -6 17 -14q8 -12 8 -19 l-17 -4q-4 14 -10 19q-8 8 -22 8q-16 0 -23 -8q-6 -4 -6 -13q0 -8 6 -10q2 -4 23 -8q18 -8 30 -8q4 -4 8.5 -7.5t6.5 -7.5q6 -6 6 -18q0 -10 -6 -19q-4 -6 -7 -9t-8 -7q-16 -4 -26 -4q-14 0 -31 4q-6 4 -10 7t-8 9q-2 6 -3 11.5t-1 13.5zM612 492q0 29 17 49q18 18 45 18 q8 0 15 -2t18 -6q8 -4 12 -10t8 -15q8 -14 8 -34q0 -18 -8 -35q-8 -14 -20 -23q-16 -8 -33 -8q-18 0 -33 10q-18 10 -20 25q-9 11 -9 31zM629 492q0 -25 12 -37t33 -13q20 0 33 13q10 14 10 37q0 8 -1 16t-5 14q-6 10 -13 15q-10 8 -24 8q-10 0 -16.5 -3t-16.5 -10 q-12 -11 -12 -40zM756 428v127h18l68 -98v98h16v-127h-16l-70 100v-100h-16zM872 428l50 127h18l53 -127h-20l-15 41h-53l-16 -41h-17zM907 481h45l-12 35q-4 8 -6 15.5t-4 11.5q0 -6 -2 -12.5t-4 -12.5zM1004 428v127h18v-111h63v-16h-81zM1233 555h16v-72q0 -23 -4 -30 q-4 -12 -14 -19q-10 -8 -31 -8q-20 0 -29 8q-6 2 -10 7t-8 12q-2 4 -2 30v72h14v-72q0 -20 4 -26q4 -8 11 -11q4 -2 8 -3t10 -1q16 0 27 7q8 8 8 34v72zM1272 471h16q0 -4 2 -8l4 -8l5.5 -5.5t7.5 -3.5q12 -4 18 -4q14 0 21 2q4 2 10 9q2 2 2 10t-2 10q-4 2 -5 4t-5 4 t-10.5 2t-14.5 4q-8 2 -15.5 3.5t-9.5 5.5q-10 4 -12 12q-6 6 -6 16q0 8 6 19q2 8 14 12q8 4 25 4h13t12 -4q12 -6 18 -14q2 -4 4 -9.5t2 -9.5l-16 -4q-4 6 -5 11.5t-5 7.5q-6 8 -23 8q-18 0 -20 -8q-8 -2 -9 -13q0 -6 4 -10t25 -8q23 -8 29 -8q6 -4 10 -7.5t6 -7.5 q6 -4 6 -18q0 -12 -6 -19q-2 -6 -6 -9t-10 -7q-12 -4 -23 -4q-10 0 -17 1t-14 3q-4 4 -9 7t-9 9t-6 11.5t-2 13.5zM1399 428v127h92v-12h-74v-41h68v-15h-68v-43h76v-16h-94z" />
<glyph unicode="5" horiz-adv-x="1665" d="M1499 639q0 -43 -41 -43q-39 0 -39 45l8 8l13 -6q4 -14 6 -20.5t12 -6.5q16 0 17 19q0 12 -21 33l-13 13t-14 15q-8 16 -8 25q0 41 39 41t39 -39l-22 -4q-4 20 -17 20q-12 0 -12 -18q0 -16 33 -43q20 -21 20 -39zM1401 735h-27v-139l-10 -8l-14 8v139h-27v23h78v-23z M1169 1235l-186 -170l49 -254l-219 129l-225 -129l53 248l-188 176l254 27l106 233l102 -231zM1305 596h-27l-35 104v-104h-24v141l-7 11l7 10h30l31 -109v109h25v-162zM1198 633q0 -37 -39 -37t-39 37v90q0 39 39 39t39 -39v-90zM1102 735h-43v-47h33v-22h-33v-70h-27v139 l-6 13l6 10h70v-23zM1001 596h-67v162l12 10l12 -10v-137h43v-25zM915 596h-69v139l-6 13l6 10h69v-23h-45v-47h35v-22h-35v-45h45v-25zM825 633q0 -39 -39 -39t-38 39v88q0 41 38 41q39 0 39 -41v-19h-26v21q0 14 -13 14q-14 0 -14 -14v-90q0 -12 14 -12q12 0 13 12v33h-13 l-8 10l8 12h39v-55zM729 596h-27l-12 61h-16v-61h-25v141l-8 11l8 10h37q41 0 41 -37v-25q0 -16 -16 -28zM629 596l-15 -8l-12 8l-6 37h-23l-8 -37l-14 -8l-10 8l26 162h35zM506 758l-33 -92v-70h-22v70l-35 92h26l19 -58l18 58h27zM428 596h-66v162l11 10l14 -10v-137h41 v-25zM346 596h-65v162l10 10l12 -10v-137h43v-25zM256 596l-14 -8l-11 8v162h25v-162zM211 643q0 -47 -37 -47h-47v139l-6 10l6 13h39q41 0 41 -45q0 -25 -19 -31q23 -10 23 -39zM905 954l-59 353h-72l-61 -353l30 -18l27 18l12 80h54l14 -80l29 -18zM1171 723q0 14 -12 14 q-14 0 -14 -14v-90q0 -12 14 -12q12 0 12 12v90zM700 721q0 14 -14 14h-12v-51h12q14 0 14 12v25zM594 657l-10 64l-9 -64h19zM180 713q0 23 -14 22h-12v-43h12q14 1 14 21zM184 643q0 27 -18 27h-12v-49h12q18 -1 18 22zM831 1085h-40l18 140zM807 197h29l-11 24q-2 4 -2 7 t-4 8q0 -6 -4 -15zM455 162v10h14v-10h-14zM1126 162v86h11v-78h43v-8h-54zM1049 162v86h61v-12h-51v-27h47v-10h-47v-29h51v-8h-61zM745 162v35l-32 51h14l16 -27q4 -12 9 -14q2 2 4 6t6 8l16 27h13l-35 -51v-35h-11zM487 162v86h33q4 0 7 -2t5 -2q8 -2 11 -8q4 -4 4 -13 q0 -6 -4 -8q-2 -8 -8 -8q6 -2 12 -8q4 -8 4 -13q0 -4 -1 -6t-1 -4q-2 -8 -8 -8q-2 -4 -4 -4t-5 -2h-12h-33zM254 162l-25 86h13l12 -58q2 -6 2 -10t2 -8q2 10 2 16l16 60h15l12 -45q6 -18 6 -31q2 4 2 8t2 10l15 58h10l-25 -86h-10l-16 63q-2 6 -2 11q-2 -4 -2 -11l-19 -63 h-10zM141 162l-24 86h14l10 -58q2 -6 2 -10t4 -8q2 10 3 16l16 60h12l15 -45q2 -10 3 -16.5t1 -14.5q4 4 4 8t2 10l12 58h12l-24 -86h-10l-17 63q-2 6 -2 11q-4 -4 -4 -11l-18 -63h-11zM498 209h18q8 0 10 4q6 0 6 2q2 2 3 8q0 6 -3 8h-2q-2 0 -2 1t-2 1q-2 2 -12 3h-16v-27 zM362 162l-22 86h12l13 -58q2 -6 2 -10t4 -8q0 8 1 11t1 5l16 60h12l15 -45q2 -10 3 -16.5t1 -14.5q4 4 4 8t2 10l14 58h11l-25 -86h-10l-17 63q-2 6 -2 11q-4 -4 -4 -11l-18 -63h-13zM881 207h24q4 0 7 1t8 1q4 0 4 6q2 2 2 8t-4 10q-2 2 -15 3h-26v-29zM498 170h22 q4 0 6 2h6q2 4 7 6v8q0 4 -4 9q0 4 -5 4h-14h-18v-29zM567 162v86h11v-86h-11zM1319 203q0 -18 6 -25q8 -8 23 -8q14 0 20 8q8 6 8 27q0 10 -2 16q-4 10 -10 12t-16 3q-12 0 -19 -7q-10 -8 -10 -26zM1307 203q0 23 12 33q8 12 29 12q6 0 11 -2t9 -4q6 -2 9 -6.5l7 -10.5 q2 -4 2 -20q0 -18 -4 -25q-6 -10 -14 -16q-8 -4 -20 -4q-6 0 -11.5 1t-11.5 3q-4 4 -7 8t-5 8q-2 6 -4 11.5t-2 11.5zM782 162l33 86h12l35 -86h-12l-10 24h-35l-12 -24h-11zM600 162v86h10v-78h39v-8h-49zM1192 162v10h14v-10h-14zM995 195v10h35v-33q-8 -8 -16 -10 q-4 0 -9.5 -1t-9.5 -1q-12 0 -20 4q-6 4 -10 7t-7 9q-2 6 -4 11.5t-2 11.5q0 8 2 12t4 10q4 12 15 17q4 2 10 4t12 2q10 0 17 -4q8 -2 10 -8q6 -6 8 -13l-10 -2q0 2 -6 8q0 4 -8 7h-11h-12q-6 -2 -10 -7q0 -2 -6 -8q0 -4 -1 -8t-1 -8q0 -14 4 -19q8 -12 10 -14q6 -2 16 -2 q8 0 15 2q4 4 6 4t4 2v17h-25zM870 162v86h37q6 0 10.5 -2t8.5 -2q6 -2 8 -8q4 -4 4 -13q0 -10 -6 -16q-2 -2 -7 -3t-12 -5q4 0 5.5 -1t3.5 -1q2 -4 8 -15l16 -20h-14l-12 16q-4 4 -5.5 7t-3.5 5q0 4 -2 4.5t-4 2.5h-2q-2 0 -2 1t-2 1h-4h-14v-37h-11zM664 162v86h12v-78h41 v-8h-53zM1286 190l10 -2q-4 -16 -12 -20q-8 -8 -22 -8q-12 0 -21 4q-6 4 -8 8t-6 8q-4 16 -4 25q0 8 4 24q10 10 14 13q6 2 10 4t11 2q6 0 12 -2t10 -4q4 -4 7 -8.5t5 -10.5l-12 -2q0 8 -8 12q-4 2 -14 3q-12 0 -17 -3q-4 -2 -5 -5t-5 -7q0 -4 -1 -8t-1 -8q0 -12 6 -19 q0 -4 2 -7t4 -7q6 -2 17 -2q10 0 16 6t8 14zM1403 162v86h16l21 -62q0 -4 2 -7t2 -7q0 2 4 14l18 62h17v-86h-10v69l-25 -69h-10l-25 71v-71h-10zM807 197h29l-11 24q-2 4 -2 7t-4 8q0 -6 -4 -15zM455 162v10h14v-10h-14zM1126 162v86h11v-78h43v-8h-54zM1049 162v86h61v-12 h-51v-27h47v-10h-47v-29h51v-8h-61zM745 162v35l-32 51h14l16 -27q4 -12 9 -14q2 2 4 6t6 8l16 27h13l-35 -51v-35h-11zM487 162v86h33q4 0 7 -2t5 -2q8 -2 11 -8q4 -4 4 -13q0 -6 -4 -8q-2 -8 -8 -8q6 -2 12 -8q4 -8 4 -13q0 -4 -1 -6t-1 -4q-2 -8 -8 -8q-2 -4 -4 -4t-5 -2 h-12h-33zM254 162l-25 86h13l12 -58q2 -6 2 -10t2 -8q2 10 2 16l16 60h15l12 -45q6 -18 6 -31q2 4 2 8t2 10l15 58h10l-25 -86h-10l-16 63q-2 6 -2 11q-2 -4 -2 -11l-19 -63h-10zM141 162l-24 86h14l10 -58q2 -6 2 -10t4 -8q2 10 3 16l16 60h12l15 -45q2 -10 3 -16.5 t1 -14.5q4 4 4 8t2 10l12 58h12l-24 -86h-10l-17 63q-2 6 -2 11q-4 -4 -4 -11l-18 -63h-11zM498 209h18q8 0 10 4q6 0 6 2q2 2 3 8q0 6 -3 8h-2q-2 0 -2 1t-2 1q-2 2 -12 3h-16v-27zM362 162l-22 86h12l13 -58q2 -6 2 -10t4 -8q0 8 1 11t1 5l16 60h12l15 -45q2 -10 3 -16.5 t1 -14.5q4 4 4 8t2 10l14 58h11l-25 -86h-10l-17 63q-2 6 -2 11q-4 -4 -4 -11l-18 -63h-13zM881 207h24q4 0 7 1t8 1q4 0 4 6q2 2 2 8t-4 10q-2 2 -15 3h-26v-29zM498 170h22q4 0 6 2h6q2 4 7 6v8q0 4 -4 9q0 4 -5 4h-14h-18v-29zM567 162v86h11v-86h-11zM1319 203 q0 -18 6 -25q8 -8 23 -8q14 0 20 8q8 6 8 27q0 10 -2 16q-4 10 -10 12t-16 3q-12 0 -19 -7q-10 -8 -10 -26zM1307 203q0 23 12 33q8 12 29 12q6 0 11 -2t9 -4q6 -2 9 -6.5l7 -10.5q2 -4 2 -20q0 -18 -4 -25q-6 -10 -14 -16q-8 -4 -20 -4q-6 0 -11.5 1t-11.5 3q-4 4 -7 8 t-5 8q-2 6 -4 11.5t-2 11.5zM782 162l33 86h12l35 -86h-12l-10 24h-35l-12 -24h-11zM600 162v86h10v-78h39v-8h-49zM1192 162v10h14v-10h-14zM995 195v10h35v-33q-8 -8 -16 -10q-4 0 -9.5 -1t-9.5 -1q-12 0 -20 4q-6 4 -10 7t-7 9q-2 6 -4 11.5t-2 11.5q0 8 2 12t4 10 q4 12 15 17q4 2 10 4t12 2q10 0 17 -4q8 -2 10 -8q6 -6 8 -13l-10 -2q0 2 -6 8q0 4 -8 7h-11h-12q-6 -2 -10 -7q0 -2 -6 -8q0 -4 -1 -8t-1 -8q0 -14 4 -19q8 -12 10 -14q6 -2 16 -2q8 0 15 2q4 4 6 4t4 2v17h-25zM870 162v86h37q6 0 10.5 -2t8.5 -2q6 -2 8 -8q4 -4 4 -13 q0 -10 -6 -16q-2 -2 -7 -3t-12 -5q4 0 5.5 -1t3.5 -1q2 -4 8 -15l16 -20h-14l-12 16q-4 4 -5.5 7t-3.5 5q0 4 -2 4.5t-4 2.5h-2q-2 0 -2 1t-2 1h-4h-14v-37h-11zM664 162v86h12v-78h41v-8h-53zM1286 190l10 -2q-4 -16 -12 -20q-8 -8 -22 -8q-12 0 -21 4q-6 4 -8 8t-6 8 q-4 16 -4 25q0 8 4 24q10 10 14 13q6 2 10 4t11 2q6 0 12 -2t10 -4q4 -4 7 -8.5t5 -10.5l-12 -2q0 8 -8 12q-4 2 -14 3q-12 0 -17 -3q-4 -2 -5 -5t-5 -7q0 -4 -1 -8t-1 -8q0 -12 6 -19q0 -4 2 -7t4 -7q6 -2 17 -2q10 0 16 6t8 14zM1403 162v86h16l21 -62q0 -4 2 -7t2 -7 q0 2 4 14l18 62h17v-86h-10v69l-25 -69h-10l-25 71v-71h-10zM807 197h29l-11 24q-2 4 -2 7t-4 8q0 -6 -4 -15zM455 162v10h14v-10h-14zM1126 162v86h11v-78h43v-8h-54zM1049 162v86h61v-12h-51v-27h47v-10h-47v-29h51v-8h-61zM745 162v35l-32 51h14l16 -27q4 -12 9 -14 q2 2 4 6t6 8l16 27h13l-35 -51v-35h-11zM487 162v86h33q4 0 7 -2t5 -2q8 -2 11 -8q4 -4 4 -13q0 -6 -4 -8q-2 -8 -8 -8q6 -2 12 -8q4 -8 4 -13q0 -4 -1 -6t-1 -4q-2 -8 -8 -8q-2 -4 -4 -4t-5 -2h-12h-33zM254 162l-25 86h13l12 -58q2 -6 2 -10t2 -8q2 10 2 16l16 60h15 l12 -45q6 -18 6 -31q2 4 2 8t2 10l15 58h10l-25 -86h-10l-16 63q-2 6 -2 11q-2 -4 -2 -11l-19 -63h-10zM141 162l-24 86h14l10 -58q2 -6 2 -10t4 -8q2 10 3 16l16 60h12l15 -45q2 -10 3 -16.5t1 -14.5q4 4 4 8t2 10l12 58h12l-24 -86h-10l-17 63q-2 6 -2 11q-4 -4 -4 -11 l-18 -63h-11zM498 209h18q8 0 10 4q6 0 6 2q2 2 3 8q0 6 -3 8h-2q-2 0 -2 1t-2 1q-2 2 -12 3h-16v-27zM362 162l-22 86h12l13 -58q2 -6 2 -10t4 -8q0 8 1 11t1 5l16 60h12l15 -45q2 -10 3 -16.5t1 -14.5q4 4 4 8t2 10l14 58h11l-25 -86h-10l-17 63q-2 6 -2 11q-4 -4 -4 -11 l-18 -63h-13zM881 207h24q4 0 7 1t8 1q4 0 4 6q2 2 2 8t-4 10q-2 2 -15 3h-26v-29zM498 170h22q4 0 6 2h6q2 4 7 6v8q0 4 -4 9q0 4 -5 4h-14h-18v-29zM567 162v86h11v-86h-11zM1319 203q0 -18 6 -25q8 -8 23 -8q14 0 20 8q8 6 8 27q0 10 -2 16q-4 10 -10 12t-16 3 q-12 0 -19 -7q-10 -8 -10 -26zM1307 203q0 23 12 33q8 12 29 12q6 0 11 -2t9 -4q6 -2 9 -6.5l7 -10.5q2 -4 2 -20q0 -18 -4 -25q-6 -10 -14 -16q-8 -4 -20 -4q-6 0 -11.5 1t-11.5 3q-4 4 -7 8t-5 8q-2 6 -4 11.5t-2 11.5zM782 162l33 86h12l35 -86h-12l-10 24h-35l-12 -24 h-11zM600 162v86h10v-78h39v-8h-49zM1192 162v10h14v-10h-14zM995 195v10h35v-33q-8 -8 -16 -10q-4 0 -9.5 -1t-9.5 -1q-12 0 -20 4q-6 4 -10 7t-7 9q-2 6 -4 11.5t-2 11.5q0 8 2 12t4 10q4 12 15 17q4 2 10 4t12 2q10 0 17 -4q8 -2 10 -8q6 -6 8 -13l-10 -2q0 2 -6 8 q0 4 -8 7h-11h-12q-6 -2 -10 -7q0 -2 -6 -8q0 -4 -1 -8t-1 -8q0 -14 4 -19q8 -12 10 -14q6 -2 16 -2q8 0 15 2q4 4 6 4t4 2v17h-25zM870 162v86h37q6 0 10.5 -2t8.5 -2q6 -2 8 -8q4 -4 4 -13q0 -10 -6 -16q-2 -2 -7 -3t-12 -5q4 0 5.5 -1t3.5 -1q2 -4 8 -15l16 -20h-14 l-12 16q-4 4 -5.5 7t-3.5 5q0 4 -2 4.5t-4 2.5h-2q-2 0 -2 1t-2 1h-4h-14v-37h-11zM664 162v86h12v-78h41v-8h-53zM1286 190l10 -2q-4 -16 -12 -20q-8 -8 -22 -8q-12 0 -21 4q-6 4 -8 8t-6 8q-4 16 -4 25q0 8 4 24q10 10 14 13q6 2 10 4t11 2q6 0 12 -2t10 -4q4 -4 7 -8.5 t5 -10.5l-12 -2q0 8 -8 12q-4 2 -14 3q-12 0 -17 -3q-4 -2 -5 -5t-5 -7q0 -4 -1 -8t-1 -8q0 -12 6 -19q0 -4 2 -7t4 -7q6 -2 17 -2q10 0 16 6t8 14zM1403 162v86h16l21 -62q0 -4 2 -7t2 -7q0 2 4 14l18 62h17v-86h-10v69l-25 -69h-10l-25 71v-71h-10zM213 319l16 -6 q-4 -18 -18 -30q-16 -12 -35 -13q-18 0 -35 9q-16 12 -18 24q-8 14 -8 35q0 23 8 37q6 14 20 20q14 8 33 8q23 0 31 -10q14 -4 20 -26l-16 -2q-8 16 -14 18q-6 8 -21 8q-16 0 -24 -8q-12 -8 -17 -18q-2 -8 -2 -27q0 -18 6 -27q4 -14 13 -18q10 -8 22 -8q16 0 27 10q4 4 7 10 t5 14zM246 336q0 16 4 28.5t14 20.5q8 10 19.5 14t23.5 4q18 0 33 -8q12 -6 22 -22q8 -20 9 -35q0 -10 -2 -18.5t-7 -16.5q-10 -16 -24 -24q-16 -8 -31 -9q-10 0 -17 2t-16 7q-14 8 -20 24q-8 15 -8 33zM264 336q0 -25 10 -39q14 -12 33 -12q20 0 31 16q14 14 14 37 q0 8 -2 14t-4 13q-4 14 -16 18q-6 8 -23 8q-16 0 -31 -14q-12 -10 -12 -41zM391 274v127h25l30 -90q6 -12 7 -18q4 4 8 20l33 88h20v-127h-16v107l-37 -107h-17l-36 109v-109h-17zM543 274v127h49h18q10 0 17 -6q2 -2 10 -12q2 -4 3 -8t1 -10q0 -12 -10 -27q-10 -10 -39 -10 h-33v-54h-16zM559 340h35q18 0 20 8q8 2 9 17q0 10 -2 12q-8 8 -15 8q-2 4 -14 4h-33v-49zM664 274v127h16v-114h63v-13h-79zM764 274v127h94v-12h-78v-41h72v-16h-72v-45h80v-13h-96zM915 274v115h-43v12h105v-12h-43v-115h-19zM995 274v127h95v-12h-78v-41h71v-16h-71v-45 h80v-13h-97zM1161 313l17 2q0 -10 4 -14q4 -8 14 -12q4 -2 18 -2h9.5t9.5 2q6 0 10 8q2 4 2 12q0 6 -2 10q-2 2 -5 3.5t-7 5.5q-2 0 -23 4q-10 4 -16 5t-10 3q-8 4 -13 14q-4 2 -5 6.5t-1 8.5q0 12 8 20q2 4 6.5 6t10.5 6q4 2 24 2q14 0 23 -4q6 -4 10 -6t6 -8q8 -6 9 -18 l-17 -2q-4 16 -10 18q-6 6 -21 6q-20 0 -24 -6q-6 -6 -6 -14q0 -6 6 -11l24 -10q10 -2 17.5 -4t11.5 -4q6 -2 9 -5l7 -7q4 -6 5 -19q0 -14 -5 -20q-8 -8 -16 -13l-12 -4t-15 -2q-8 0 -16 2t-12 4q-10 2 -21 17q-4 8 -4 20zM1286 274v127h92v-12h-73v-41h71v-16h-71v-45h77 v-13h-96zM1440 274v115h-41v12h100v-12h-43v-115h-16zM127 428v127h51h19q4 0 16 -4q2 -2 5 -6t5 -8q4 -4 4 -15q0 -18 -12 -30q-6 -10 -37 -11h-31v-53h-20zM147 498h31q18 0 25 4q8 8 8 16q0 4 -2 8t-4 9q-6 6 -10 6q-2 2 -17 2h-31v-45zM248 428v127h92v-12h-74v-41h70 v-15h-70v-43h78v-16h-96zM367 428v127h59q18 0 27 -2q10 -4 14 -10q4 -16 4 -21q0 -14 -8 -22t-29 -13q4 -4 6 -4t4 -2q10 -10 15 -18l22 -35h-20l-19 27q-2 6 -5 10t-5 8q-4 2 -5 5t-3 3q-4 2 -8 2q-2 4 -10 4h-19v-59h-20zM387 500h33q16 0 20 2q6 6 11 8q2 4 2 12t-7 15 q-6 6 -20 6h-39v-43zM494 471h14q0 -4 2 -8l4 -8q2 -2 5 -5.5t7 -3.5q12 -4 21 -4h8t6 2q12 4 14 9q0 2 1.5 5t1.5 5q0 8 -3 10q-6 4 -14 8q-2 2 -7 2t-13 4q-18 2 -27 9q-10 8 -14 12q-2 6 -2 16q0 4 1 9.5t5 9.5q2 8 16 12q4 4 23 4q16 0 24 -4q12 -6 17 -14q8 -12 8 -19 l-17 -4q-4 14 -10 19q-8 8 -22 8q-16 0 -23 -8q-6 -4 -6 -13q0 -8 6 -10q2 -4 23 -8q18 -8 30 -8q4 -4 8.5 -7.5t6.5 -7.5q6 -6 6 -18q0 -10 -6 -19q-4 -6 -7 -9t-8 -7q-16 -4 -26 -4q-14 0 -31 4q-6 4 -10 7t-8 9q-2 6 -3 11.5t-1 13.5zM612 492q0 29 17 49q18 18 45 18 q8 0 15 -2t18 -6q8 -4 12 -10t8 -15q8 -14 8 -34q0 -18 -8 -35q-8 -14 -20 -23q-16 -8 -33 -8q-18 0 -33 10q-18 10 -20 25q-9 11 -9 31zM629 492q0 -25 12 -37t33 -13q20 0 33 13q10 14 10 37q0 8 -1 16t-5 14q-6 10 -13 15q-10 8 -24 8q-10 0 -16.5 -3t-16.5 -10 q-12 -11 -12 -40zM756 428v127h18l68 -98v98h16v-127h-16l-70 100v-100h-16zM872 428l50 127h18l53 -127h-20l-15 41h-53l-16 -41h-17zM907 481h45l-12 35q-4 8 -6 15.5t-4 11.5q0 -6 -2 -12.5t-4 -12.5zM1004 428v127h18v-111h63v-16h-81zM1233 555h16v-72q0 -23 -4 -30 q-4 -12 -14 -19q-10 -8 -31 -8q-20 0 -29 8q-6 2 -10 7t-8 12q-2 4 -2 30v72h14v-72q0 -20 4 -26q4 -8 11 -11q4 -2 8 -3t10 -1q16 0 27 7q8 8 8 34v72zM1272 471h16q0 -4 2 -8l4 -8l5.5 -5.5t7.5 -3.5q12 -4 18 -4q14 0 21 2q4 2 10 9q2 2 2 10t-2 10q-4 2 -5 4t-5 4 t-10.5 2t-14.5 4q-8 2 -15.5 3.5t-9.5 5.5q-10 4 -12 12q-6 6 -6 16q0 8 6 19q2 8 14 12q8 4 25 4h13t12 -4q12 -6 18 -14q2 -4 4 -9.5t2 -9.5l-16 -4q-4 6 -5 11.5t-5 7.5q-6 8 -23 8q-18 0 -20 -8q-8 -2 -9 -13q0 -6 4 -10t25 -8q23 -8 29 -8q6 -4 10 -7.5t6 -7.5 q6 -4 6 -18q0 -12 -6 -19q-2 -6 -6 -9t-10 -7q-12 -4 -23 -4q-10 0 -17 1t-14 3q-4 4 -9 7t-9 9t-6 11.5t-2 13.5zM1399 428v127h92v-12h-74v-41h68v-15h-68v-43h76v-16h-94z" />
<glyph unicode="6" horiz-adv-x="1665" d="M1499 639q0 -43 -41 -43q-39 0 -39 45l8 8l13 -6q4 -14 6 -20.5t12 -6.5q16 0 17 19q0 12 -21 33l-13 13t-14 15q-8 16 -8 25q0 41 39 41t39 -39l-22 -4q-4 20 -17 20q-12 0 -12 -18q0 -16 33 -43q20 -21 20 -39zM1401 735h-27v-139l-10 -8l-14 8v139h-27v23h78v-23z M1169 1235l-186 -170l49 -254l-219 129l-225 -129l53 248l-188 176l254 27l106 233l102 -231zM1305 596h-27l-35 104v-104h-24v141l-7 11l7 10h30l31 -109v109h25v-162zM1198 633q0 -37 -39 -37t-39 37v90q0 39 39 39t39 -39v-90zM1102 735h-43v-47h33v-22h-33v-70h-27v139 l-6 13l6 10h70v-23zM1001 596h-67v162l12 10l12 -10v-137h43v-25zM915 596h-69v139l-6 13l6 10h69v-23h-45v-47h35v-22h-35v-45h45v-25zM825 633q0 -39 -39 -39t-38 39v88q0 41 38 41q39 0 39 -41v-19h-26v21q0 14 -13 14q-14 0 -14 -14v-90q0 -12 14 -12q12 0 13 12v33h-13 l-8 10l8 12h39v-55zM729 596h-27l-12 61h-16v-61h-25v141l-8 11l8 10h37q41 0 41 -37v-25q0 -16 -16 -28zM629 596l-15 -8l-12 8l-6 37h-23l-8 -37l-14 -8l-10 8l26 162h35zM506 758l-33 -92v-70h-22v70l-35 92h26l19 -58l18 58h27zM428 596h-66v162l11 10l14 -10v-137h41 v-25zM346 596h-65v162l10 10l12 -10v-137h43v-25zM256 596l-14 -8l-11 8v162h25v-162zM211 643q0 -47 -37 -47h-47v139l-6 10l6 13h39q41 0 41 -45q0 -25 -19 -31q23 -10 23 -39zM905 954l-59 353h-72l-61 -353l30 -18l27 18l12 80h54l14 -80l29 -18zM1171 723q0 14 -12 14 q-14 0 -14 -14v-90q0 -12 14 -12q12 0 12 12v90zM700 721q0 14 -14 14h-12v-51h12q14 0 14 12v25zM594 657l-10 64l-9 -64h19zM180 713q0 23 -14 22h-12v-43h12q14 1 14 21zM184 643q0 27 -18 27h-12v-49h12q18 -1 18 22zM831 1085h-40l18 140zM807 197h29l-11 24q-2 4 -2 7 t-4 8q0 -6 -4 -15zM455 162v10h14v-10h-14zM1126 162v86h11v-78h43v-8h-54zM1049 162v86h61v-12h-51v-27h47v-10h-47v-29h51v-8h-61zM745 162v35l-32 51h14l16 -27q4 -12 9 -14q2 2 4 6t6 8l16 27h13l-35 -51v-35h-11zM487 162v86h33q4 0 7 -2t5 -2q8 -2 11 -8q4 -4 4 -13 q0 -6 -4 -8q-2 -8 -8 -8q6 -2 12 -8q4 -8 4 -13q0 -4 -1 -6t-1 -4q-2 -8 -8 -8q-2 -4 -4 -4t-5 -2h-12h-33zM254 162l-25 86h13l12 -58q2 -6 2 -10t2 -8q2 10 2 16l16 60h15l12 -45q6 -18 6 -31q2 4 2 8t2 10l15 58h10l-25 -86h-10l-16 63q-2 6 -2 11q-2 -4 -2 -11l-19 -63 h-10zM141 162l-24 86h14l10 -58q2 -6 2 -10t4 -8q2 10 3 16l16 60h12l15 -45q2 -10 3 -16.5t1 -14.5q4 4 4 8t2 10l12 58h12l-24 -86h-10l-17 63q-2 6 -2 11q-4 -4 -4 -11l-18 -63h-11zM498 209h18q8 0 10 4q6 0 6 2q2 2 3 8q0 6 -3 8h-2q-2 0 -2 1t-2 1q-2 2 -12 3h-16v-27 zM362 162l-22 86h12l13 -58q2 -6 2 -10t4 -8q0 8 1 11t1 5l16 60h12l15 -45q2 -10 3 -16.5t1 -14.5q4 4 4 8t2 10l14 58h11l-25 -86h-10l-17 63q-2 6 -2 11q-4 -4 -4 -11l-18 -63h-13zM881 207h24q4 0 7 1t8 1q4 0 4 6q2 2 2 8t-4 10q-2 2 -15 3h-26v-29zM498 170h22 q4 0 6 2h6q2 4 7 6v8q0 4 -4 9q0 4 -5 4h-14h-18v-29zM567 162v86h11v-86h-11zM1319 203q0 -18 6 -25q8 -8 23 -8q14 0 20 8q8 6 8 27q0 10 -2 16q-4 10 -10 12t-16 3q-12 0 -19 -7q-10 -8 -10 -26zM1307 203q0 23 12 33q8 12 29 12q6 0 11 -2t9 -4q6 -2 9 -6.5l7 -10.5 q2 -4 2 -20q0 -18 -4 -25q-6 -10 -14 -16q-8 -4 -20 -4q-6 0 -11.5 1t-11.5 3q-4 4 -7 8t-5 8q-2 6 -4 11.5t-2 11.5zM782 162l33 86h12l35 -86h-12l-10 24h-35l-12 -24h-11zM600 162v86h10v-78h39v-8h-49zM1192 162v10h14v-10h-14zM995 195v10h35v-33q-8 -8 -16 -10 q-4 0 -9.5 -1t-9.5 -1q-12 0 -20 4q-6 4 -10 7t-7 9q-2 6 -4 11.5t-2 11.5q0 8 2 12t4 10q4 12 15 17q4 2 10 4t12 2q10 0 17 -4q8 -2 10 -8q6 -6 8 -13l-10 -2q0 2 -6 8q0 4 -8 7h-11h-12q-6 -2 -10 -7q0 -2 -6 -8q0 -4 -1 -8t-1 -8q0 -14 4 -19q8 -12 10 -14q6 -2 16 -2 q8 0 15 2q4 4 6 4t4 2v17h-25zM870 162v86h37q6 0 10.5 -2t8.5 -2q6 -2 8 -8q4 -4 4 -13q0 -10 -6 -16q-2 -2 -7 -3t-12 -5q4 0 5.5 -1t3.5 -1q2 -4 8 -15l16 -20h-14l-12 16q-4 4 -5.5 7t-3.5 5q0 4 -2 4.5t-4 2.5h-2q-2 0 -2 1t-2 1h-4h-14v-37h-11zM664 162v86h12v-78h41 v-8h-53zM1286 190l10 -2q-4 -16 -12 -20q-8 -8 -22 -8q-12 0 -21 4q-6 4 -8 8t-6 8q-4 16 -4 25q0 8 4 24q10 10 14 13q6 2 10 4t11 2q6 0 12 -2t10 -4q4 -4 7 -8.5t5 -10.5l-12 -2q0 8 -8 12q-4 2 -14 3q-12 0 -17 -3q-4 -2 -5 -5t-5 -7q0 -4 -1 -8t-1 -8q0 -12 6 -19 q0 -4 2 -7t4 -7q6 -2 17 -2q10 0 16 6t8 14zM1403 162v86h16l21 -62q0 -4 2 -7t2 -7q0 2 4 14l18 62h17v-86h-10v69l-25 -69h-10l-25 71v-71h-10zM807 197h29l-11 24q-2 4 -2 7t-4 8q0 -6 -4 -15zM455 162v10h14v-10h-14zM1126 162v86h11v-78h43v-8h-54zM1049 162v86h61v-12 h-51v-27h47v-10h-47v-29h51v-8h-61zM745 162v35l-32 51h14l16 -27q4 -12 9 -14q2 2 4 6t6 8l16 27h13l-35 -51v-35h-11zM487 162v86h33q4 0 7 -2t5 -2q8 -2 11 -8q4 -4 4 -13q0 -6 -4 -8q-2 -8 -8 -8q6 -2 12 -8q4 -8 4 -13q0 -4 -1 -6t-1 -4q-2 -8 -8 -8q-2 -4 -4 -4t-5 -2 h-12h-33zM254 162l-25 86h13l12 -58q2 -6 2 -10t2 -8q2 10 2 16l16 60h15l12 -45q6 -18 6 -31q2 4 2 8t2 10l15 58h10l-25 -86h-10l-16 63q-2 6 -2 11q-2 -4 -2 -11l-19 -63h-10zM141 162l-24 86h14l10 -58q2 -6 2 -10t4 -8q2 10 3 16l16 60h12l15 -45q2 -10 3 -16.5 t1 -14.5q4 4 4 8t2 10l12 58h12l-24 -86h-10l-17 63q-2 6 -2 11q-4 -4 -4 -11l-18 -63h-11zM498 209h18q8 0 10 4q6 0 6 2q2 2 3 8q0 6 -3 8h-2q-2 0 -2 1t-2 1q-2 2 -12 3h-16v-27zM362 162l-22 86h12l13 -58q2 -6 2 -10t4 -8q0 8 1 11t1 5l16 60h12l15 -45q2 -10 3 -16.5 t1 -14.5q4 4 4 8t2 10l14 58h11l-25 -86h-10l-17 63q-2 6 -2 11q-4 -4 -4 -11l-18 -63h-13zM881 207h24q4 0 7 1t8 1q4 0 4 6q2 2 2 8t-4 10q-2 2 -15 3h-26v-29zM498 170h22q4 0 6 2h6q2 4 7 6v8q0 4 -4 9q0 4 -5 4h-14h-18v-29zM567 162v86h11v-86h-11zM1319 203 q0 -18 6 -25q8 -8 23 -8q14 0 20 8q8 6 8 27q0 10 -2 16q-4 10 -10 12t-16 3q-12 0 -19 -7q-10 -8 -10 -26zM1307 203q0 23 12 33q8 12 29 12q6 0 11 -2t9 -4q6 -2 9 -6.5l7 -10.5q2 -4 2 -20q0 -18 -4 -25q-6 -10 -14 -16q-8 -4 -20 -4q-6 0 -11.5 1t-11.5 3q-4 4 -7 8 t-5 8q-2 6 -4 11.5t-2 11.5zM782 162l33 86h12l35 -86h-12l-10 24h-35l-12 -24h-11zM600 162v86h10v-78h39v-8h-49zM1192 162v10h14v-10h-14zM995 195v10h35v-33q-8 -8 -16 -10q-4 0 -9.5 -1t-9.5 -1q-12 0 -20 4q-6 4 -10 7t-7 9q-2 6 -4 11.5t-2 11.5q0 8 2 12t4 10 q4 12 15 17q4 2 10 4t12 2q10 0 17 -4q8 -2 10 -8q6 -6 8 -13l-10 -2q0 2 -6 8q0 4 -8 7h-11h-12q-6 -2 -10 -7q0 -2 -6 -8q0 -4 -1 -8t-1 -8q0 -14 4 -19q8 -12 10 -14q6 -2 16 -2q8 0 15 2q4 4 6 4t4 2v17h-25zM870 162v86h37q6 0 10.5 -2t8.5 -2q6 -2 8 -8q4 -4 4 -13 q0 -10 -6 -16q-2 -2 -7 -3t-12 -5q4 0 5.5 -1t3.5 -1q2 -4 8 -15l16 -20h-14l-12 16q-4 4 -5.5 7t-3.5 5q0 4 -2 4.5t-4 2.5h-2q-2 0 -2 1t-2 1h-4h-14v-37h-11zM664 162v86h12v-78h41v-8h-53zM1286 190l10 -2q-4 -16 -12 -20q-8 -8 -22 -8q-12 0 -21 4q-6 4 -8 8t-6 8 q-4 16 -4 25q0 8 4 24q10 10 14 13q6 2 10 4t11 2q6 0 12 -2t10 -4q4 -4 7 -8.5t5 -10.5l-12 -2q0 8 -8 12q-4 2 -14 3q-12 0 -17 -3q-4 -2 -5 -5t-5 -7q0 -4 -1 -8t-1 -8q0 -12 6 -19q0 -4 2 -7t4 -7q6 -2 17 -2q10 0 16 6t8 14zM1403 162v86h16l21 -62q0 -4 2 -7t2 -7 q0 2 4 14l18 62h17v-86h-10v69l-25 -69h-10l-25 71v-71h-10zM807 197h29l-11 24q-2 4 -2 7t-4 8q0 -6 -4 -15zM455 162v10h14v-10h-14zM1126 162v86h11v-78h43v-8h-54zM1049 162v86h61v-12h-51v-27h47v-10h-47v-29h51v-8h-61zM745 162v35l-32 51h14l16 -27q4 -12 9 -14 q2 2 4 6t6 8l16 27h13l-35 -51v-35h-11zM487 162v86h33q4 0 7 -2t5 -2q8 -2 11 -8q4 -4 4 -13q0 -6 -4 -8q-2 -8 -8 -8q6 -2 12 -8q4 -8 4 -13q0 -4 -1 -6t-1 -4q-2 -8 -8 -8q-2 -4 -4 -4t-5 -2h-12h-33zM254 162l-25 86h13l12 -58q2 -6 2 -10t2 -8q2 10 2 16l16 60h15 l12 -45q6 -18 6 -31q2 4 2 8t2 10l15 58h10l-25 -86h-10l-16 63q-2 6 -2 11q-2 -4 -2 -11l-19 -63h-10zM141 162l-24 86h14l10 -58q2 -6 2 -10t4 -8q2 10 3 16l16 60h12l15 -45q2 -10 3 -16.5t1 -14.5q4 4 4 8t2 10l12 58h12l-24 -86h-10l-17 63q-2 6 -2 11q-4 -4 -4 -11 l-18 -63h-11zM498 209h18q8 0 10 4q6 0 6 2q2 2 3 8q0 6 -3 8h-2q-2 0 -2 1t-2 1q-2 2 -12 3h-16v-27zM362 162l-22 86h12l13 -58q2 -6 2 -10t4 -8q0 8 1 11t1 5l16 60h12l15 -45q2 -10 3 -16.5t1 -14.5q4 4 4 8t2 10l14 58h11l-25 -86h-10l-17 63q-2 6 -2 11q-4 -4 -4 -11 l-18 -63h-13zM881 207h24q4 0 7 1t8 1q4 0 4 6q2 2 2 8t-4 10q-2 2 -15 3h-26v-29zM498 170h22q4 0 6 2h6q2 4 7 6v8q0 4 -4 9q0 4 -5 4h-14h-18v-29zM567 162v86h11v-86h-11zM1319 203q0 -18 6 -25q8 -8 23 -8q14 0 20 8q8 6 8 27q0 10 -2 16q-4 10 -10 12t-16 3 q-12 0 -19 -7q-10 -8 -10 -26zM1307 203q0 23 12 33q8 12 29 12q6 0 11 -2t9 -4q6 -2 9 -6.5l7 -10.5q2 -4 2 -20q0 -18 -4 -25q-6 -10 -14 -16q-8 -4 -20 -4q-6 0 -11.5 1t-11.5 3q-4 4 -7 8t-5 8q-2 6 -4 11.5t-2 11.5zM782 162l33 86h12l35 -86h-12l-10 24h-35l-12 -24 h-11zM600 162v86h10v-78h39v-8h-49zM1192 162v10h14v-10h-14zM995 195v10h35v-33q-8 -8 -16 -10q-4 0 -9.5 -1t-9.5 -1q-12 0 -20 4q-6 4 -10 7t-7 9q-2 6 -4 11.5t-2 11.5q0 8 2 12t4 10q4 12 15 17q4 2 10 4t12 2q10 0 17 -4q8 -2 10 -8q6 -6 8 -13l-10 -2q0 2 -6 8 q0 4 -8 7h-11h-12q-6 -2 -10 -7q0 -2 -6 -8q0 -4 -1 -8t-1 -8q0 -14 4 -19q8 -12 10 -14q6 -2 16 -2q8 0 15 2q4 4 6 4t4 2v17h-25zM870 162v86h37q6 0 10.5 -2t8.5 -2q6 -2 8 -8q4 -4 4 -13q0 -10 -6 -16q-2 -2 -7 -3t-12 -5q4 0 5.5 -1t3.5 -1q2 -4 8 -15l16 -20h-14 l-12 16q-4 4 -5.5 7t-3.5 5q0 4 -2 4.5t-4 2.5h-2q-2 0 -2 1t-2 1h-4h-14v-37h-11zM664 162v86h12v-78h41v-8h-53zM1286 190l10 -2q-4 -16 -12 -20q-8 -8 -22 -8q-12 0 -21 4q-6 4 -8 8t-6 8q-4 16 -4 25q0 8 4 24q10 10 14 13q6 2 10 4t11 2q6 0 12 -2t10 -4q4 -4 7 -8.5 t5 -10.5l-12 -2q0 8 -8 12q-4 2 -14 3q-12 0 -17 -3q-4 -2 -5 -5t-5 -7q0 -4 -1 -8t-1 -8q0 -12 6 -19q0 -4 2 -7t4 -7q6 -2 17 -2q10 0 16 6t8 14zM1403 162v86h16l21 -62q0 -4 2 -7t2 -7q0 2 4 14l18 62h17v-86h-10v69l-25 -69h-10l-25 71v-71h-10zM213 319l16 -6 q-4 -18 -18 -30q-16 -12 -35 -13q-18 0 -35 9q-16 12 -18 24q-8 14 -8 35q0 23 8 37q6 14 20 20q14 8 33 8q23 0 31 -10q14 -4 20 -26l-16 -2q-8 16 -14 18q-6 8 -21 8q-16 0 -24 -8q-12 -8 -17 -18q-2 -8 -2 -27q0 -18 6 -27q4 -14 13 -18q10 -8 22 -8q16 0 27 10q4 4 7 10 t5 14zM246 336q0 16 4 28.5t14 20.5q8 10 19.5 14t23.5 4q18 0 33 -8q12 -6 22 -22q8 -20 9 -35q0 -10 -2 -18.5t-7 -16.5q-10 -16 -24 -24q-16 -8 -31 -9q-10 0 -17 2t-16 7q-14 8 -20 24q-8 15 -8 33zM264 336q0 -25 10 -39q14 -12 33 -12q20 0 31 16q14 14 14 37 q0 8 -2 14t-4 13q-4 14 -16 18q-6 8 -23 8q-16 0 -31 -14q-12 -10 -12 -41zM391 274v127h25l30 -90q6 -12 7 -18q4 4 8 20l33 88h20v-127h-16v107l-37 -107h-17l-36 109v-109h-17zM543 274v127h49h18q10 0 17 -6q2 -2 10 -12q2 -4 3 -8t1 -10q0 -12 -10 -27q-10 -10 -39 -10 h-33v-54h-16zM559 340h35q18 0 20 8q8 2 9 17q0 10 -2 12q-8 8 -15 8q-2 4 -14 4h-33v-49zM664 274v127h16v-114h63v-13h-79zM764 274v127h94v-12h-78v-41h72v-16h-72v-45h80v-13h-96zM915 274v115h-43v12h105v-12h-43v-115h-19zM995 274v127h95v-12h-78v-41h71v-16h-71v-45 h80v-13h-97zM1161 313l17 2q0 -10 4 -14q4 -8 14 -12q4 -2 18 -2h9.5t9.5 2q6 0 10 8q2 4 2 12q0 6 -2 10q-2 2 -5 3.5t-7 5.5q-2 0 -23 4q-10 4 -16 5t-10 3q-8 4 -13 14q-4 2 -5 6.5t-1 8.5q0 12 8 20q2 4 6.5 6t10.5 6q4 2 24 2q14 0 23 -4q6 -4 10 -6t6 -8q8 -6 9 -18 l-17 -2q-4 16 -10 18q-6 6 -21 6q-20 0 -24 -6q-6 -6 -6 -14q0 -6 6 -11l24 -10q10 -2 17.5 -4t11.5 -4q6 -2 9 -5l7 -7q4 -6 5 -19q0 -14 -5 -20q-8 -8 -16 -13l-12 -4t-15 -2q-8 0 -16 2t-12 4q-10 2 -21 17q-4 8 -4 20zM1286 274v127h92v-12h-73v-41h71v-16h-71v-45h77 v-13h-96zM1440 274v115h-41v12h100v-12h-43v-115h-16zM127 428v127h51h19q4 0 16 -4q2 -2 5 -6t5 -8q4 -4 4 -15q0 -18 -12 -30q-6 -10 -37 -11h-31v-53h-20zM147 498h31q18 0 25 4q8 8 8 16q0 4 -2 8t-4 9q-6 6 -10 6q-2 2 -17 2h-31v-45zM248 428v127h92v-12h-74v-41h70 v-15h-70v-43h78v-16h-96zM367 428v127h59q18 0 27 -2q10 -4 14 -10q4 -16 4 -21q0 -14 -8 -22t-29 -13q4 -4 6 -4t4 -2q10 -10 15 -18l22 -35h-20l-19 27q-2 6 -5 10t-5 8q-4 2 -5 5t-3 3q-4 2 -8 2q-2 4 -10 4h-19v-59h-20zM387 500h33q16 0 20 2q6 6 11 8q2 4 2 12t-7 15 q-6 6 -20 6h-39v-43zM494 471h14q0 -4 2 -8l4 -8q2 -2 5 -5.5t7 -3.5q12 -4 21 -4h8t6 2q12 4 14 9q0 2 1.5 5t1.5 5q0 8 -3 10q-6 4 -14 8q-2 2 -7 2t-13 4q-18 2 -27 9q-10 8 -14 12q-2 6 -2 16q0 4 1 9.5t5 9.5q2 8 16 12q4 4 23 4q16 0 24 -4q12 -6 17 -14q8 -12 8 -19 l-17 -4q-4 14 -10 19q-8 8 -22 8q-16 0 -23 -8q-6 -4 -6 -13q0 -8 6 -10q2 -4 23 -8q18 -8 30 -8q4 -4 8.5 -7.5t6.5 -7.5q6 -6 6 -18q0 -10 -6 -19q-4 -6 -7 -9t-8 -7q-16 -4 -26 -4q-14 0 -31 4q-6 4 -10 7t-8 9q-2 6 -3 11.5t-1 13.5zM612 492q0 29 17 49q18 18 45 18 q8 0 15 -2t18 -6q8 -4 12 -10t8 -15q8 -14 8 -34q0 -18 -8 -35q-8 -14 -20 -23q-16 -8 -33 -8q-18 0 -33 10q-18 10 -20 25q-9 11 -9 31zM629 492q0 -25 12 -37t33 -13q20 0 33 13q10 14 10 37q0 8 -1 16t-5 14q-6 10 -13 15q-10 8 -24 8q-10 0 -16.5 -3t-16.5 -10 q-12 -11 -12 -40zM756 428v127h18l68 -98v98h16v-127h-16l-70 100v-100h-16zM872 428l50 127h18l53 -127h-20l-15 41h-53l-16 -41h-17zM907 481h45l-12 35q-4 8 -6 15.5t-4 11.5q0 -6 -2 -12.5t-4 -12.5zM1004 428v127h18v-111h63v-16h-81zM1233 555h16v-72q0 -23 -4 -30 q-4 -12 -14 -19q-10 -8 -31 -8q-20 0 -29 8q-6 2 -10 7t-8 12q-2 4 -2 30v72h14v-72q0 -20 4 -26q4 -8 11 -11q4 -2 8 -3t10 -1q16 0 27 7q8 8 8 34v72zM1272 471h16q0 -4 2 -8l4 -8l5.5 -5.5t7.5 -3.5q12 -4 18 -4q14 0 21 2q4 2 10 9q2 2 2 10t-2 10q-4 2 -5 4t-5 4 t-10.5 2t-14.5 4q-8 2 -15.5 3.5t-9.5 5.5q-10 4 -12 12q-6 6 -6 16q0 8 6 19q2 8 14 12q8 4 25 4h13t12 -4q12 -6 18 -14q2 -4 4 -9.5t2 -9.5l-16 -4q-4 6 -5 11.5t-5 7.5q-6 8 -23 8q-18 0 -20 -8q-8 -2 -9 -13q0 -6 4 -10t25 -8q23 -8 29 -8q6 -4 10 -7.5t6 -7.5 q6 -4 6 -18q0 -12 -6 -19q-2 -6 -6 -9t-10 -7q-12 -4 -23 -4q-10 0 -17 1t-14 3q-4 4 -9 7t-9 9t-6 11.5t-2 13.5zM1399 428v127h92v-12h-74v-41h68v-15h-68v-43h76v-16h-94z" />
<glyph unicode="7" horiz-adv-x="1665" d="M1499 639q0 -43 -41 -43q-39 0 -39 45l8 8l13 -6q4 -14 6 -20.5t12 -6.5q16 0 17 19q0 12 -21 33l-13 13t-14 15q-8 16 -8 25q0 41 39 41t39 -39l-22 -4q-4 20 -17 20q-12 0 -12 -18q0 -16 33 -43q20 -21 20 -39zM1401 735h-27v-139l-10 -8l-14 8v139h-27v23h78v-23z M1169 1235l-186 -170l49 -254l-219 129l-225 -129l53 248l-188 176l254 27l106 233l102 -231zM1305 596h-27l-35 104v-104h-24v141l-7 11l7 10h30l31 -109v109h25v-162zM1198 633q0 -37 -39 -37t-39 37v90q0 39 39 39t39 -39v-90zM1102 735h-43v-47h33v-22h-33v-70h-27v139 l-6 13l6 10h70v-23zM1001 596h-67v162l12 10l12 -10v-137h43v-25zM915 596h-69v139l-6 13l6 10h69v-23h-45v-47h35v-22h-35v-45h45v-25zM825 633q0 -39 -39 -39t-38 39v88q0 41 38 41q39 0 39 -41v-19h-26v21q0 14 -13 14q-14 0 -14 -14v-90q0 -12 14 -12q12 0 13 12v33h-13 l-8 10l8 12h39v-55zM729 596h-27l-12 61h-16v-61h-25v141l-8 11l8 10h37q41 0 41 -37v-25q0 -16 -16 -28zM629 596l-15 -8l-12 8l-6 37h-23l-8 -37l-14 -8l-10 8l26 162h35zM506 758l-33 -92v-70h-22v70l-35 92h26l19 -58l18 58h27zM428 596h-66v162l11 10l14 -10v-137h41 v-25zM346 596h-65v162l10 10l12 -10v-137h43v-25zM256 596l-14 -8l-11 8v162h25v-162zM211 643q0 -47 -37 -47h-47v139l-6 10l6 13h39q41 0 41 -45q0 -25 -19 -31q23 -10 23 -39zM905 954l-59 353h-72l-61 -353l30 -18l27 18l12 80h54l14 -80l29 -18zM1171 723q0 14 -12 14 q-14 0 -14 -14v-90q0 -12 14 -12q12 0 12 12v90zM700 721q0 14 -14 14h-12v-51h12q14 0 14 12v25zM594 657l-10 64l-9 -64h19zM180 713q0 23 -14 22h-12v-43h12q14 1 14 21zM184 643q0 27 -18 27h-12v-49h12q18 -1 18 22zM831 1085h-40l18 140zM807 197h29l-11 24q-2 4 -2 7 t-4 8q0 -6 -4 -15zM455 162v10h14v-10h-14zM1126 162v86h11v-78h43v-8h-54zM1049 162v86h61v-12h-51v-27h47v-10h-47v-29h51v-8h-61zM745 162v35l-32 51h14l16 -27q4 -12 9 -14q2 2 4 6t6 8l16 27h13l-35 -51v-35h-11zM487 162v86h33q4 0 7 -2t5 -2q8 -2 11 -8q4 -4 4 -13 q0 -6 -4 -8q-2 -8 -8 -8q6 -2 12 -8q4 -8 4 -13q0 -4 -1 -6t-1 -4q-2 -8 -8 -8q-2 -4 -4 -4t-5 -2h-12h-33zM254 162l-25 86h13l12 -58q2 -6 2 -10t2 -8q2 10 2 16l16 60h15l12 -45q6 -18 6 -31q2 4 2 8t2 10l15 58h10l-25 -86h-10l-16 63q-2 6 -2 11q-2 -4 -2 -11l-19 -63 h-10zM141 162l-24 86h14l10 -58q2 -6 2 -10t4 -8q2 10 3 16l16 60h12l15 -45q2 -10 3 -16.5t1 -14.5q4 4 4 8t2 10l12 58h12l-24 -86h-10l-17 63q-2 6 -2 11q-4 -4 -4 -11l-18 -63h-11zM498 209h18q8 0 10 4q6 0 6 2q2 2 3 8q0 6 -3 8h-2q-2 0 -2 1t-2 1q-2 2 -12 3h-16v-27 zM362 162l-22 86h12l13 -58q2 -6 2 -10t4 -8q0 8 1 11t1 5l16 60h12l15 -45q2 -10 3 -16.5t1 -14.5q4 4 4 8t2 10l14 58h11l-25 -86h-10l-17 63q-2 6 -2 11q-4 -4 -4 -11l-18 -63h-13zM881 207h24q4 0 7 1t8 1q4 0 4 6q2 2 2 8t-4 10q-2 2 -15 3h-26v-29zM498 170h22 q4 0 6 2h6q2 4 7 6v8q0 4 -4 9q0 4 -5 4h-14h-18v-29zM567 162v86h11v-86h-11zM1319 203q0 -18 6 -25q8 -8 23 -8q14 0 20 8q8 6 8 27q0 10 -2 16q-4 10 -10 12t-16 3q-12 0 -19 -7q-10 -8 -10 -26zM1307 203q0 23 12 33q8 12 29 12q6 0 11 -2t9 -4q6 -2 9 -6.5l7 -10.5 q2 -4 2 -20q0 -18 -4 -25q-6 -10 -14 -16q-8 -4 -20 -4q-6 0 -11.5 1t-11.5 3q-4 4 -7 8t-5 8q-2 6 -4 11.5t-2 11.5zM782 162l33 86h12l35 -86h-12l-10 24h-35l-12 -24h-11zM600 162v86h10v-78h39v-8h-49zM1192 162v10h14v-10h-14zM995 195v10h35v-33q-8 -8 -16 -10 q-4 0 -9.5 -1t-9.5 -1q-12 0 -20 4q-6 4 -10 7t-7 9q-2 6 -4 11.5t-2 11.5q0 8 2 12t4 10q4 12 15 17q4 2 10 4t12 2q10 0 17 -4q8 -2 10 -8q6 -6 8 -13l-10 -2q0 2 -6 8q0 4 -8 7h-11h-12q-6 -2 -10 -7q0 -2 -6 -8q0 -4 -1 -8t-1 -8q0 -14 4 -19q8 -12 10 -14q6 -2 16 -2 q8 0 15 2q4 4 6 4t4 2v17h-25zM870 162v86h37q6 0 10.5 -2t8.5 -2q6 -2 8 -8q4 -4 4 -13q0 -10 -6 -16q-2 -2 -7 -3t-12 -5q4 0 5.5 -1t3.5 -1q2 -4 8 -15l16 -20h-14l-12 16q-4 4 -5.5 7t-3.5 5q0 4 -2 4.5t-4 2.5h-2q-2 0 -2 1t-2 1h-4h-14v-37h-11zM664 162v86h12v-78h41 v-8h-53zM1286 190l10 -2q-4 -16 -12 -20q-8 -8 -22 -8q-12 0 -21 4q-6 4 -8 8t-6 8q-4 16 -4 25q0 8 4 24q10 10 14 13q6 2 10 4t11 2q6 0 12 -2t10 -4q4 -4 7 -8.5t5 -10.5l-12 -2q0 8 -8 12q-4 2 -14 3q-12 0 -17 -3q-4 -2 -5 -5t-5 -7q0 -4 -1 -8t-1 -8q0 -12 6 -19 q0 -4 2 -7t4 -7q6 -2 17 -2q10 0 16 6t8 14zM1403 162v86h16l21 -62q0 -4 2 -7t2 -7q0 2 4 14l18 62h17v-86h-10v69l-25 -69h-10l-25 71v-71h-10zM807 197h29l-11 24q-2 4 -2 7t-4 8q0 -6 -4 -15zM455 162v10h14v-10h-14zM1126 162v86h11v-78h43v-8h-54zM1049 162v86h61v-12 h-51v-27h47v-10h-47v-29h51v-8h-61zM745 162v35l-32 51h14l16 -27q4 -12 9 -14q2 2 4 6t6 8l16 27h13l-35 -51v-35h-11zM487 162v86h33q4 0 7 -2t5 -2q8 -2 11 -8q4 -4 4 -13q0 -6 -4 -8q-2 -8 -8 -8q6 -2 12 -8q4 -8 4 -13q0 -4 -1 -6t-1 -4q-2 -8 -8 -8q-2 -4 -4 -4t-5 -2 h-12h-33zM254 162l-25 86h13l12 -58q2 -6 2 -10t2 -8q2 10 2 16l16 60h15l12 -45q6 -18 6 -31q2 4 2 8t2 10l15 58h10l-25 -86h-10l-16 63q-2 6 -2 11q-2 -4 -2 -11l-19 -63h-10zM141 162l-24 86h14l10 -58q2 -6 2 -10t4 -8q2 10 3 16l16 60h12l15 -45q2 -10 3 -16.5 t1 -14.5q4 4 4 8t2 10l12 58h12l-24 -86h-10l-17 63q-2 6 -2 11q-4 -4 -4 -11l-18 -63h-11zM498 209h18q8 0 10 4q6 0 6 2q2 2 3 8q0 6 -3 8h-2q-2 0 -2 1t-2 1q-2 2 -12 3h-16v-27zM362 162l-22 86h12l13 -58q2 -6 2 -10t4 -8q0 8 1 11t1 5l16 60h12l15 -45q2 -10 3 -16.5 t1 -14.5q4 4 4 8t2 10l14 58h11l-25 -86h-10l-17 63q-2 6 -2 11q-4 -4 -4 -11l-18 -63h-13zM881 207h24q4 0 7 1t8 1q4 0 4 6q2 2 2 8t-4 10q-2 2 -15 3h-26v-29zM498 170h22q4 0 6 2h6q2 4 7 6v8q0 4 -4 9q0 4 -5 4h-14h-18v-29zM567 162v86h11v-86h-11zM1319 203 q0 -18 6 -25q8 -8 23 -8q14 0 20 8q8 6 8 27q0 10 -2 16q-4 10 -10 12t-16 3q-12 0 -19 -7q-10 -8 -10 -26zM1307 203q0 23 12 33q8 12 29 12q6 0 11 -2t9 -4q6 -2 9 -6.5l7 -10.5q2 -4 2 -20q0 -18 -4 -25q-6 -10 -14 -16q-8 -4 -20 -4q-6 0 -11.5 1t-11.5 3q-4 4 -7 8 t-5 8q-2 6 -4 11.5t-2 11.5zM782 162l33 86h12l35 -86h-12l-10 24h-35l-12 -24h-11zM600 162v86h10v-78h39v-8h-49zM1192 162v10h14v-10h-14zM995 195v10h35v-33q-8 -8 -16 -10q-4 0 -9.5 -1t-9.5 -1q-12 0 -20 4q-6 4 -10 7t-7 9q-2 6 -4 11.5t-2 11.5q0 8 2 12t4 10 q4 12 15 17q4 2 10 4t12 2q10 0 17 -4q8 -2 10 -8q6 -6 8 -13l-10 -2q0 2 -6 8q0 4 -8 7h-11h-12q-6 -2 -10 -7q0 -2 -6 -8q0 -4 -1 -8t-1 -8q0 -14 4 -19q8 -12 10 -14q6 -2 16 -2q8 0 15 2q4 4 6 4t4 2v17h-25zM870 162v86h37q6 0 10.5 -2t8.5 -2q6 -2 8 -8q4 -4 4 -13 q0 -10 -6 -16q-2 -2 -7 -3t-12 -5q4 0 5.5 -1t3.5 -1q2 -4 8 -15l16 -20h-14l-12 16q-4 4 -5.5 7t-3.5 5q0 4 -2 4.5t-4 2.5h-2q-2 0 -2 1t-2 1h-4h-14v-37h-11zM664 162v86h12v-78h41v-8h-53zM1286 190l10 -2q-4 -16 -12 -20q-8 -8 -22 -8q-12 0 -21 4q-6 4 -8 8t-6 8 q-4 16 -4 25q0 8 4 24q10 10 14 13q6 2 10 4t11 2q6 0 12 -2t10 -4q4 -4 7 -8.5t5 -10.5l-12 -2q0 8 -8 12q-4 2 -14 3q-12 0 -17 -3q-4 -2 -5 -5t-5 -7q0 -4 -1 -8t-1 -8q0 -12 6 -19q0 -4 2 -7t4 -7q6 -2 17 -2q10 0 16 6t8 14zM1403 162v86h16l21 -62q0 -4 2 -7t2 -7 q0 2 4 14l18 62h17v-86h-10v69l-25 -69h-10l-25 71v-71h-10zM807 197h29l-11 24q-2 4 -2 7t-4 8q0 -6 -4 -15zM455 162v10h14v-10h-14zM1126 162v86h11v-78h43v-8h-54zM1049 162v86h61v-12h-51v-27h47v-10h-47v-29h51v-8h-61zM745 162v35l-32 51h14l16 -27q4 -12 9 -14 q2 2 4 6t6 8l16 27h13l-35 -51v-35h-11zM487 162v86h33q4 0 7 -2t5 -2q8 -2 11 -8q4 -4 4 -13q0 -6 -4 -8q-2 -8 -8 -8q6 -2 12 -8q4 -8 4 -13q0 -4 -1 -6t-1 -4q-2 -8 -8 -8q-2 -4 -4 -4t-5 -2h-12h-33zM254 162l-25 86h13l12 -58q2 -6 2 -10t2 -8q2 10 2 16l16 60h15 l12 -45q6 -18 6 -31q2 4 2 8t2 10l15 58h10l-25 -86h-10l-16 63q-2 6 -2 11q-2 -4 -2 -11l-19 -63h-10zM141 162l-24 86h14l10 -58q2 -6 2 -10t4 -8q2 10 3 16l16 60h12l15 -45q2 -10 3 -16.5t1 -14.5q4 4 4 8t2 10l12 58h12l-24 -86h-10l-17 63q-2 6 -2 11q-4 -4 -4 -11 l-18 -63h-11zM498 209h18q8 0 10 4q6 0 6 2q2 2 3 8q0 6 -3 8h-2q-2 0 -2 1t-2 1q-2 2 -12 3h-16v-27zM362 162l-22 86h12l13 -58q2 -6 2 -10t4 -8q0 8 1 11t1 5l16 60h12l15 -45q2 -10 3 -16.5t1 -14.5q4 4 4 8t2 10l14 58h11l-25 -86h-10l-17 63q-2 6 -2 11q-4 -4 -4 -11 l-18 -63h-13zM881 207h24q4 0 7 1t8 1q4 0 4 6q2 2 2 8t-4 10q-2 2 -15 3h-26v-29zM498 170h22q4 0 6 2h6q2 4 7 6v8q0 4 -4 9q0 4 -5 4h-14h-18v-29zM567 162v86h11v-86h-11zM1319 203q0 -18 6 -25q8 -8 23 -8q14 0 20 8q8 6 8 27q0 10 -2 16q-4 10 -10 12t-16 3 q-12 0 -19 -7q-10 -8 -10 -26zM1307 203q0 23 12 33q8 12 29 12q6 0 11 -2t9 -4q6 -2 9 -6.5l7 -10.5q2 -4 2 -20q0 -18 -4 -25q-6 -10 -14 -16q-8 -4 -20 -4q-6 0 -11.5 1t-11.5 3q-4 4 -7 8t-5 8q-2 6 -4 11.5t-2 11.5zM782 162l33 86h12l35 -86h-12l-10 24h-35l-12 -24 h-11zM600 162v86h10v-78h39v-8h-49zM1192 162v10h14v-10h-14zM995 195v10h35v-33q-8 -8 -16 -10q-4 0 -9.5 -1t-9.5 -1q-12 0 -20 4q-6 4 -10 7t-7 9q-2 6 -4 11.5t-2 11.5q0 8 2 12t4 10q4 12 15 17q4 2 10 4t12 2q10 0 17 -4q8 -2 10 -8q6 -6 8 -13l-10 -2q0 2 -6 8 q0 4 -8 7h-11h-12q-6 -2 -10 -7q0 -2 -6 -8q0 -4 -1 -8t-1 -8q0 -14 4 -19q8 -12 10 -14q6 -2 16 -2q8 0 15 2q4 4 6 4t4 2v17h-25zM870 162v86h37q6 0 10.5 -2t8.5 -2q6 -2 8 -8q4 -4 4 -13q0 -10 -6 -16q-2 -2 -7 -3t-12 -5q4 0 5.5 -1t3.5 -1q2 -4 8 -15l16 -20h-14 l-12 16q-4 4 -5.5 7t-3.5 5q0 4 -2 4.5t-4 2.5h-2q-2 0 -2 1t-2 1h-4h-14v-37h-11zM664 162v86h12v-78h41v-8h-53zM1286 190l10 -2q-4 -16 -12 -20q-8 -8 -22 -8q-12 0 -21 4q-6 4 -8 8t-6 8q-4 16 -4 25q0 8 4 24q10 10 14 13q6 2 10 4t11 2q6 0 12 -2t10 -4q4 -4 7 -8.5 t5 -10.5l-12 -2q0 8 -8 12q-4 2 -14 3q-12 0 -17 -3q-4 -2 -5 -5t-5 -7q0 -4 -1 -8t-1 -8q0 -12 6 -19q0 -4 2 -7t4 -7q6 -2 17 -2q10 0 16 6t8 14zM1403 162v86h16l21 -62q0 -4 2 -7t2 -7q0 2 4 14l18 62h17v-86h-10v69l-25 -69h-10l-25 71v-71h-10zM213 319l16 -6 q-4 -18 -18 -30q-16 -12 -35 -13q-18 0 -35 9q-16 12 -18 24q-8 14 -8 35q0 23 8 37q6 14 20 20q14 8 33 8q23 0 31 -10q14 -4 20 -26l-16 -2q-8 16 -14 18q-6 8 -21 8q-16 0 -24 -8q-12 -8 -17 -18q-2 -8 -2 -27q0 -18 6 -27q4 -14 13 -18q10 -8 22 -8q16 0 27 10q4 4 7 10 t5 14zM246 336q0 16 4 28.5t14 20.5q8 10 19.5 14t23.5 4q18 0 33 -8q12 -6 22 -22q8 -20 9 -35q0 -10 -2 -18.5t-7 -16.5q-10 -16 -24 -24q-16 -8 -31 -9q-10 0 -17 2t-16 7q-14 8 -20 24q-8 15 -8 33zM264 336q0 -25 10 -39q14 -12 33 -12q20 0 31 16q14 14 14 37 q0 8 -2 14t-4 13q-4 14 -16 18q-6 8 -23 8q-16 0 -31 -14q-12 -10 -12 -41zM391 274v127h25l30 -90q6 -12 7 -18q4 4 8 20l33 88h20v-127h-16v107l-37 -107h-17l-36 109v-109h-17zM543 274v127h49h18q10 0 17 -6q2 -2 10 -12q2 -4 3 -8t1 -10q0 -12 -10 -27q-10 -10 -39 -10 h-33v-54h-16zM559 340h35q18 0 20 8q8 2 9 17q0 10 -2 12q-8 8 -15 8q-2 4 -14 4h-33v-49zM664 274v127h16v-114h63v-13h-79zM764 274v127h94v-12h-78v-41h72v-16h-72v-45h80v-13h-96zM915 274v115h-43v12h105v-12h-43v-115h-19zM995 274v127h95v-12h-78v-41h71v-16h-71v-45 h80v-13h-97zM1161 313l17 2q0 -10 4 -14q4 -8 14 -12q4 -2 18 -2h9.5t9.5 2q6 0 10 8q2 4 2 12q0 6 -2 10q-2 2 -5 3.5t-7 5.5q-2 0 -23 4q-10 4 -16 5t-10 3q-8 4 -13 14q-4 2 -5 6.5t-1 8.5q0 12 8 20q2 4 6.5 6t10.5 6q4 2 24 2q14 0 23 -4q6 -4 10 -6t6 -8q8 -6 9 -18 l-17 -2q-4 16 -10 18q-6 6 -21 6q-20 0 -24 -6q-6 -6 -6 -14q0 -6 6 -11l24 -10q10 -2 17.5 -4t11.5 -4q6 -2 9 -5l7 -7q4 -6 5 -19q0 -14 -5 -20q-8 -8 -16 -13l-12 -4t-15 -2q-8 0 -16 2t-12 4q-10 2 -21 17q-4 8 -4 20zM1286 274v127h92v-12h-73v-41h71v-16h-71v-45h77 v-13h-96zM1440 274v115h-41v12h100v-12h-43v-115h-16zM127 428v127h51h19q4 0 16 -4q2 -2 5 -6t5 -8q4 -4 4 -15q0 -18 -12 -30q-6 -10 -37 -11h-31v-53h-20zM147 498h31q18 0 25 4q8 8 8 16q0 4 -2 8t-4 9q-6 6 -10 6q-2 2 -17 2h-31v-45zM248 428v127h92v-12h-74v-41h70 v-15h-70v-43h78v-16h-96zM367 428v127h59q18 0 27 -2q10 -4 14 -10q4 -16 4 -21q0 -14 -8 -22t-29 -13q4 -4 6 -4t4 -2q10 -10 15 -18l22 -35h-20l-19 27q-2 6 -5 10t-5 8q-4 2 -5 5t-3 3q-4 2 -8 2q-2 4 -10 4h-19v-59h-20zM387 500h33q16 0 20 2q6 6 11 8q2 4 2 12t-7 15 q-6 6 -20 6h-39v-43zM494 471h14q0 -4 2 -8l4 -8q2 -2 5 -5.5t7 -3.5q12 -4 21 -4h8t6 2q12 4 14 9q0 2 1.5 5t1.5 5q0 8 -3 10q-6 4 -14 8q-2 2 -7 2t-13 4q-18 2 -27 9q-10 8 -14 12q-2 6 -2 16q0 4 1 9.5t5 9.5q2 8 16 12q4 4 23 4q16 0 24 -4q12 -6 17 -14q8 -12 8 -19 l-17 -4q-4 14 -10 19q-8 8 -22 8q-16 0 -23 -8q-6 -4 -6 -13q0 -8 6 -10q2 -4 23 -8q18 -8 30 -8q4 -4 8.5 -7.5t6.5 -7.5q6 -6 6 -18q0 -10 -6 -19q-4 -6 -7 -9t-8 -7q-16 -4 -26 -4q-14 0 -31 4q-6 4 -10 7t-8 9q-2 6 -3 11.5t-1 13.5zM612 492q0 29 17 49q18 18 45 18 q8 0 15 -2t18 -6q8 -4 12 -10t8 -15q8 -14 8 -34q0 -18 -8 -35q-8 -14 -20 -23q-16 -8 -33 -8q-18 0 -33 10q-18 10 -20 25q-9 11 -9 31zM629 492q0 -25 12 -37t33 -13q20 0 33 13q10 14 10 37q0 8 -1 16t-5 14q-6 10 -13 15q-10 8 -24 8q-10 0 -16.5 -3t-16.5 -10 q-12 -11 -12 -40zM756 428v127h18l68 -98v98h16v-127h-16l-70 100v-100h-16zM872 428l50 127h18l53 -127h-20l-15 41h-53l-16 -41h-17zM907 481h45l-12 35q-4 8 -6 15.5t-4 11.5q0 -6 -2 -12.5t-4 -12.5zM1004 428v127h18v-111h63v-16h-81zM1233 555h16v-72q0 -23 -4 -30 q-4 -12 -14 -19q-10 -8 -31 -8q-20 0 -29 8q-6 2 -10 7t-8 12q-2 4 -2 30v72h14v-72q0 -20 4 -26q4 -8 11 -11q4 -2 8 -3t10 -1q16 0 27 7q8 8 8 34v72zM1272 471h16q0 -4 2 -8l4 -8l5.5 -5.5t7.5 -3.5q12 -4 18 -4q14 0 21 2q4 2 10 9q2 2 2 10t-2 10q-4 2 -5 4t-5 4 t-10.5 2t-14.5 4q-8 2 -15.5 3.5t-9.5 5.5q-10 4 -12 12q-6 6 -6 16q0 8 6 19q2 8 14 12q8 4 25 4h13t12 -4q12 -6 18 -14q2 -4 4 -9.5t2 -9.5l-16 -4q-4 6 -5 11.5t-5 7.5q-6 8 -23 8q-18 0 -20 -8q-8 -2 -9 -13q0 -6 4 -10t25 -8q23 -8 29 -8q6 -4 10 -7.5t6 -7.5 q6 -4 6 -18q0 -12 -6 -19q-2 -6 -6 -9t-10 -7q-12 -4 -23 -4q-10 0 -17 1t-14 3q-4 4 -9 7t-9 9t-6 11.5t-2 13.5zM1399 428v127h92v-12h-74v-41h68v-15h-68v-43h76v-16h-94z" />
<glyph unicode="8" horiz-adv-x="1665" d="M1499 639q0 -43 -41 -43q-39 0 -39 45l8 8l13 -6q4 -14 6 -20.5t12 -6.5q16 0 17 19q0 12 -21 33l-13 13t-14 15q-8 16 -8 25q0 41 39 41t39 -39l-22 -4q-4 20 -17 20q-12 0 -12 -18q0 -16 33 -43q20 -21 20 -39zM1401 735h-27v-139l-10 -8l-14 8v139h-27v23h78v-23z M1169 1235l-186 -170l49 -254l-219 129l-225 -129l53 248l-188 176l254 27l106 233l102 -231zM1305 596h-27l-35 104v-104h-24v141l-7 11l7 10h30l31 -109v109h25v-162zM1198 633q0 -37 -39 -37t-39 37v90q0 39 39 39t39 -39v-90zM1102 735h-43v-47h33v-22h-33v-70h-27v139 l-6 13l6 10h70v-23zM1001 596h-67v162l12 10l12 -10v-137h43v-25zM915 596h-69v139l-6 13l6 10h69v-23h-45v-47h35v-22h-35v-45h45v-25zM825 633q0 -39 -39 -39t-38 39v88q0 41 38 41q39 0 39 -41v-19h-26v21q0 14 -13 14q-14 0 -14 -14v-90q0 -12 14 -12q12 0 13 12v33h-13 l-8 10l8 12h39v-55zM729 596h-27l-12 61h-16v-61h-25v141l-8 11l8 10h37q41 0 41 -37v-25q0 -16 -16 -28zM629 596l-15 -8l-12 8l-6 37h-23l-8 -37l-14 -8l-10 8l26 162h35zM506 758l-33 -92v-70h-22v70l-35 92h26l19 -58l18 58h27zM428 596h-66v162l11 10l14 -10v-137h41 v-25zM346 596h-65v162l10 10l12 -10v-137h43v-25zM256 596l-14 -8l-11 8v162h25v-162zM211 643q0 -47 -37 -47h-47v139l-6 10l6 13h39q41 0 41 -45q0 -25 -19 -31q23 -10 23 -39zM905 954l-59 353h-72l-61 -353l30 -18l27 18l12 80h54l14 -80l29 -18zM1171 723q0 14 -12 14 q-14 0 -14 -14v-90q0 -12 14 -12q12 0 12 12v90zM700 721q0 14 -14 14h-12v-51h12q14 0 14 12v25zM594 657l-10 64l-9 -64h19zM180 713q0 23 -14 22h-12v-43h12q14 1 14 21zM184 643q0 27 -18 27h-12v-49h12q18 -1 18 22zM831 1085h-40l18 140zM807 197h29l-11 24q-2 4 -2 7 t-4 8q0 -6 -4 -15zM455 162v10h14v-10h-14zM1126 162v86h11v-78h43v-8h-54zM1049 162v86h61v-12h-51v-27h47v-10h-47v-29h51v-8h-61zM745 162v35l-32 51h14l16 -27q4 -12 9 -14q2 2 4 6t6 8l16 27h13l-35 -51v-35h-11zM487 162v86h33q4 0 7 -2t5 -2q8 -2 11 -8q4 -4 4 -13 q0 -6 -4 -8q-2 -8 -8 -8q6 -2 12 -8q4 -8 4 -13q0 -4 -1 -6t-1 -4q-2 -8 -8 -8q-2 -4 -4 -4t-5 -2h-12h-33zM254 162l-25 86h13l12 -58q2 -6 2 -10t2 -8q2 10 2 16l16 60h15l12 -45q6 -18 6 -31q2 4 2 8t2 10l15 58h10l-25 -86h-10l-16 63q-2 6 -2 11q-2 -4 -2 -11l-19 -63 h-10zM141 162l-24 86h14l10 -58q2 -6 2 -10t4 -8q2 10 3 16l16 60h12l15 -45q2 -10 3 -16.5t1 -14.5q4 4 4 8t2 10l12 58h12l-24 -86h-10l-17 63q-2 6 -2 11q-4 -4 -4 -11l-18 -63h-11zM498 209h18q8 0 10 4q6 0 6 2q2 2 3 8q0 6 -3 8h-2q-2 0 -2 1t-2 1q-2 2 -12 3h-16v-27 zM362 162l-22 86h12l13 -58q2 -6 2 -10t4 -8q0 8 1 11t1 5l16 60h12l15 -45q2 -10 3 -16.5t1 -14.5q4 4 4 8t2 10l14 58h11l-25 -86h-10l-17 63q-2 6 -2 11q-4 -4 -4 -11l-18 -63h-13zM881 207h24q4 0 7 1t8 1q4 0 4 6q2 2 2 8t-4 10q-2 2 -15 3h-26v-29zM498 170h22 q4 0 6 2h6q2 4 7 6v8q0 4 -4 9q0 4 -5 4h-14h-18v-29zM567 162v86h11v-86h-11zM1319 203q0 -18 6 -25q8 -8 23 -8q14 0 20 8q8 6 8 27q0 10 -2 16q-4 10 -10 12t-16 3q-12 0 -19 -7q-10 -8 -10 -26zM1307 203q0 23 12 33q8 12 29 12q6 0 11 -2t9 -4q6 -2 9 -6.5l7 -10.5 q2 -4 2 -20q0 -18 -4 -25q-6 -10 -14 -16q-8 -4 -20 -4q-6 0 -11.5 1t-11.5 3q-4 4 -7 8t-5 8q-2 6 -4 11.5t-2 11.5zM782 162l33 86h12l35 -86h-12l-10 24h-35l-12 -24h-11zM600 162v86h10v-78h39v-8h-49zM1192 162v10h14v-10h-14zM995 195v10h35v-33q-8 -8 -16 -10 q-4 0 -9.5 -1t-9.5 -1q-12 0 -20 4q-6 4 -10 7t-7 9q-2 6 -4 11.5t-2 11.5q0 8 2 12t4 10q4 12 15 17q4 2 10 4t12 2q10 0 17 -4q8 -2 10 -8q6 -6 8 -13l-10 -2q0 2 -6 8q0 4 -8 7h-11h-12q-6 -2 -10 -7q0 -2 -6 -8q0 -4 -1 -8t-1 -8q0 -14 4 -19q8 -12 10 -14q6 -2 16 -2 q8 0 15 2q4 4 6 4t4 2v17h-25zM870 162v86h37q6 0 10.5 -2t8.5 -2q6 -2 8 -8q4 -4 4 -13q0 -10 -6 -16q-2 -2 -7 -3t-12 -5q4 0 5.5 -1t3.5 -1q2 -4 8 -15l16 -20h-14l-12 16q-4 4 -5.5 7t-3.5 5q0 4 -2 4.5t-4 2.5h-2q-2 0 -2 1t-2 1h-4h-14v-37h-11zM664 162v86h12v-78h41 v-8h-53zM1286 190l10 -2q-4 -16 -12 -20q-8 -8 -22 -8q-12 0 -21 4q-6 4 -8 8t-6 8q-4 16 -4 25q0 8 4 24q10 10 14 13q6 2 10 4t11 2q6 0 12 -2t10 -4q4 -4 7 -8.5t5 -10.5l-12 -2q0 8 -8 12q-4 2 -14 3q-12 0 -17 -3q-4 -2 -5 -5t-5 -7q0 -4 -1 -8t-1 -8q0 -12 6 -19 q0 -4 2 -7t4 -7q6 -2 17 -2q10 0 16 6t8 14zM1403 162v86h16l21 -62q0 -4 2 -7t2 -7q0 2 4 14l18 62h17v-86h-10v69l-25 -69h-10l-25 71v-71h-10zM807 197h29l-11 24q-2 4 -2 7t-4 8q0 -6 -4 -15zM455 162v10h14v-10h-14zM1126 162v86h11v-78h43v-8h-54zM1049 162v86h61v-12 h-51v-27h47v-10h-47v-29h51v-8h-61zM745 162v35l-32 51h14l16 -27q4 -12 9 -14q2 2 4 6t6 8l16 27h13l-35 -51v-35h-11zM487 162v86h33q4 0 7 -2t5 -2q8 -2 11 -8q4 -4 4 -13q0 -6 -4 -8q-2 -8 -8 -8q6 -2 12 -8q4 -8 4 -13q0 -4 -1 -6t-1 -4q-2 -8 -8 -8q-2 -4 -4 -4t-5 -2 h-12h-33zM254 162l-25 86h13l12 -58q2 -6 2 -10t2 -8q2 10 2 16l16 60h15l12 -45q6 -18 6 -31q2 4 2 8t2 10l15 58h10l-25 -86h-10l-16 63q-2 6 -2 11q-2 -4 -2 -11l-19 -63h-10zM141 162l-24 86h14l10 -58q2 -6 2 -10t4 -8q2 10 3 16l16 60h12l15 -45q2 -10 3 -16.5 t1 -14.5q4 4 4 8t2 10l12 58h12l-24 -86h-10l-17 63q-2 6 -2 11q-4 -4 -4 -11l-18 -63h-11zM498 209h18q8 0 10 4q6 0 6 2q2 2 3 8q0 6 -3 8h-2q-2 0 -2 1t-2 1q-2 2 -12 3h-16v-27zM362 162l-22 86h12l13 -58q2 -6 2 -10t4 -8q0 8 1 11t1 5l16 60h12l15 -45q2 -10 3 -16.5 t1 -14.5q4 4 4 8t2 10l14 58h11l-25 -86h-10l-17 63q-2 6 -2 11q-4 -4 -4 -11l-18 -63h-13zM881 207h24q4 0 7 1t8 1q4 0 4 6q2 2 2 8t-4 10q-2 2 -15 3h-26v-29zM498 170h22q4 0 6 2h6q2 4 7 6v8q0 4 -4 9q0 4 -5 4h-14h-18v-29zM567 162v86h11v-86h-11zM1319 203 q0 -18 6 -25q8 -8 23 -8q14 0 20 8q8 6 8 27q0 10 -2 16q-4 10 -10 12t-16 3q-12 0 -19 -7q-10 -8 -10 -26zM1307 203q0 23 12 33q8 12 29 12q6 0 11 -2t9 -4q6 -2 9 -6.5l7 -10.5q2 -4 2 -20q0 -18 -4 -25q-6 -10 -14 -16q-8 -4 -20 -4q-6 0 -11.5 1t-11.5 3q-4 4 -7 8 t-5 8q-2 6 -4 11.5t-2 11.5zM782 162l33 86h12l35 -86h-12l-10 24h-35l-12 -24h-11zM600 162v86h10v-78h39v-8h-49zM1192 162v10h14v-10h-14zM995 195v10h35v-33q-8 -8 -16 -10q-4 0 -9.5 -1t-9.5 -1q-12 0 -20 4q-6 4 -10 7t-7 9q-2 6 -4 11.5t-2 11.5q0 8 2 12t4 10 q4 12 15 17q4 2 10 4t12 2q10 0 17 -4q8 -2 10 -8q6 -6 8 -13l-10 -2q0 2 -6 8q0 4 -8 7h-11h-12q-6 -2 -10 -7q0 -2 -6 -8q0 -4 -1 -8t-1 -8q0 -14 4 -19q8 -12 10 -14q6 -2 16 -2q8 0 15 2q4 4 6 4t4 2v17h-25zM870 162v86h37q6 0 10.5 -2t8.5 -2q6 -2 8 -8q4 -4 4 -13 q0 -10 -6 -16q-2 -2 -7 -3t-12 -5q4 0 5.5 -1t3.5 -1q2 -4 8 -15l16 -20h-14l-12 16q-4 4 -5.5 7t-3.5 5q0 4 -2 4.5t-4 2.5h-2q-2 0 -2 1t-2 1h-4h-14v-37h-11zM664 162v86h12v-78h41v-8h-53zM1286 190l10 -2q-4 -16 -12 -20q-8 -8 -22 -8q-12 0 -21 4q-6 4 -8 8t-6 8 q-4 16 -4 25q0 8 4 24q10 10 14 13q6 2 10 4t11 2q6 0 12 -2t10 -4q4 -4 7 -8.5t5 -10.5l-12 -2q0 8 -8 12q-4 2 -14 3q-12 0 -17 -3q-4 -2 -5 -5t-5 -7q0 -4 -1 -8t-1 -8q0 -12 6 -19q0 -4 2 -7t4 -7q6 -2 17 -2q10 0 16 6t8 14zM1403 162v86h16l21 -62q0 -4 2 -7t2 -7 q0 2 4 14l18 62h17v-86h-10v69l-25 -69h-10l-25 71v-71h-10zM807 197h29l-11 24q-2 4 -2 7t-4 8q0 -6 -4 -15zM455 162v10h14v-10h-14zM1126 162v86h11v-78h43v-8h-54zM1049 162v86h61v-12h-51v-27h47v-10h-47v-29h51v-8h-61zM745 162v35l-32 51h14l16 -27q4 -12 9 -14 q2 2 4 6t6 8l16 27h13l-35 -51v-35h-11zM487 162v86h33q4 0 7 -2t5 -2q8 -2 11 -8q4 -4 4 -13q0 -6 -4 -8q-2 -8 -8 -8q6 -2 12 -8q4 -8 4 -13q0 -4 -1 -6t-1 -4q-2 -8 -8 -8q-2 -4 -4 -4t-5 -2h-12h-33zM254 162l-25 86h13l12 -58q2 -6 2 -10t2 -8q2 10 2 16l16 60h15 l12 -45q6 -18 6 -31q2 4 2 8t2 10l15 58h10l-25 -86h-10l-16 63q-2 6 -2 11q-2 -4 -2 -11l-19 -63h-10zM141 162l-24 86h14l10 -58q2 -6 2 -10t4 -8q2 10 3 16l16 60h12l15 -45q2 -10 3 -16.5t1 -14.5q4 4 4 8t2 10l12 58h12l-24 -86h-10l-17 63q-2 6 -2 11q-4 -4 -4 -11 l-18 -63h-11zM498 209h18q8 0 10 4q6 0 6 2q2 2 3 8q0 6 -3 8h-2q-2 0 -2 1t-2 1q-2 2 -12 3h-16v-27zM362 162l-22 86h12l13 -58q2 -6 2 -10t4 -8q0 8 1 11t1 5l16 60h12l15 -45q2 -10 3 -16.5t1 -14.5q4 4 4 8t2 10l14 58h11l-25 -86h-10l-17 63q-2 6 -2 11q-4 -4 -4 -11 l-18 -63h-13zM881 207h24q4 0 7 1t8 1q4 0 4 6q2 2 2 8t-4 10q-2 2 -15 3h-26v-29zM498 170h22q4 0 6 2h6q2 4 7 6v8q0 4 -4 9q0 4 -5 4h-14h-18v-29zM567 162v86h11v-86h-11zM1319 203q0 -18 6 -25q8 -8 23 -8q14 0 20 8q8 6 8 27q0 10 -2 16q-4 10 -10 12t-16 3 q-12 0 -19 -7q-10 -8 -10 -26zM1307 203q0 23 12 33q8 12 29 12q6 0 11 -2t9 -4q6 -2 9 -6.5l7 -10.5q2 -4 2 -20q0 -18 -4 -25q-6 -10 -14 -16q-8 -4 -20 -4q-6 0 -11.5 1t-11.5 3q-4 4 -7 8t-5 8q-2 6 -4 11.5t-2 11.5zM782 162l33 86h12l35 -86h-12l-10 24h-35l-12 -24 h-11zM600 162v86h10v-78h39v-8h-49zM1192 162v10h14v-10h-14zM995 195v10h35v-33q-8 -8 -16 -10q-4 0 -9.5 -1t-9.5 -1q-12 0 -20 4q-6 4 -10 7t-7 9q-2 6 -4 11.5t-2 11.5q0 8 2 12t4 10q4 12 15 17q4 2 10 4t12 2q10 0 17 -4q8 -2 10 -8q6 -6 8 -13l-10 -2q0 2 -6 8 q0 4 -8 7h-11h-12q-6 -2 -10 -7q0 -2 -6 -8q0 -4 -1 -8t-1 -8q0 -14 4 -19q8 -12 10 -14q6 -2 16 -2q8 0 15 2q4 4 6 4t4 2v17h-25zM870 162v86h37q6 0 10.5 -2t8.5 -2q6 -2 8 -8q4 -4 4 -13q0 -10 -6 -16q-2 -2 -7 -3t-12 -5q4 0 5.5 -1t3.5 -1q2 -4 8 -15l16 -20h-14 l-12 16q-4 4 -5.5 7t-3.5 5q0 4 -2 4.5t-4 2.5h-2q-2 0 -2 1t-2 1h-4h-14v-37h-11zM664 162v86h12v-78h41v-8h-53zM1286 190l10 -2q-4 -16 -12 -20q-8 -8 -22 -8q-12 0 -21 4q-6 4 -8 8t-6 8q-4 16 -4 25q0 8 4 24q10 10 14 13q6 2 10 4t11 2q6 0 12 -2t10 -4q4 -4 7 -8.5 t5 -10.5l-12 -2q0 8 -8 12q-4 2 -14 3q-12 0 -17 -3q-4 -2 -5 -5t-5 -7q0 -4 -1 -8t-1 -8q0 -12 6 -19q0 -4 2 -7t4 -7q6 -2 17 -2q10 0 16 6t8 14zM1403 162v86h16l21 -62q0 -4 2 -7t2 -7q0 2 4 14l18 62h17v-86h-10v69l-25 -69h-10l-25 71v-71h-10zM213 319l16 -6 q-4 -18 -18 -30q-16 -12 -35 -13q-18 0 -35 9q-16 12 -18 24q-8 14 -8 35q0 23 8 37q6 14 20 20q14 8 33 8q23 0 31 -10q14 -4 20 -26l-16 -2q-8 16 -14 18q-6 8 -21 8q-16 0 -24 -8q-12 -8 -17 -18q-2 -8 -2 -27q0 -18 6 -27q4 -14 13 -18q10 -8 22 -8q16 0 27 10q4 4 7 10 t5 14zM246 336q0 16 4 28.5t14 20.5q8 10 19.5 14t23.5 4q18 0 33 -8q12 -6 22 -22q8 -20 9 -35q0 -10 -2 -18.5t-7 -16.5q-10 -16 -24 -24q-16 -8 -31 -9q-10 0 -17 2t-16 7q-14 8 -20 24q-8 15 -8 33zM264 336q0 -25 10 -39q14 -12 33 -12q20 0 31 16q14 14 14 37 q0 8 -2 14t-4 13q-4 14 -16 18q-6 8 -23 8q-16 0 -31 -14q-12 -10 -12 -41zM391 274v127h25l30 -90q6 -12 7 -18q4 4 8 20l33 88h20v-127h-16v107l-37 -107h-17l-36 109v-109h-17zM543 274v127h49h18q10 0 17 -6q2 -2 10 -12q2 -4 3 -8t1 -10q0 -12 -10 -27q-10 -10 -39 -10 h-33v-54h-16zM559 340h35q18 0 20 8q8 2 9 17q0 10 -2 12q-8 8 -15 8q-2 4 -14 4h-33v-49zM664 274v127h16v-114h63v-13h-79zM764 274v127h94v-12h-78v-41h72v-16h-72v-45h80v-13h-96zM915 274v115h-43v12h105v-12h-43v-115h-19zM995 274v127h95v-12h-78v-41h71v-16h-71v-45 h80v-13h-97zM1161 313l17 2q0 -10 4 -14q4 -8 14 -12q4 -2 18 -2h9.5t9.5 2q6 0 10 8q2 4 2 12q0 6 -2 10q-2 2 -5 3.5t-7 5.5q-2 0 -23 4q-10 4 -16 5t-10 3q-8 4 -13 14q-4 2 -5 6.5t-1 8.5q0 12 8 20q2 4 6.5 6t10.5 6q4 2 24 2q14 0 23 -4q6 -4 10 -6t6 -8q8 -6 9 -18 l-17 -2q-4 16 -10 18q-6 6 -21 6q-20 0 -24 -6q-6 -6 -6 -14q0 -6 6 -11l24 -10q10 -2 17.5 -4t11.5 -4q6 -2 9 -5l7 -7q4 -6 5 -19q0 -14 -5 -20q-8 -8 -16 -13l-12 -4t-15 -2q-8 0 -16 2t-12 4q-10 2 -21 17q-4 8 -4 20zM1286 274v127h92v-12h-73v-41h71v-16h-71v-45h77 v-13h-96zM1440 274v115h-41v12h100v-12h-43v-115h-16zM127 428v127h51h19q4 0 16 -4q2 -2 5 -6t5 -8q4 -4 4 -15q0 -18 -12 -30q-6 -10 -37 -11h-31v-53h-20zM147 498h31q18 0 25 4q8 8 8 16q0 4 -2 8t-4 9q-6 6 -10 6q-2 2 -17 2h-31v-45zM248 428v127h92v-12h-74v-41h70 v-15h-70v-43h78v-16h-96zM367 428v127h59q18 0 27 -2q10 -4 14 -10q4 -16 4 -21q0 -14 -8 -22t-29 -13q4 -4 6 -4t4 -2q10 -10 15 -18l22 -35h-20l-19 27q-2 6 -5 10t-5 8q-4 2 -5 5t-3 3q-4 2 -8 2q-2 4 -10 4h-19v-59h-20zM387 500h33q16 0 20 2q6 6 11 8q2 4 2 12t-7 15 q-6 6 -20 6h-39v-43zM494 471h14q0 -4 2 -8l4 -8q2 -2 5 -5.5t7 -3.5q12 -4 21 -4h8t6 2q12 4 14 9q0 2 1.5 5t1.5 5q0 8 -3 10q-6 4 -14 8q-2 2 -7 2t-13 4q-18 2 -27 9q-10 8 -14 12q-2 6 -2 16q0 4 1 9.5t5 9.5q2 8 16 12q4 4 23 4q16 0 24 -4q12 -6 17 -14q8 -12 8 -19 l-17 -4q-4 14 -10 19q-8 8 -22 8q-16 0 -23 -8q-6 -4 -6 -13q0 -8 6 -10q2 -4 23 -8q18 -8 30 -8q4 -4 8.5 -7.5t6.5 -7.5q6 -6 6 -18q0 -10 -6 -19q-4 -6 -7 -9t-8 -7q-16 -4 -26 -4q-14 0 -31 4q-6 4 -10 7t-8 9q-2 6 -3 11.5t-1 13.5zM612 492q0 29 17 49q18 18 45 18 q8 0 15 -2t18 -6q8 -4 12 -10t8 -15q8 -14 8 -34q0 -18 -8 -35q-8 -14 -20 -23q-16 -8 -33 -8q-18 0 -33 10q-18 10 -20 25q-9 11 -9 31zM629 492q0 -25 12 -37t33 -13q20 0 33 13q10 14 10 37q0 8 -1 16t-5 14q-6 10 -13 15q-10 8 -24 8q-10 0 -16.5 -3t-16.5 -10 q-12 -11 -12 -40zM756 428v127h18l68 -98v98h16v-127h-16l-70 100v-100h-16zM872 428l50 127h18l53 -127h-20l-15 41h-53l-16 -41h-17zM907 481h45l-12 35q-4 8 -6 15.5t-4 11.5q0 -6 -2 -12.5t-4 -12.5zM1004 428v127h18v-111h63v-16h-81zM1233 555h16v-72q0 -23 -4 -30 q-4 -12 -14 -19q-10 -8 -31 -8q-20 0 -29 8q-6 2 -10 7t-8 12q-2 4 -2 30v72h14v-72q0 -20 4 -26q4 -8 11 -11q4 -2 8 -3t10 -1q16 0 27 7q8 8 8 34v72zM1272 471h16q0 -4 2 -8l4 -8l5.5 -5.5t7.5 -3.5q12 -4 18 -4q14 0 21 2q4 2 10 9q2 2 2 10t-2 10q-4 2 -5 4t-5 4 t-10.5 2t-14.5 4q-8 2 -15.5 3.5t-9.5 5.5q-10 4 -12 12q-6 6 -6 16q0 8 6 19q2 8 14 12q8 4 25 4h13t12 -4q12 -6 18 -14q2 -4 4 -9.5t2 -9.5l-16 -4q-4 6 -5 11.5t-5 7.5q-6 8 -23 8q-18 0 -20 -8q-8 -2 -9 -13q0 -6 4 -10t25 -8q23 -8 29 -8q6 -4 10 -7.5t6 -7.5 q6 -4 6 -18q0 -12 -6 -19q-2 -6 -6 -9t-10 -7q-12 -4 -23 -4q-10 0 -17 1t-14 3q-4 4 -9 7t-9 9t-6 11.5t-2 13.5zM1399 428v127h92v-12h-74v-41h68v-15h-68v-43h76v-16h-94z" />
<glyph unicode="9" horiz-adv-x="1665" d="M1499 639q0 -43 -41 -43q-39 0 -39 45l8 8l13 -6q4 -14 6 -20.5t12 -6.5q16 0 17 19q0 12 -21 33l-13 13t-14 15q-8 16 -8 25q0 41 39 41t39 -39l-22 -4q-4 20 -17 20q-12 0 -12 -18q0 -16 33 -43q20 -21 20 -39zM1401 735h-27v-139l-10 -8l-14 8v139h-27v23h78v-23z M1169 1235l-186 -170l49 -254l-219 129l-225 -129l53 248l-188 176l254 27l106 233l102 -231zM1305 596h-27l-35 104v-104h-24v141l-7 11l7 10h30l31 -109v109h25v-162zM1198 633q0 -37 -39 -37t-39 37v90q0 39 39 39t39 -39v-90zM1102 735h-43v-47h33v-22h-33v-70h-27v139 l-6 13l6 10h70v-23zM1001 596h-67v162l12 10l12 -10v-137h43v-25zM915 596h-69v139l-6 13l6 10h69v-23h-45v-47h35v-22h-35v-45h45v-25zM825 633q0 -39 -39 -39t-38 39v88q0 41 38 41q39 0 39 -41v-19h-26v21q0 14 -13 14q-14 0 -14 -14v-90q0 -12 14 -12q12 0 13 12v33h-13 l-8 10l8 12h39v-55zM729 596h-27l-12 61h-16v-61h-25v141l-8 11l8 10h37q41 0 41 -37v-25q0 -16 -16 -28zM629 596l-15 -8l-12 8l-6 37h-23l-8 -37l-14 -8l-10 8l26 162h35zM506 758l-33 -92v-70h-22v70l-35 92h26l19 -58l18 58h27zM428 596h-66v162l11 10l14 -10v-137h41 v-25zM346 596h-65v162l10 10l12 -10v-137h43v-25zM256 596l-14 -8l-11 8v162h25v-162zM211 643q0 -47 -37 -47h-47v139l-6 10l6 13h39q41 0 41 -45q0 -25 -19 -31q23 -10 23 -39zM905 954l-59 353h-72l-61 -353l30 -18l27 18l12 80h54l14 -80l29 -18zM1171 723q0 14 -12 14 q-14 0 -14 -14v-90q0 -12 14 -12q12 0 12 12v90zM700 721q0 14 -14 14h-12v-51h12q14 0 14 12v25zM594 657l-10 64l-9 -64h19zM180 713q0 23 -14 22h-12v-43h12q14 1 14 21zM184 643q0 27 -18 27h-12v-49h12q18 -1 18 22zM831 1085h-40l18 140zM807 197h29l-11 24q-2 4 -2 7 t-4 8q0 -6 -4 -15zM455 162v10h14v-10h-14zM1126 162v86h11v-78h43v-8h-54zM1049 162v86h61v-12h-51v-27h47v-10h-47v-29h51v-8h-61zM745 162v35l-32 51h14l16 -27q4 -12 9 -14q2 2 4 6t6 8l16 27h13l-35 -51v-35h-11zM487 162v86h33q4 0 7 -2t5 -2q8 -2 11 -8q4 -4 4 -13 q0 -6 -4 -8q-2 -8 -8 -8q6 -2 12 -8q4 -8 4 -13q0 -4 -1 -6t-1 -4q-2 -8 -8 -8q-2 -4 -4 -4t-5 -2h-12h-33zM254 162l-25 86h13l12 -58q2 -6 2 -10t2 -8q2 10 2 16l16 60h15l12 -45q6 -18 6 -31q2 4 2 8t2 10l15 58h10l-25 -86h-10l-16 63q-2 6 -2 11q-2 -4 -2 -11l-19 -63 h-10zM141 162l-24 86h14l10 -58q2 -6 2 -10t4 -8q2 10 3 16l16 60h12l15 -45q2 -10 3 -16.5t1 -14.5q4 4 4 8t2 10l12 58h12l-24 -86h-10l-17 63q-2 6 -2 11q-4 -4 -4 -11l-18 -63h-11zM498 209h18q8 0 10 4q6 0 6 2q2 2 3 8q0 6 -3 8h-2q-2 0 -2 1t-2 1q-2 2 -12 3h-16v-27 zM362 162l-22 86h12l13 -58q2 -6 2 -10t4 -8q0 8 1 11t1 5l16 60h12l15 -45q2 -10 3 -16.5t1 -14.5q4 4 4 8t2 10l14 58h11l-25 -86h-10l-17 63q-2 6 -2 11q-4 -4 -4 -11l-18 -63h-13zM881 207h24q4 0 7 1t8 1q4 0 4 6q2 2 2 8t-4 10q-2 2 -15 3h-26v-29zM498 170h22 q4 0 6 2h6q2 4 7 6v8q0 4 -4 9q0 4 -5 4h-14h-18v-29zM567 162v86h11v-86h-11zM1319 203q0 -18 6 -25q8 -8 23 -8q14 0 20 8q8 6 8 27q0 10 -2 16q-4 10 -10 12t-16 3q-12 0 -19 -7q-10 -8 -10 -26zM1307 203q0 23 12 33q8 12 29 12q6 0 11 -2t9 -4q6 -2 9 -6.5l7 -10.5 q2 -4 2 -20q0 -18 -4 -25q-6 -10 -14 -16q-8 -4 -20 -4q-6 0 -11.5 1t-11.5 3q-4 4 -7 8t-5 8q-2 6 -4 11.5t-2 11.5zM782 162l33 86h12l35 -86h-12l-10 24h-35l-12 -24h-11zM600 162v86h10v-78h39v-8h-49zM1192 162v10h14v-10h-14zM995 195v10h35v-33q-8 -8 -16 -10 q-4 0 -9.5 -1t-9.5 -1q-12 0 -20 4q-6 4 -10 7t-7 9q-2 6 -4 11.5t-2 11.5q0 8 2 12t4 10q4 12 15 17q4 2 10 4t12 2q10 0 17 -4q8 -2 10 -8q6 -6 8 -13l-10 -2q0 2 -6 8q0 4 -8 7h-11h-12q-6 -2 -10 -7q0 -2 -6 -8q0 -4 -1 -8t-1 -8q0 -14 4 -19q8 -12 10 -14q6 -2 16 -2 q8 0 15 2q4 4 6 4t4 2v17h-25zM870 162v86h37q6 0 10.5 -2t8.5 -2q6 -2 8 -8q4 -4 4 -13q0 -10 -6 -16q-2 -2 -7 -3t-12 -5q4 0 5.5 -1t3.5 -1q2 -4 8 -15l16 -20h-14l-12 16q-4 4 -5.5 7t-3.5 5q0 4 -2 4.5t-4 2.5h-2q-2 0 -2 1t-2 1h-4h-14v-37h-11zM664 162v86h12v-78h41 v-8h-53zM1286 190l10 -2q-4 -16 -12 -20q-8 -8 -22 -8q-12 0 -21 4q-6 4 -8 8t-6 8q-4 16 -4 25q0 8 4 24q10 10 14 13q6 2 10 4t11 2q6 0 12 -2t10 -4q4 -4 7 -8.5t5 -10.5l-12 -2q0 8 -8 12q-4 2 -14 3q-12 0 -17 -3q-4 -2 -5 -5t-5 -7q0 -4 -1 -8t-1 -8q0 -12 6 -19 q0 -4 2 -7t4 -7q6 -2 17 -2q10 0 16 6t8 14zM1403 162v86h16l21 -62q0 -4 2 -7t2 -7q0 2 4 14l18 62h17v-86h-10v69l-25 -69h-10l-25 71v-71h-10zM807 197h29l-11 24q-2 4 -2 7t-4 8q0 -6 -4 -15zM455 162v10h14v-10h-14zM1126 162v86h11v-78h43v-8h-54zM1049 162v86h61v-12 h-51v-27h47v-10h-47v-29h51v-8h-61zM745 162v35l-32 51h14l16 -27q4 -12 9 -14q2 2 4 6t6 8l16 27h13l-35 -51v-35h-11zM487 162v86h33q4 0 7 -2t5 -2q8 -2 11 -8q4 -4 4 -13q0 -6 -4 -8q-2 -8 -8 -8q6 -2 12 -8q4 -8 4 -13q0 -4 -1 -6t-1 -4q-2 -8 -8 -8q-2 -4 -4 -4t-5 -2 h-12h-33zM254 162l-25 86h13l12 -58q2 -6 2 -10t2 -8q2 10 2 16l16 60h15l12 -45q6 -18 6 -31q2 4 2 8t2 10l15 58h10l-25 -86h-10l-16 63q-2 6 -2 11q-2 -4 -2 -11l-19 -63h-10zM141 162l-24 86h14l10 -58q2 -6 2 -10t4 -8q2 10 3 16l16 60h12l15 -45q2 -10 3 -16.5 t1 -14.5q4 4 4 8t2 10l12 58h12l-24 -86h-10l-17 63q-2 6 -2 11q-4 -4 -4 -11l-18 -63h-11zM498 209h18q8 0 10 4q6 0 6 2q2 2 3 8q0 6 -3 8h-2q-2 0 -2 1t-2 1q-2 2 -12 3h-16v-27zM362 162l-22 86h12l13 -58q2 -6 2 -10t4 -8q0 8 1 11t1 5l16 60h12l15 -45q2 -10 3 -16.5 t1 -14.5q4 4 4 8t2 10l14 58h11l-25 -86h-10l-17 63q-2 6 -2 11q-4 -4 -4 -11l-18 -63h-13zM881 207h24q4 0 7 1t8 1q4 0 4 6q2 2 2 8t-4 10q-2 2 -15 3h-26v-29zM498 170h22q4 0 6 2h6q2 4 7 6v8q0 4 -4 9q0 4 -5 4h-14h-18v-29zM567 162v86h11v-86h-11zM1319 203 q0 -18 6 -25q8 -8 23 -8q14 0 20 8q8 6 8 27q0 10 -2 16q-4 10 -10 12t-16 3q-12 0 -19 -7q-10 -8 -10 -26zM1307 203q0 23 12 33q8 12 29 12q6 0 11 -2t9 -4q6 -2 9 -6.5l7 -10.5q2 -4 2 -20q0 -18 -4 -25q-6 -10 -14 -16q-8 -4 -20 -4q-6 0 -11.5 1t-11.5 3q-4 4 -7 8 t-5 8q-2 6 -4 11.5t-2 11.5zM782 162l33 86h12l35 -86h-12l-10 24h-35l-12 -24h-11zM600 162v86h10v-78h39v-8h-49zM1192 162v10h14v-10h-14zM995 195v10h35v-33q-8 -8 -16 -10q-4 0 -9.5 -1t-9.5 -1q-12 0 -20 4q-6 4 -10 7t-7 9q-2 6 -4 11.5t-2 11.5q0 8 2 12t4 10 q4 12 15 17q4 2 10 4t12 2q10 0 17 -4q8 -2 10 -8q6 -6 8 -13l-10 -2q0 2 -6 8q0 4 -8 7h-11h-12q-6 -2 -10 -7q0 -2 -6 -8q0 -4 -1 -8t-1 -8q0 -14 4 -19q8 -12 10 -14q6 -2 16 -2q8 0 15 2q4 4 6 4t4 2v17h-25zM870 162v86h37q6 0 10.5 -2t8.5 -2q6 -2 8 -8q4 -4 4 -13 q0 -10 -6 -16q-2 -2 -7 -3t-12 -5q4 0 5.5 -1t3.5 -1q2 -4 8 -15l16 -20h-14l-12 16q-4 4 -5.5 7t-3.5 5q0 4 -2 4.5t-4 2.5h-2q-2 0 -2 1t-2 1h-4h-14v-37h-11zM664 162v86h12v-78h41v-8h-53zM1286 190l10 -2q-4 -16 -12 -20q-8 -8 -22 -8q-12 0 -21 4q-6 4 -8 8t-6 8 q-4 16 -4 25q0 8 4 24q10 10 14 13q6 2 10 4t11 2q6 0 12 -2t10 -4q4 -4 7 -8.5t5 -10.5l-12 -2q0 8 -8 12q-4 2 -14 3q-12 0 -17 -3q-4 -2 -5 -5t-5 -7q0 -4 -1 -8t-1 -8q0 -12 6 -19q0 -4 2 -7t4 -7q6 -2 17 -2q10 0 16 6t8 14zM1403 162v86h16l21 -62q0 -4 2 -7t2 -7 q0 2 4 14l18 62h17v-86h-10v69l-25 -69h-10l-25 71v-71h-10zM807 197h29l-11 24q-2 4 -2 7t-4 8q0 -6 -4 -15zM455 162v10h14v-10h-14zM1126 162v86h11v-78h43v-8h-54zM1049 162v86h61v-12h-51v-27h47v-10h-47v-29h51v-8h-61zM745 162v35l-32 51h14l16 -27q4 -12 9 -14 q2 2 4 6t6 8l16 27h13l-35 -51v-35h-11zM487 162v86h33q4 0 7 -2t5 -2q8 -2 11 -8q4 -4 4 -13q0 -6 -4 -8q-2 -8 -8 -8q6 -2 12 -8q4 -8 4 -13q0 -4 -1 -6t-1 -4q-2 -8 -8 -8q-2 -4 -4 -4t-5 -2h-12h-33zM254 162l-25 86h13l12 -58q2 -6 2 -10t2 -8q2 10 2 16l16 60h15 l12 -45q6 -18 6 -31q2 4 2 8t2 10l15 58h10l-25 -86h-10l-16 63q-2 6 -2 11q-2 -4 -2 -11l-19 -63h-10zM141 162l-24 86h14l10 -58q2 -6 2 -10t4 -8q2 10 3 16l16 60h12l15 -45q2 -10 3 -16.5t1 -14.5q4 4 4 8t2 10l12 58h12l-24 -86h-10l-17 63q-2 6 -2 11q-4 -4 -4 -11 l-18 -63h-11zM498 209h18q8 0 10 4q6 0 6 2q2 2 3 8q0 6 -3 8h-2q-2 0 -2 1t-2 1q-2 2 -12 3h-16v-27zM362 162l-22 86h12l13 -58q2 -6 2 -10t4 -8q0 8 1 11t1 5l16 60h12l15 -45q2 -10 3 -16.5t1 -14.5q4 4 4 8t2 10l14 58h11l-25 -86h-10l-17 63q-2 6 -2 11q-4 -4 -4 -11 l-18 -63h-13zM881 207h24q4 0 7 1t8 1q4 0 4 6q2 2 2 8t-4 10q-2 2 -15 3h-26v-29zM498 170h22q4 0 6 2h6q2 4 7 6v8q0 4 -4 9q0 4 -5 4h-14h-18v-29zM567 162v86h11v-86h-11zM1319 203q0 -18 6 -25q8 -8 23 -8q14 0 20 8q8 6 8 27q0 10 -2 16q-4 10 -10 12t-16 3 q-12 0 -19 -7q-10 -8 -10 -26zM1307 203q0 23 12 33q8 12 29 12q6 0 11 -2t9 -4q6 -2 9 -6.5l7 -10.5q2 -4 2 -20q0 -18 -4 -25q-6 -10 -14 -16q-8 -4 -20 -4q-6 0 -11.5 1t-11.5 3q-4 4 -7 8t-5 8q-2 6 -4 11.5t-2 11.5zM782 162l33 86h12l35 -86h-12l-10 24h-35l-12 -24 h-11zM600 162v86h10v-78h39v-8h-49zM1192 162v10h14v-10h-14zM995 195v10h35v-33q-8 -8 -16 -10q-4 0 -9.5 -1t-9.5 -1q-12 0 -20 4q-6 4 -10 7t-7 9q-2 6 -4 11.5t-2 11.5q0 8 2 12t4 10q4 12 15 17q4 2 10 4t12 2q10 0 17 -4q8 -2 10 -8q6 -6 8 -13l-10 -2q0 2 -6 8 q0 4 -8 7h-11h-12q-6 -2 -10 -7q0 -2 -6 -8q0 -4 -1 -8t-1 -8q0 -14 4 -19q8 -12 10 -14q6 -2 16 -2q8 0 15 2q4 4 6 4t4 2v17h-25zM870 162v86h37q6 0 10.5 -2t8.5 -2q6 -2 8 -8q4 -4 4 -13q0 -10 -6 -16q-2 -2 -7 -3t-12 -5q4 0 5.5 -1t3.5 -1q2 -4 8 -15l16 -20h-14 l-12 16q-4 4 -5.5 7t-3.5 5q0 4 -2 4.5t-4 2.5h-2q-2 0 -2 1t-2 1h-4h-14v-37h-11zM664 162v86h12v-78h41v-8h-53zM1286 190l10 -2q-4 -16 -12 -20q-8 -8 -22 -8q-12 0 -21 4q-6 4 -8 8t-6 8q-4 16 -4 25q0 8 4 24q10 10 14 13q6 2 10 4t11 2q6 0 12 -2t10 -4q4 -4 7 -8.5 t5 -10.5l-12 -2q0 8 -8 12q-4 2 -14 3q-12 0 -17 -3q-4 -2 -5 -5t-5 -7q0 -4 -1 -8t-1 -8q0 -12 6 -19q0 -4 2 -7t4 -7q6 -2 17 -2q10 0 16 6t8 14zM1403 162v86h16l21 -62q0 -4 2 -7t2 -7q0 2 4 14l18 62h17v-86h-10v69l-25 -69h-10l-25 71v-71h-10zM213 319l16 -6 q-4 -18 -18 -30q-16 -12 -35 -13q-18 0 -35 9q-16 12 -18 24q-8 14 -8 35q0 23 8 37q6 14 20 20q14 8 33 8q23 0 31 -10q14 -4 20 -26l-16 -2q-8 16 -14 18q-6 8 -21 8q-16 0 -24 -8q-12 -8 -17 -18q-2 -8 -2 -27q0 -18 6 -27q4 -14 13 -18q10 -8 22 -8q16 0 27 10q4 4 7 10 t5 14zM246 336q0 16 4 28.5t14 20.5q8 10 19.5 14t23.5 4q18 0 33 -8q12 -6 22 -22q8 -20 9 -35q0 -10 -2 -18.5t-7 -16.5q-10 -16 -24 -24q-16 -8 -31 -9q-10 0 -17 2t-16 7q-14 8 -20 24q-8 15 -8 33zM264 336q0 -25 10 -39q14 -12 33 -12q20 0 31 16q14 14 14 37 q0 8 -2 14t-4 13q-4 14 -16 18q-6 8 -23 8q-16 0 -31 -14q-12 -10 -12 -41zM391 274v127h25l30 -90q6 -12 7 -18q4 4 8 20l33 88h20v-127h-16v107l-37 -107h-17l-36 109v-109h-17zM543 274v127h49h18q10 0 17 -6q2 -2 10 -12q2 -4 3 -8t1 -10q0 -12 -10 -27q-10 -10 -39 -10 h-33v-54h-16zM559 340h35q18 0 20 8q8 2 9 17q0 10 -2 12q-8 8 -15 8q-2 4 -14 4h-33v-49zM664 274v127h16v-114h63v-13h-79zM764 274v127h94v-12h-78v-41h72v-16h-72v-45h80v-13h-96zM915 274v115h-43v12h105v-12h-43v-115h-19zM995 274v127h95v-12h-78v-41h71v-16h-71v-45 h80v-13h-97zM1161 313l17 2q0 -10 4 -14q4 -8 14 -12q4 -2 18 -2h9.5t9.5 2q6 0 10 8q2 4 2 12q0 6 -2 10q-2 2 -5 3.5t-7 5.5q-2 0 -23 4q-10 4 -16 5t-10 3q-8 4 -13 14q-4 2 -5 6.5t-1 8.5q0 12 8 20q2 4 6.5 6t10.5 6q4 2 24 2q14 0 23 -4q6 -4 10 -6t6 -8q8 -6 9 -18 l-17 -2q-4 16 -10 18q-6 6 -21 6q-20 0 -24 -6q-6 -6 -6 -14q0 -6 6 -11l24 -10q10 -2 17.5 -4t11.5 -4q6 -2 9 -5l7 -7q4 -6 5 -19q0 -14 -5 -20q-8 -8 -16 -13l-12 -4t-15 -2q-8 0 -16 2t-12 4q-10 2 -21 17q-4 8 -4 20zM1286 274v127h92v-12h-73v-41h71v-16h-71v-45h77 v-13h-96zM1440 274v115h-41v12h100v-12h-43v-115h-16zM127 428v127h51h19q4 0 16 -4q2 -2 5 -6t5 -8q4 -4 4 -15q0 -18 -12 -30q-6 -10 -37 -11h-31v-53h-20zM147 498h31q18 0 25 4q8 8 8 16q0 4 -2 8t-4 9q-6 6 -10 6q-2 2 -17 2h-31v-45zM248 428v127h92v-12h-74v-41h70 v-15h-70v-43h78v-16h-96zM367 428v127h59q18 0 27 -2q10 -4 14 -10q4 -16 4 -21q0 -14 -8 -22t-29 -13q4 -4 6 -4t4 -2q10 -10 15 -18l22 -35h-20l-19 27q-2 6 -5 10t-5 8q-4 2 -5 5t-3 3q-4 2 -8 2q-2 4 -10 4h-19v-59h-20zM387 500h33q16 0 20 2q6 6 11 8q2 4 2 12t-7 15 q-6 6 -20 6h-39v-43zM494 471h14q0 -4 2 -8l4 -8q2 -2 5 -5.5t7 -3.5q12 -4 21 -4h8t6 2q12 4 14 9q0 2 1.5 5t1.5 5q0 8 -3 10q-6 4 -14 8q-2 2 -7 2t-13 4q-18 2 -27 9q-10 8 -14 12q-2 6 -2 16q0 4 1 9.5t5 9.5q2 8 16 12q4 4 23 4q16 0 24 -4q12 -6 17 -14q8 -12 8 -19 l-17 -4q-4 14 -10 19q-8 8 -22 8q-16 0 -23 -8q-6 -4 -6 -13q0 -8 6 -10q2 -4 23 -8q18 -8 30 -8q4 -4 8.5 -7.5t6.5 -7.5q6 -6 6 -18q0 -10 -6 -19q-4 -6 -7 -9t-8 -7q-16 -4 -26 -4q-14 0 -31 4q-6 4 -10 7t-8 9q-2 6 -3 11.5t-1 13.5zM612 492q0 29 17 49q18 18 45 18 q8 0 15 -2t18 -6q8 -4 12 -10t8 -15q8 -14 8 -34q0 -18 -8 -35q-8 -14 -20 -23q-16 -8 -33 -8q-18 0 -33 10q-18 10 -20 25q-9 11 -9 31zM629 492q0 -25 12 -37t33 -13q20 0 33 13q10 14 10 37q0 8 -1 16t-5 14q-6 10 -13 15q-10 8 -24 8q-10 0 -16.5 -3t-16.5 -10 q-12 -11 -12 -40zM756 428v127h18l68 -98v98h16v-127h-16l-70 100v-100h-16zM872 428l50 127h18l53 -127h-20l-15 41h-53l-16 -41h-17zM907 481h45l-12 35q-4 8 -6 15.5t-4 11.5q0 -6 -2 -12.5t-4 -12.5zM1004 428v127h18v-111h63v-16h-81zM1233 555h16v-72q0 -23 -4 -30 q-4 -12 -14 -19q-10 -8 -31 -8q-20 0 -29 8q-6 2 -10 7t-8 12q-2 4 -2 30v72h14v-72q0 -20 4 -26q4 -8 11 -11q4 -2 8 -3t10 -1q16 0 27 7q8 8 8 34v72zM1272 471h16q0 -4 2 -8l4 -8l5.5 -5.5t7.5 -3.5q12 -4 18 -4q14 0 21 2q4 2 10 9q2 2 2 10t-2 10q-4 2 -5 4t-5 4 t-10.5 2t-14.5 4q-8 2 -15.5 3.5t-9.5 5.5q-10 4 -12 12q-6 6 -6 16q0 8 6 19q2 8 14 12q8 4 25 4h13t12 -4q12 -6 18 -14q2 -4 4 -9.5t2 -9.5l-16 -4q-4 6 -5 11.5t-5 7.5q-6 8 -23 8q-18 0 -20 -8q-8 -2 -9 -13q0 -6 4 -10t25 -8q23 -8 29 -8q6 -4 10 -7.5t6 -7.5 q6 -4 6 -18q0 -12 -6 -19q-2 -6 -6 -9t-10 -7q-12 -4 -23 -4q-10 0 -17 1t-14 3q-4 4 -9 7t-9 9t-6 11.5t-2 13.5zM1399 428v127h92v-12h-74v-41h68v-15h-68v-43h76v-16h-94z" />
<glyph unicode=":" />
<glyph unicode=";" />
<glyph unicode="&#x3c;" />
<glyph unicode="=" />
<glyph unicode="&#x3e;" />
<glyph unicode="?" />
<glyph unicode="@" />
<glyph unicode="A" horiz-adv-x="1523" d="M217 41q70 188 175.5 386t264.5 407q-143 33 -288 2q-55 -12 -107.5 -47t-86.5 -82.5t-42 -104.5t27 -117l-15 -88q-111 82 -140.5 178.5t3.5 182.5t120 149.5t214 75.5q102 10 200.5 -4t190.5 -49q123 152 280.5 303t358.5 311q8 6 15.5 10.5t17.5 1.5q29 -4 63.5 -20 t65.5 -39.5t56.5 -50.5t35.5 -47q-6 -14 -15 -39t-29.5 -70t-55.5 -117.5t-92 -181.5q-82 -156 -146.5 -313.5t-97.5 -331.5q-10 -57 -20.5 -114.5t-14.5 -116.5q57 37 103.5 88t89.5 112q55 74 101 144.5t99 158.5l109 -102q-59 -133 -138 -264t-190 -229 q-37 -33 -67.5 -48.5t-58 -15.5t-56.5 14.5t-62 44.5q-53 43 -67 117t-8 157t26.5 166t38.5 144q-106 111 -252 176q-174 -221 -289.5 -435t-187.5 -425zM889 856q117 -63 219 -162q41 111 88 208t84 167q35 68 73 135.5t74 134.5q8 16 17.5 38t19.5 44 q-174 -141 -316 -282.5t-259 -282.5z" />
<glyph unicode="B" horiz-adv-x="1945" d="M16 1229q47 -31 95.5 -27t101.5 23q63 20 122.5 50t117 62.5t116 65.5t117.5 61q57 27 105.5 38t89.5 2t76.5 -41.5t70.5 -90.5q12 -20 2 -56t-28.5 -73t-39 -67.5t-26.5 -42.5q-53 -84 -110.5 -174.5t-129.5 -225.5l45 68q106 160 238.5 310.5t286.5 260.5 q35 25 62.5 41.5t54 27.5t56 17t70.5 12q23 0 55.5 -14t53.5 -31q84 -63 107.5 -133.5t-27.5 -161.5q-37 -66 -93.5 -125t-121.5 -106q47 -10 87 -26.5t81 -51.5q111 -92 144.5 -213t-34.5 -254q-72 -147 -198.5 -244.5t-284.5 -150.5q-53 -18 -104.5 -14t-98.5 24.5t-90 52 t-80 66.5t-62.5 80t-15.5 98q14 84 72.5 150.5t137.5 112.5t167 72t160 26l104 -123q-74 -8 -148.5 -26.5t-142 -52.5t-124 -86t-90.5 -126q-31 -72 -7.5 -104.5t103.5 -38.5q78 -8 161 18.5t159.5 77.5t141 119.5t104.5 147.5t50.5 161t-22.5 158q-100 47 -209 37.5 t-215 -29.5q-4 0 -4 -1t-2 -1q-29 31 -56.5 61.5t-56.5 61.5h10q119 43 226.5 118.5t185.5 174.5q29 37 53.5 79.5t26.5 94.5h-2q-84 6 -182.5 -47.5t-195.5 -141.5t-189.5 -200.5t-163 -225t-115.5 -215t-49 -170.5q-88 45 -138.5 88t-60.5 96q-16 78 4.5 160t59 163 t87 155.5t89.5 136.5q6 10 27.5 48t44 79t38 73.5t11.5 30.5q-57 -16 -112.5 -45.5t-107.5 -58.5q-49 -27 -109.5 -62.5t-126 -66.5t-131 -50.5t-122.5 -11.5q-16 2 -34.5 5.5t-39 17.5t-41.5 42t-37 81z" />
<glyph unicode="C" horiz-adv-x="1421" d="M717 788q35 -4 65.5 -5t55.5 -1q59 0 109 11.5t96.5 37t90.5 68.5t91 105q14 18 31.5 47.5t32 63.5t24.5 70t10 66q0 33 -14.5 58.5t-48.5 36.5q-18 6 -38 8t-38 2q-61 0 -129 -20.5t-125 -45.5v2q-109 -47 -216.5 -120.5t-196.5 -168t-152.5 -205t-88.5 -229.5 q-4 -29 -7 -60.5t-3 -62.5q0 -59 11.5 -116.5t36 -107.5t64.5 -87t99 -55q147 -43 290.5 -15.5t270.5 105.5t231.5 195.5t176.5 255.5l106 -105q-61 -141 -129.5 -237.5t-148.5 -161t-170 -104.5t-191 -66q-37 -10 -87 -17.5t-102 -8.5t-101.5 5t-87.5 25 q-59 27 -101.5 49.5t-87.5 65.5q-35 33 -68.5 72.5t-54.5 80.5q-20 45 -35.5 83t-24.5 75t-15.5 77t-8.5 93q-6 123 42 245.5t124 223.5q59 78 137 152.5t160 131.5q78 53 161 96.5t169 69.5q41 10 102.5 20.5t108.5 4.5q37 -8 73.5 -19.5t65.5 -33.5q78 -59 119 -134 t41 -153q0 -84 -41 -172t-117 -168q-33 -35 -74 -69.5t-82 -57.5q-47 -25 -95 -33t-95 -8h-60.5t-58.5 4z" />
<glyph unicode="D" horiz-adv-x="2011" d="M1200 1096q-29 -86 -60.5 -172t-62.5 -172t-62.5 -176.5t-60.5 -176.5l-131 127q27 84 57.5 170t63.5 172q29 80 63.5 176.5t61.5 176.5zM1049 274q-106 -37 -197.5 -89t-157.5 -138q121 12 255 54t265.5 108.5t250 156t209.5 198t144.5 233.5t53.5 264q0 61 -22.5 115.5 t-82.5 83.5q-41 20 -85 32.5t-93 22.5q-279 53 -556 -9.5t-537 -205.5q-41 -25 -86 -55.5t-85 -65.5t-73 -77t-51 -87q-16 -43 -17 -90q0 -12 2 -27.5t7 -27.5q20 -8 38.5 -10.5t42.5 -6.5l105 -137q-76 6 -136.5 35t-103.5 72t-65.5 96t-22.5 110q0 66 30 132.5t95 123.5 q86 76 214 149t278.5 130t313.5 93t318 36q184 0 351.5 -69.5t275.5 -211.5q86 -166 72 -322.5t-96 -296.5t-217.5 -260t-293 -210t-321.5 -146.5t-303 -70.5q-35 2 -75 17.5t-74.5 41t-58 59t-23.5 70.5q0 12 2 25.5t12 27.5q27 51 70 91.5t93 71t105 54t107 42.5z" />
<glyph unicode="E" horiz-adv-x="1318" d="M1176 918l32 -48q-61 -16 -130.5 -30.5t-131.5 -26.5q-92 -20 -186 -42.5t-191 -53.5q-90 -31 -179 -79t-152 -120q-47 -57 -73 -115.5t-26 -105.5q0 -59 38 -99t112 -69q76 -29 179 -43t206 -6q104 8 195.5 48t171 104.5t149.5 152.5t129 193l102 -123 q-49 -111 -120.5 -204t-164 -162t-206 -109.5t-244.5 -45.5q-117 -4 -232.5 18.5t-195.5 80.5q-47 33 -90 70.5t-76 81.5t-52.5 94.5t-19.5 107.5q0 61 24 123.5t77 128.5q70 80 163 132t187 83q23 8 45.5 14t44.5 13q-70 39 -115 96q-29 35 -47 75t-18 85q0 23 5 46t20 48 q27 43 68.5 76.5t90.5 58.5t99.5 41t93.5 29q86 23 177 35t177 12q106 0 210.5 -20.5t197.5 -65.5l57 -131q-92 41 -190.5 61.5t-196.5 20.5q-123 0 -246 -26t-227 -69q-33 -16 -75 -39.5t-77 -54.5t-53 -66.5t-4 -74.5q59 -33 123.5 -45t136.5 -12q84 0 171 13t173 34v-2 q2 0 2 1t2 1z" />
<glyph unicode="F" horiz-adv-x="1548" d="M618 735q117 66 249 114t274 71l14 16l92 96q41 43 85 89t83 89t68.5 78t40.5 55q-37 4 -80 4.5t-84 0.5q-139 0 -282.5 -18.5t-282 -60.5t-264 -109.5t-228.5 -164.5q51 -14 127 -14l107 -158q-47 0 -94.5 5.5t-91.5 16.5t-82 31.5t-62 51.5q-23 29 -41.5 58.5 t-18.5 70.5q0 45 35 88q41 47 110.5 91t135.5 79q180 92 407.5 142t462.5 54q43 0 91.5 -3t93.5 -12t83 -27.5t60 -47.5q25 -31 44.5 -58.5t17.5 -64.5q-4 -35 -27 -67.5t-49 -61.5q-35 -45 -83 -101t-118 -128h33.5t34.5 -2l61 -125q-78 -4 -145.5 -7t-126.5 -13 q-61 -66 -127 -143t-119 -160.5t-87 -176t-34 -188.5q0 -86 29 -172q6 -16 17 -48t22 -55l-148 93q-23 61 -43 123.5t-20 134.5q-4 139 54 265t146 243q-102 -45 -229 -115z" />
<glyph unicode="G" horiz-adv-x="1548" d="M1325 692l94 -100l-10 -14q-20 -51 -39.5 -106.5t-38.5 -109.5q-25 -68 -49.5 -137t-52.5 -139q31 10 59.5 22.5t59.5 24.5l125 -133q-82 -35 -165 -60.5t-169 -48.5q-14 -27 -27.5 -52t-30.5 -52q-33 -53 -73.5 -104.5t-91 -94.5t-108.5 -73.5t-122 -40.5q-41 -6 -83 10 t-75.5 45t-55 67.5t-21.5 79.5q0 27 10 54q20 47 56 86t80 68.5t94 51t97 33.5l224 58q27 51 49 101t43 103q-117 -104 -250 -173.5t-268 -69.5q-94 0 -186.5 39t-182.5 127q-72 72 -118 173t-46 220q0 160 65.5 303t173 262t246 208t283.5 142q20 6 47 11.5t55.5 9.5 t57.5 5t51 -3q39 -6 77 -18.5t69 -36.5q78 -57 118.5 -132t40.5 -157t-43 -172t-114 -168q-70 -74 -154 -122t-195 -48q-35 0 -65.5 1t-56.5 3l-119 164q53 -6 88 -8.5t53 -2.5q111 0 199 53.5t174 162.5q14 18 30.5 46.5t31 60.5t23.5 65.5t9 64.5q0 29 -12 50.5t-41 31.5 q-20 6 -37.5 8t-34.5 2q-59 0 -124.5 -19.5t-125.5 -41.5v2q-102 -45 -199.5 -112.5t-178 -152.5t-139 -186.5t-85.5 -212.5q-6 -33 -9 -70.5t-3 -68.5q0 -53 8 -104.5t29.5 -94.5t57.5 -75.5t89 -46.5q135 -39 268.5 4t252 134t217 209.5t161.5 231.5l15 -16v2zM578 -389 q47 0 92 20.5t87 53t76.5 71.5t63.5 76q-63 -16 -113 -39q-63 -27 -115 -77t-91 -105z" />
<glyph unicode="H" horiz-adv-x="2320" d="M494 528q117 -37 234.5 -32.5t246.5 18.5q72 100 148.5 198.5t152.5 200t146.5 208t129.5 225.5q-145 31 -299.5 19.5t-310.5 -52.5t-305.5 -104.5t-284.5 -135.5q-14 -8 -45 -27.5t-64.5 -45t-65.5 -55.5t-47 -58.5t-7 -53t53 -40.5l96 -142q-43 16 -93 43t-95 64 t-74.5 83t-29.5 101q0 57 39.5 105.5t97 89.5t119 72.5t104.5 54.5q102 49 217 93t234.5 77.5t241.5 54t243 20.5q96 0 185 -25.5t157 -103.5q43 -49 57.5 -87t7 -73.5t-32 -75.5t-61.5 -91q-113 -154 -207 -275t-180 -231q150 23 293 44t301 30q18 23 37.5 45t36.5 43 q57 68 119.5 150.5t113.5 179t85 205t36 226.5l139 -120q0 -106 -29.5 -201.5t-78.5 -183.5t-112.5 -173t-131.5 -171q20 0 40 -1.5t40 -1.5l119 -139q-82 4 -157 6t-146 2q-37 -49 -85 -113.5t-85 -135t-53.5 -144.5t8.5 -141q0 -4 2 -23.5t6 -72.5q-27 20 -53.5 46.5 t-49 56.5t-38 60.5t-21.5 61.5q-8 94 37 195.5t111 199.5q-139 -12 -281.5 -34.5t-317.5 -53.5q-2 0 -2 -2q-12 -16 -24 -34.5t-23 -35.5q-51 -80 -85.5 -157.5t-34.5 -139.5q0 -8 2 -16t10 -22.5t26.5 -36t49.5 -54.5l-50 -47q-57 53 -94 97.5t-56.5 86.5t-20.5 84t16 91 q14 39 31.5 75.5t39.5 77.5q-141 -14 -284 31z" />
<glyph unicode="I" horiz-adv-x="950" d="M432 887q-74 -8 -152.5 10t-137 58t-82 102.5t11.5 142.5q20 39 88.5 91t169 98.5t226.5 81t263 40.5q45 0 93.5 -3t92.5 -12t81.5 -27.5t60.5 -47.5q31 -41 45 -70.5t12 -57t-20.5 -56.5t-50.5 -68h2q-25 -33 -56.5 -68.5t-72.5 -80.5t-92.5 -98.5t-114.5 -118.5 q-61 -66 -128 -143.5t-122 -163.5t-91 -179.5t-36 -191.5q0 -68 19.5 -132.5t47.5 -142.5l-147 93q-16 27 -28.5 61.5t-19.5 69.5t-11 68.5t-4 58.5q-2 104 33.5 204.5t101 201t155.5 206t199 219.5q41 43 85 89t83 89t68.5 78t39.5 55q-109 12 -224 2t-228 -44.5 t-214.5 -95t-178.5 -148.5q29 -8 60.5 -10.5t66.5 -2.5z" />
<glyph unicode="J" horiz-adv-x="1740" d="M1233 1548q123 -25 207 -81t135 -134t73.5 -175t22.5 -202q0 -102 -19.5 -212.5t-52 -223t-75.5 -222.5t-88 -208l108 43l123 -133q-84 -35 -165 -60.5t-167 -48.5q-111 -184 -218 -290.5t-236 -126.5q-47 -6 -94.5 14t-83 58t-51 86.5t2.5 97.5q20 47 59.5 87t106 74.5 t163.5 68.5t233 69q43 80 93 180t94 214t78 233.5t47 236.5t1 226.5t-62 201.5q-18 33 -45.5 52.5t-61.5 29.5t-70 11t-70 -1q-182 -10 -339 -100t-282 -234q-43 -51 -109.5 -140t-129 -195.5t-106.5 -221t-44 -215.5q0 -82 31.5 -139t86 -87t124 -28t143.5 39 q94 49 172 135t141.5 189.5t114.5 212t92 200.5l131 -120q-29 -68 -67.5 -152t-87 -172t-105.5 -172t-124.5 -149.5t-146.5 -105.5t-169 -40q-96 0 -178 41t-141.5 108.5t-92.5 155.5t-33 185q0 115 45.5 252t125 272t187 259t233.5 213t263.5 130t276.5 14zM772 -389 q47 0 92 20.5t87 53t78 71.5t63 76q-98 -29 -175 -79t-145 -142z" />
<glyph unicode="K" horiz-adv-x="2201" d="M281 709q-43 -6 -83 4t-75 35.5t-59.5 62.5t-36.5 84q-16 59 2 120.5t82 110.5q195 160 429 250t482 113q45 4 97 7t103.5 -2t99.5 -23.5t85 -55.5q63 -59 81.5 -110.5t7.5 -101.5t-45 -103t-75 -115q-20 -31 -30.5 -47t-19.5 -30.5t-21.5 -34t-35 -56.5t-58 -96 t-93.5 -156q-2 -2 -2 -4q18 2 39 6t49 8q197 39 379 138.5t324 240.5q33 33 67.5 72t65.5 81t54.5 88t33.5 95q2 14 1 39t-10.5 48.5t-28.5 40t-50 16.5l-94 143q53 -20 110.5 -50t104.5 -71t76.5 -96t29.5 -125q0 -78 -43 -158t-102 -151q-76 -90 -168 -170t-196.5 -143.5 t-219.5 -108.5t-231 -66q-53 -10 -87 -13t-69 -3q98 -109 175 -182.5t155 -126.5q31 -23 68.5 -40.5t79.5 -20.5t85 15.5t84 67.5l144 -139q-41 -41 -80 -75t-105 -34q-70 0 -140.5 35t-123.5 70q-53 37 -107.5 83t-106.5 96t-101.5 101.5t-92.5 98.5l-49 51 q-39 -70 -68.5 -123t-49 -97t-28.5 -80t-9 -69q0 -37 16 -76.5t57 -87.5q-18 0 -50 2.5t-48 2.5q-61 80 -87 144t-23.5 127.5t30 133.5t74.5 160q39 76 86 150.5t95 148t94 146.5t83 147q27 53 53.5 94t48 74.5t36 64.5t18.5 64q-35 4 -73 6t-74 2q-102 0 -213 -19.5 t-219.5 -52.5t-209 -77t-184.5 -93q-37 -25 -78 -52.5t-75.5 -62t-57 -74.5t-24.5 -89l39 2z" />
<glyph unicode="L" horiz-adv-x="1382" d="M940 1798q-35 8 -90 21.5t-113.5 18.5t-110 -6t-77.5 -50q-29 -47 -23 -93.5t34 -87t70 -75.5t83 -60q94 -59 203.5 -95t226.5 -48q49 78 123.5 157t160.5 139t178.5 90t176.5 9q16 -6 41.5 -24.5t51.5 -43t46.5 -49t26.5 -38.5q16 -35 -1.5 -74t-39.5 -59 q-66 -59 -153 -98.5t-187 -61.5q-147 -31 -307 -31q-70 -109 -120 -237t-97.5 -261t-97.5 -266t-120 -252q104 -45 221 -105.5t240 -113.5t251 -86t257 -22q33 2 53.5 5t38 8t37 12t49.5 18l115 -115q-31 -10 -50.5 -18.5t-37 -12.5t-37.5 -7t-53 -5q-143 -10 -285.5 28.5 t-283 99t-278.5 129t-274 122.5q-25 -47 -73.5 -103.5t-112 -108.5t-137.5 -94t-148.5 -60.5t-143.5 -8.5t-122 63q-35 37 -77 75t-64 83q-23 53 -13.5 114.5t46.5 108.5q61 76 144 110t180.5 34t202.5 -25.5t214 -64.5q66 127 119 255t101 252.5t95.5 240.5t102.5 218 q-133 14 -256 56.5t-217 112t-153.5 166.5t-65.5 226q-4 80 43 110t115.5 32t140 -13.5t116.5 -25.5zM172 -78q143 18 268 92t203 191q-68 16 -146.5 25.5t-158.5 3t-153.5 -34t-127.5 -84.5q-29 -41 -36 -88t4 -97q37 -8 75.5 -10t71.5 2zM1831 1610q-68 0 -140.5 -25.5 t-141 -66.5t-129 -93.5t-103.5 -105.5q63 6 142 26.5t153 56.5t133 88t86 120z" />
<glyph unicode="M" horiz-adv-x="2304" d="M2236 635q2 -39 -26.5 -106.5t-62 -143.5t-62.5 -151.5t-29 -133.5q0 -57 21.5 -116.5t74.5 -128.5l-75 -23q-84 102 -124 188t-40 183q0 57 14.5 122.5t48.5 145.5q-104 -102 -211.5 -241.5t-228.5 -299.5q-6 -2 -27.5 21.5t-45 59.5t-41 74t-15.5 65q10 70 44 168 t80 212.5t97 238.5t96 247q-287 -225 -526.5 -510t-431.5 -623q-45 47 -66.5 73t-31.5 48q-18 35 -26.5 68.5t-8.5 68.5q0 47 39 143.5t96 211t122.5 232.5t120 211t86 146.5t21.5 36.5l94 154q-16 4 -32.5 6t-42.5 4q-102 6 -222 -14.5t-239 -59t-230.5 -93t-199.5 -115.5 q-94 -80 -111.5 -156t68.5 -172l-76 -25q-23 29 -47.5 57.5t-44 61.5t-31.5 67.5t-12 75.5q0 88 54 162t142 133.5t199 103.5t223.5 73.5t216 45t177.5 15.5q55 0 108 -9.5t96 -27.5q20 -12 50 -31.5t56.5 -44t45 -52.5t18.5 -58q0 -27 -13 -49.5t-32 -53.5 q-49 -80 -114.5 -186.5t-134 -220t-133 -229t-109.5 -214.5q88 127 202.5 270.5t234.5 271.5t231.5 226.5t195.5 137.5q27 12 55.5 -1.5t54 -39t45 -56t27.5 -51.5q14 -47 -6 -90h2l-246 -627q133 176 233.5 285t156.5 149q33 27 64.5 24t58 -22.5t49 -50t36.5 -61.5z" />
<glyph unicode="N" horiz-adv-x="1808" d="M1452 219q0 76 33 167t79 193.5t97 214t88 226.5q-78 -57 -152.5 -123t-144.5 -133q-33 -33 -72 -74t-78.5 -84t-78.5 -86t-72 -80q-47 -57 -97 -123.5t-99.5 -136t-94.5 -140.5t-82 -134q-53 53 -95 110.5t-42 141.5q0 86 41 168t84 155q106 193 195.5 348.5 t173.5 296.5l96 152q-78 20 -164 12t-172 -24q-72 -14 -159 -39t-175 -58.5t-169 -73.5t-142 -85q-43 -35 -71.5 -72t-38 -77t6 -83t60.5 -92l-80 -24q-23 27 -47.5 56.5t-44 61t-31.5 66.5t-12 76q0 72 34.5 127t89 98t118 74.5t120.5 56.5q61 27 141 56.5t168.5 54 t179.5 41t177 16.5q92 0 174 -27.5t152 -97.5q25 -27 36 -49.5t11 -45t-10.5 -46t-28.5 -54.5q-49 -80 -116 -184t-136.5 -216t-134 -224.5t-111.5 -210.5q59 84 132 175t151 181t158.5 175t158.5 156t147.5 123t127.5 77q37 16 73.5 -5.5t65 -60.5t41 -86t0.5 -82l2 2 q-74 -176 -125 -302t-86 -214t-55.5 -143.5t-30.5 -88t-13.5 -51t-3.5 -30.5q0 -53 21.5 -112.5t75.5 -129.5l-78 -22q-84 102 -125 187t-41 179z" />
<glyph unicode="O" horiz-adv-x="1603" d="M381 -25q-61 51 -98 91t-60.5 83.5t-36 93.5t-22.5 122q-84 80 -118 175t-25.5 195.5t52.5 199.5t113 185q66 82 156 155t194.5 127t218 86t224.5 32q109 0 213 -40t185 -113t130 -172t49 -216q0 -90 -26.5 -182t-69.5 -179q-49 -98 -122.5 -204.5t-165 -200.5t-196 -168 t-212.5 -106q-94 -31 -195.5 -27t-187.5 63zM647 870q-82 -51 -138 -101t-96 -104.5t-64.5 -116t-41.5 -134.5q80 2 156 27.5t147 60.5l123 -131q-86 -41 -170 -66.5t-162 -25.5q-53 0 -102 12v-4q0 -43 8 -85t26.5 -76t50.5 -55.5t81 -23.5q92 -6 185 25.5t181.5 88 t170 133.5t149.5 162t121 174t84 171q43 102 58.5 205.5t-10.5 187.5t-100.5 137t-213.5 53q-102 0 -216 -32.5t-223.5 -93t-207 -142.5t-165 -181t-99.5 -211t-11 -228q8 72 38 148.5t76 145t108.5 125t133.5 86.5z" />
<glyph unicode="P" horiz-adv-x="1792" d="M215 590q-104 53 -180 125.5t-106.5 157.5t-7 178.5t121.5 187.5q98 76 213 135.5t238.5 98t254 59t261.5 20.5q117 0 250 -29.5t246.5 -94t188 -167t74.5 -249.5q0 -102 -56 -182t-146 -140.5t-201 -104.5t-221.5 -77t-207.5 -55.5t-159 -38.5l-108 114 q-66 -135 -103 -286.5t-55 -337.5l-139 116q18 184 57 337t105.5 286t163 256t231.5 248l123 -129q-127 -117 -217.5 -229.5t-153.5 -237.5q72 14 170 33.5t203.5 48.5t209 69.5t184.5 98t131 134.5t50 179q0 100 -49 159.5t-125 90.5t-167 39t-175 10q-127 -2 -267 -21.5 t-276.5 -63.5t-258.5 -115.5t-210 -176.5q-29 -39 -45 -81t-15 -83t24.5 -78.5t72.5 -68.5z" />
<glyph unicode="Q" horiz-adv-x="1552" d="M188 -135q53 25 110.5 46t121.5 42q-68 47 -113 89t-73.5 89t-45 103.5t-24.5 130.5q-84 80 -118 175t-25.5 195.5t52.5 199.5t113 185q66 82 156 155t194.5 127t218 86t224.5 32q106 0 209.5 -39t185.5 -111t132 -171t50 -220q0 -90 -26.5 -182t-69.5 -179 q-37 -78 -90 -158.5t-117.5 -157.5t-138.5 -145.5t-153 -121.5q121 -8 219 -47t200 -121l6 -70q-49 37 -91 59.5t-86 35t-96 17.5t-122 5q-180 -4 -353 -50t-339 -116zM647 870q-74 -31 -129 -79t-96 -106t-68.5 -128t-46.5 -143q80 2 156 27.5t147 60.5l123 -131 q-49 -23 -101 -43.5t-106.5 -32.5t-112 -14t-114.5 10v-4q0 -43 8 -85t26.5 -76t50.5 -55.5t81 -23.5q92 -6 185 25.5t181.5 88t170 133.5t149.5 162t121 174t84 171q43 102 58.5 205.5t-10.5 187.5t-100.5 137t-213.5 53q-133 0 -263.5 -43t-246 -118.5t-212 -181 t-159.5 -228.5q-29 -72 -46.5 -156t5.5 -161q12 74 42 151.5t76 147t105.5 125t132.5 81.5z" />
<glyph unicode="R" horiz-adv-x="1921" d="M332 590q-61 31 -117.5 71.5t-99.5 91t-69 106.5t-26 116q0 94 49.5 171t129.5 137t181 105.5t204.5 77t200 51t167.5 27.5q94 12 195.5 11t201 -20t192.5 -60t175 -109q82 -70 124 -165t40 -192.5t-53 -185.5t-156 -143h2q-154 -115 -330 -169t-362 -83 q100 -109 178 -185.5t158 -129.5q86 -61 165 -65.5t152 87.5l144 -139q-59 -59 -107.5 -84t-99.5 -23t-108.5 29t-133.5 74q-78 55 -148.5 119.5t-137 133t-130 140.5t-127.5 143q-66 -135 -103.5 -286.5t-55.5 -337.5l-138 116q18 184 57.5 337t105 286t162.5 256t233 248 l120 -129q-123 -113 -211 -223.5t-151 -231.5q125 14 239.5 38t218 59.5t194.5 88t169 123.5q139 127 113 314q-12 82 -76 127t-148.5 67.5t-176 27.5t-158.5 5q-94 -2 -188.5 -16.5t-188.5 -36.5q-76 -20 -158 -49t-160.5 -69t-148.5 -91t-119 -115q-29 -41 -46 -84 t-16 -84t24.5 -77.5t76.5 -65.5z" />
<glyph unicode="S" horiz-adv-x="1126" d="M631 696q55 59 123.5 143.5t128 177.5t102.5 189.5t47 182.5q-2 0 -4 2q-37 8 -76 3t-75.5 -19.5t-73.5 -33t-70 -36.5q-66 -35 -143.5 -86.5t-155.5 -109.5t-148.5 -119.5t-121.5 -117.5h2q-14 -18 -33.5 -45.5t-36 -58.5t-25 -61.5t0.5 -55.5q29 -43 101.5 -75.5 t163.5 -62.5t187.5 -61.5t175 -72.5t124.5 -97.5t36 -134.5q-4 -35 -23.5 -61.5t-47 -46t-58.5 -33.5t-59 -26q-37 -16 -81 -36t-90 -33t-91 -17.5t-88 12.5q-55 25 -108.5 66.5t-80.5 92t-13.5 100.5t93.5 91l119 -125q-33 -23 -57.5 -45.5t-24.5 -44.5q45 -4 95 3 t98.5 21.5t94.5 35t87 42.5q6 2 25.5 16.5t40 32t32.5 35t2 27.5q-55 31 -126 58.5t-136 54.5q-72 29 -148.5 61.5t-152.5 75.5q-35 20 -75 48t-75 62.5t-58.5 75.5t-23.5 90q0 59 35 120t76 101q170 168 369.5 309.5t429.5 221.5q86 12 157.5 -22.5t120.5 -100.5 q23 -35 36 -65.5t15 -61.5t-6 -65.5t-26 -77.5q-66 -158 -162 -302.5t-219 -271.5z" />
<glyph unicode="T" horiz-adv-x="909" d="M2105 1325q-63 -29 -122.5 -40t-118.5 -11q-92 0 -182.5 18.5t-180.5 42t-180 43t-182 23.5q-92 -162 -191.5 -332t-175.5 -356.5t-110.5 -392t2.5 -435.5l-142 109q-14 92 -19 173t1 160t23.5 161.5t47.5 179.5l-4 2q-6 113 -40.5 190.5t-89 130.5t-125 88t-148.5 64h2 q-68 29 -110 81t-21 128q186 102 389 147t412 45q123 0 231.5 -10t218 -28.5t225 -43t250.5 -51.5q53 -10 108.5 4.5t111.5 40.5zM629 815q66 154 147.5 304.5t165.5 289.5q-94 -6 -205.5 -20.5t-218 -37t-197 -52t-139.5 -64.5q150 -70 262.5 -165t184.5 -255z" />
<glyph unicode="U" horiz-adv-x="1996" d="M121 688q-35 57 -60.5 113.5t-31.5 114t10 113.5t70 114q55 61 134 108t162.5 84t165.5 61.5t144 41.5q53 14 113.5 28.5t123 20.5t124 1t116.5 -30q33 -16 68.5 -49t70.5 -76q23 -27 31 -48t8 -38q0 -31 -20.5 -53.5t-51.5 -50.5q-78 -68 -164.5 -163t-166.5 -203.5 t-144.5 -225.5t-97.5 -223q-23 -68 -26 -142.5t26 -148.5q33 -4 67.5 10t66.5 38t60.5 50.5t51.5 48.5q74 70 142.5 141.5t137 148.5t139 157t148.5 166q20 25 49 51t59.5 50t62.5 37t60 9q20 -4 46 -20.5t49.5 -39t40 -49t16.5 -51.5q0 -41 -24.5 -79.5t-47.5 -71.5 q-106 -147 -178 -266t-94 -240q-8 -55 -1 -104.5t54 -92.5l6 -102q-59 53 -102 100t-80 107q-37 68 -24.5 152.5t50.5 171.5t88 167t85 140q-78 -68 -145.5 -145t-133 -157.5t-133 -160.5t-145.5 -152q-33 -31 -76 -67.5t-92 -59t-100.5 -24.5t-100.5 34q-86 66 -126 153 t-40 179q0 150 66.5 298.5t167 286.5t215 263t213.5 225q-47 6 -143.5 0t-214 -29.5t-242.5 -62.5t-227.5 -97t-168 -135t-65.5 -175q0 -63 34.5 -120.5t65.5 -111.5z" />
<glyph unicode="V" horiz-adv-x="1957" d="M872 139q-41 150 -28.5 305.5t59.5 311t119 304t152 283.5q-129 8 -260.5 -22.5t-254.5 -71.5q-63 -20 -149 -57t-164 -89t-132 -117.5t-54 -145.5q0 -63 33.5 -120.5t64.5 -111.5l-139 80q-35 57 -60.5 113.5t-33 114t9 113.5t69.5 114q72 78 181.5 138t234.5 103 t252 69t236 34q59 2 126.5 -15.5t116.5 -53.5t66.5 -89t-23.5 -121q-137 -221 -223 -457.5t-86 -514.5q0 -59 7 -114.5t30 -92.5q61 -16 111.5 14.5t97.5 77.5q104 111 190 220.5t166 222t159 232t169 255.5q31 49 63.5 112.5t32.5 126.5q0 47 -30.5 85t-90.5 85l-6 99 q41 -33 87 -72t86 -84t65.5 -96.5t25.5 -106.5q0 -74 -31.5 -142.5t-70.5 -127.5q-141 -219 -300 -435t-329 -442q-80 -80 -123 -118.5t-84 -45.5q-57 -12 -110 7.5t-98.5 56.5t-79.5 86t-50 100z" />
<glyph unicode="W" horiz-adv-x="2527" d="M1272 1368q-2 0 -2 -2q14 -25 15 -46.5t-6 -40.5t-18.5 -37.5t-21.5 -33.5q-74 -96 -148.5 -196.5t-144 -206t-130 -216t-105.5 -224.5q86 96 177 188t188.5 177t203.5 160t227 136q10 6 24.5 14.5t31 12.5t35 1t36.5 -18q45 -39 70 -64.5t33 -47t4 -40t-15 -40.5 q-43 -94 -86 -201.5t-61 -221.5t-3 -228.5t87 -223.5q80 27 172 106t179 194.5t160 259t114 296t44 306t-51 290.5l123 -18q70 -74 87.5 -208t-11.5 -295t-97.5 -332t-170 -319.5t-228 -258t-272.5 -146.5q-49 -12 -90 11.5t-72.5 69.5t-56.5 109.5t-40 130t-23.5 130 t-8.5 111.5q0 117 33 227t86 221q-96 -55 -217 -150.5t-241.5 -215t-228.5 -255t-177 -270.5q-27 6 -59.5 25.5t-62.5 47t-47.5 60.5t-12.5 68q37 162 98 318.5t140 306t171 290t191 269.5q-59 -10 -152.5 -25.5t-198 -40.5t-209 -60.5t-189.5 -88t-138 -121t-53 -158.5 q0 -59 33.5 -115.5t64.5 -109.5l-137 80q-33 55 -58.5 110t-33 110.5t10 111t68.5 110.5q70 76 176.5 135.5t228.5 101.5t246 66.5t230 32.5q74 10 152.5 -17.5t128.5 -93.5q2 -4 3 -4t5 -4z" />
<glyph unicode="X" horiz-adv-x="2164" d="M567 -172q-43 18 -96 48t-99 70t-76 85t-28 94q6 98 86 191.5t199 173t257 141t259 98.5q14 84 43 168t65.5 165t78.5 161t83 155q-100 25 -205.5 16.5t-220.5 -34.5q-164 -41 -329.5 -111.5t-307.5 -165.5q-27 -20 -52 -46.5t-43.5 -58.5t-29 -66.5t-6.5 -73.5 q2 -8 9.5 -22.5t16.5 -31t19.5 -32t20.5 -25.5l-74 -8q-74 74 -102.5 147.5t-17 144t60.5 134t131 115.5q59 37 136 73.5t163 70.5t176 61.5t176 45.5q133 27 270.5 18t260.5 -95q72 -47 93 -105.5t-28 -134.5q-57 -94 -111.5 -193.5t-78.5 -212.5q168 49 328.5 107.5 t301.5 159.5q29 18 77 55t93 83t73 95t15 92l-63 50l-45 112q98 -59 164 -119q80 -74 94 -146.5t-66 -162.5q-57 -70 -128.5 -127t-152.5 -104t-167 -87t-172 -73q-25 -8 -50.5 -16.5t-58 -18.5t-75.5 -23.5t-101 -29.5l-90 -29q-6 -100 0 -203.5t28.5 -188.5t60.5 -136 t98 -47q45 4 97 42t101 87t92 97t68 75l135 -129q-31 -33 -78 -85t-101 -101.5t-111.5 -84t-112.5 -34.5q-43 0 -100.5 16t-116.5 59q-66 47 -114 102.5t-79 123t-45 151.5t-12 193q-80 -29 -154 -61.5t-144.5 -76t-139 -97.5t-138.5 -124q-14 -25 -33.5 -55.5t-26.5 -61 t4 -59t58 -47.5z" />
<glyph unicode="Y" horiz-adv-x="1933" d="M1769 764q29 -31 33 -65.5t-12 -88.5q-41 -123 -91 -255t-110 -244q35 10 68 23t67 28l95 -150q-47 -18 -87 -32.5t-80 -26.5t-81 -23.5t-90 -23.5q-37 -80 -86 -156t-112.5 -139.5t-143.5 -108.5t-174 -63q-47 -6 -91.5 8t-79 42t-56 68t-21.5 85q0 63 37 116.5t92 96.5 t120.5 73.5t125.5 48.5l254 64q53 74 95 153.5t76.5 162.5t66.5 167t67 168l-4 -4q-86 -82 -139.5 -133t-89.5 -88t-64.5 -65.5l-66.5 -66.5t-94 -92.5t-149 -140.5q-35 -31 -77.5 -66.5t-91 -58t-99.5 -24.5t-100 35q-86 66 -126 152.5t-40 178.5q0 150 74.5 290.5 t184.5 269.5t232.5 244.5t221.5 215.5q-63 0 -162.5 -10t-211.5 -32.5t-227.5 -59.5t-213 -92t-164 -131t-82.5 -174q-6 -31 3 -60.5t25.5 -59.5t36 -57.5t35.5 -54.5l-141 80q-35 57 -60.5 113.5t-31.5 114t10 113.5t70 114q72 78 181 138t234 103t252 69t236 34 q104 6 180 -29q33 -16 68.5 -49t70.5 -76q45 -53 33 -96t-66 -94q-78 -68 -173 -155t-184 -186.5t-162.5 -207t-106.5 -213.5q-23 -68 -26 -143.5t26 -147.5q33 -4 67.5 10.5t66.5 37t60.5 49t53.5 49.5q35 35 91 92t123.5 122.5t141.5 133t144.5 123t133 90t107.5 37.5 q23 2 53 -20.5t55 -49.5zM852 -430q53 2 107.5 29.5t104.5 68.5t93 89t74 91q-72 -20 -123 -41.5t-93 -51t-80 -73.5t-83 -112z" />
<glyph unicode="Z" horiz-adv-x="1347" d="M160 1397q86 -43 171 -50.5t187 3.5q96 10 192.5 27.5t192.5 36t194.5 32.5t200.5 20q96 4 169 -46t114 -138q16 -47 -5.5 -76.5t-49.5 -52.5q-119 -88 -255 -197.5t-274.5 -225.5t-267.5 -226.5t-231 -198.5l-197 -176q174 84 366.5 99.5t383.5 -35.5h-2 q16 -4 31.5 -11.5t31.5 -13.5l33 -18l76 -134q-119 49 -230.5 65.5t-221.5 7.5t-218.5 -45t-218.5 -91q-23 -14 -48.5 -29.5t-47.5 -17.5q-25 0 -62 27.5t-68.5 66.5t-48 82t1.5 72q-2 -2 7.5 5t49.5 43t121.5 109.5t227.5 202.5q45 43 116.5 104.5t159.5 133t185.5 150.5 t191.5 156t179 146.5t149 124.5q-115 0 -225.5 -20.5t-222 -44t-224 -44t-229.5 -20.5q-78 0 -155 13.5t-154 48.5z" />
<glyph unicode="[" />
<glyph unicode="\" />
<glyph unicode="]" />
<glyph unicode="^" />
<glyph unicode="_" />
<glyph unicode="`" />
<glyph unicode="a" horiz-adv-x="729" d="M469 614q-37 10 -70.5 11.5t-72.5 -9.5q-61 -18 -124 -72.5t-111 -125t-73.5 -147t-13.5 -144.5q68 8 127 61.5t108.5 126t87.5 152.5t66 139l119 -110q-10 -80 -25.5 -154t-15.5 -152q20 12 47 47t54.5 82.5t58.5 101.5t61 105l117 -108q-10 -25 -31.5 -70t-49.5 -96 t-62.5 -99.5t-73.5 -78t-80 -31.5t-82 39q-57 51 -74 125q-25 -35 -57.5 -77t-72.5 -72.5t-85 -44t-94 6.5q-51 23 -95 74t-63 107q-25 70 -4 154.5t71 162.5t119.5 137.5t141.5 79.5q43 12 81 10t79 -12z" />
<glyph unicode="b" horiz-adv-x="665" d="M438 1147q-53 -100 -104 -204.5t-98 -209.5q41 10 78.5 7t70.5 -27q16 -12 37.5 -29.5t41 -38t34 -43t16.5 -47.5q8 -66 -7 -137.5t-48 -138.5q41 41 82 101t92 146l115 -112q-53 -113 -111.5 -187.5t-125.5 -120t-143.5 -63.5t-164.5 -14q-78 -16 -149.5 22.5 t-114.5 116.5q-18 33 -24.5 72t-4.5 78.5t11 79.5t20 75q41 125 102 256t120.5 242.5t104.5 189.5t54 96zM145 532q-4 -10 -6 -17t-6 -15q-35 -78 -64.5 -169t-33.5 -179q84 -4 151.5 40t113.5 114.5t71.5 154.5t25.5 157q-66 0 -124 -29.5t-103 -76.5z" />
<glyph unicode="c" horiz-adv-x="561" d="M244 514q29 27 56.5 55.5t43.5 63.5q6 16 -5 16t-32 -8q-27 -10 -59.5 -33.5t-46.5 -34.5q-33 -31 -64 -76.5t-54.5 -100t-36.5 -112t-11 -110.5q2 -41 16.5 -49t52.5 -12q47 -4 97.5 13t81.5 42q41 33 72.5 75t60 90t55.5 97t57 96l119 -112q-29 -49 -67.5 -118 t-86 -132.5t-104.5 -109.5t-125 -50q-72 -4 -132 15.5t-107.5 59.5t-77 96t-37.5 124q-8 66 13.5 135.5t49.5 124.5q20 37 49 73t64 64.5t76 47t84 22.5t87 -12.5t77.5 -47t52 -71.5t10.5 -86q-8 -47 -46 -85t-71 -67z" />
<glyph unicode="d" horiz-adv-x="720" d="M406 692q29 74 63.5 146.5t71.5 144.5t70.5 141.5t58.5 137.5l118 -111q-31 -80 -85 -188.5t-106 -234.5t-91 -263t-39 -275q20 12 47 47t55.5 82.5t59 101.5t61.5 105l117 -112q-16 -25 -41 -70t-53.5 -95t-61.5 -98.5t-69.5 -77t-75.5 -30.5t-80 39q-23 35 -39 67.5 t-27 67.5l-4 -8q-25 -35 -58.5 -77t-73.5 -73.5t-85 -46t-94 7.5q-53 23 -96 74t-64 107q-25 70 -4 154.5t71 162.5t120.5 137.5t142.5 79.5q41 12 79 10t79 -12zM2 127q66 8 127 64.5t112.5 132t87.5 158.5t52 143q-14 0 -28.5 -2t-28.5 -7q-61 -18 -124 -72.5t-111 -125 t-73.5 -147t-13.5 -144.5z" />
<glyph unicode="e" horiz-adv-x="557" d="M61 287q-16 -59 -21 -102.5t-1 -53.5q25 -16 55.5 -17t61 7t59.5 22.5t51 30.5q45 31 80 73t64.5 88t56.5 95t57 96l115 -112q-33 -63 -63.5 -125t-68.5 -116t-86 -95t-114 -62q-47 -20 -91 -20t-84 14.5t-76 41t-68 61.5q-29 33 -49.5 71.5t-26.5 81.5q-8 59 5 121 t41 119t68 107.5t87 86.5q92 72 167.5 55.5t149.5 -96.5q37 -45 33 -106q-6 -43 -36 -83t-58 -69q-66 -72 -131.5 -116.5t-137.5 -73.5zM324 635q-49 -12 -87 -41t-68 -69t-51.5 -87t-39.5 -96q33 25 71.5 57.5t74.5 70.5t63 80t37 85z" />
<glyph unicode="f" horiz-adv-x="466" d="M436 1157q-53 -104 -110.5 -221t-115.5 -242t-111.5 -254t-96.5 -260q45 -2 91 12.5t90 40t82 59.5t67 68q23 29 43 64t43 72l114 -117q-35 -59 -69.5 -114.5t-100.5 -96.5q-61 -39 -130.5 -57.5t-135.5 -14.5q88 -61 108.5 -145t-2 -167t-75.5 -156.5t-115 -112.5 q-25 -16 -59.5 -15.5t-61.5 21.5q-51 39 -78.5 76.5t-38 79.5t-8 89.5t12.5 108.5q20 168 75.5 349.5t130 361.5t161.5 354t171 328zM-111 -371q80 25 123 83.5t54.5 132t-9 153.5t-67.5 147q-41 -133 -69 -263t-32 -253z" />
<glyph unicode="g" horiz-adv-x="669" d="M473 614q-37 10 -70.5 11.5t-70.5 -9.5q-61 -18 -124 -72.5t-111 -125t-73.5 -147t-13.5 -144.5q68 8 127.5 61.5t107.5 126t86 152.5t66 139l121 -110q-35 -84 -57.5 -161t-42.5 -153q47 63 101 151.5t116 190.5l117 -108q-35 -70 -65 -124t-59.5 -101.5t-64.5 -88.5 t-78 -84q-33 -33 -66.5 -57t-70.5 -47q-29 -104 -69.5 -204.5t-110.5 -205.5q-31 -47 -80 -87t-108 -40q-41 0 -81 28t-69 69t-41 89t2 89q23 70 70 121t106.5 92t129 75.5t136.5 71.5l25 68q-45 -41 -97 -62.5t-108 2.5q-53 23 -96 74t-63 107q-25 70 -4.5 154.5 t70.5 162.5t121 137.5t142 79.5q41 12 79 10t79 -12zM-98 -498q53 2 89 30t62.5 70t47 93t42.5 104q-37 -25 -77.5 -55.5t-76.5 -67t-59.5 -81t-27.5 -93.5z" />
<glyph unicode="h" horiz-adv-x="700" d="M451 381q-29 -78 -45.5 -126t-20.5 -95q35 4 78 52t84 109.5t73.5 121t47.5 83.5l118 -112q-10 -16 -37.5 -62.5t-60.5 -99.5t-64.5 -100.5t-45.5 -61.5q-27 -25 -55.5 -42t-59.5 -21t-63.5 8t-65.5 47q-16 18 -40 46t-28 56q-10 53 1.5 108.5t30.5 110t38.5 107.5 t25.5 102q-16 -4 -30.5 -11t-30.5 -15q-55 -29 -106.5 -66t-98.5 -78q-31 -102 -55.5 -206.5t-44.5 -208.5l-123 102q63 311 166.5 612t275.5 566l119 -111q-80 -123 -144.5 -254t-115.5 -268q35 27 70 44t70.5 18t70.5 -17.5t70 -63.5q18 -29 31.5 -56.5t15.5 -59.5 q0 -23 -17.5 -70t-33.5 -88z" />
<glyph unicode="i" horiz-adv-x="346" d="M233 692q-59 -92 -104 -190.5t-80 -202.5q-10 -31 -25.5 -70t-13.5 -73q68 51 114 99t80 94t58.5 90t52.5 87l113 -112q-23 -49 -42 -85t-38.5 -66t-39 -56.5t-44.5 -56.5q-45 -57 -85 -87t-79 -30t-78.5 29.5t-84.5 89.5q-43 61 -36 150t43 183.5t85 180.5t88 139z M334 924q-16 -33 -39 -87.5t-37 -88.5l-119 110q8 16 17.5 40t20.5 49.5t21.5 49t18.5 39.5z" />
<glyph unicode="j" horiz-adv-x="292" d="M178 668q-49 -121 -86 -252t-72 -266q49 63 113 161.5t127 212.5l121 -108q-41 -68 -71.5 -123t-60.5 -102.5t-62.5 -88.5t-75.5 -84q-37 -35 -78 -63.5t-86 -52.5q-35 -109 -78 -209.5t-102 -188.5q-31 -47 -80 -87t-109 -40q-27 0 -53.5 13.5t-44.5 31.5 q-53 49 -84 102.5t-6 127.5q23 70 68.5 121t104 91t122 71.5t122.5 64.5l25 12q27 94 48.5 194.5t45 201t54 199t77.5 188.5zM279 924q-16 -33 -39 -87.5t-39 -88.5l-117 110q16 33 37.5 89.5t38.5 88.5zM-500 -498q53 2 89 30t62.5 70t48 93t46.5 102q-41 -20 -82 -51 t-77 -68.5t-59.5 -82t-27.5 -93.5z" />
<glyph unicode="k" horiz-adv-x="724" d="M432 1196q-162 -250 -264 -537q37 25 78 42.5t86 23.5q31 4 63.5 -11.5t50.5 -37.5q31 -31 60 -67t35 -81q4 -41 -12.5 -80.5t-44 -74.5t-61.5 -61.5t-67 -41.5q-45 -23 -87 -32t-89 -15q33 -23 67 -42t75 -34q29 -10 49 -10t36.5 7.5t33 21.5t36.5 35q70 74 115 154.5 t100 170.5l119 -112q-31 -49 -58.5 -100.5t-58 -98.5t-66.5 -90t-83 -76q-76 -53 -146.5 -45t-135 48t-120 97.5t-98.5 104.5q-14 -57 -27.5 -113.5t-23.5 -113.5l-121 102q63 313 165.5 612t276.5 566zM98 451q-10 -29 -17 -56.5t-15 -56.5q76 12 146.5 36.5t127.5 78.5 q63 61 80 149q-35 -6 -70 -20q-63 -29 -114.5 -73t-96.5 -97z" />
<glyph unicode="l" horiz-adv-x="364" d="M41 66q-61 43 -87 111.5t-24 153.5t26 179t59.5 189.5t77.5 185.5t81 165.5t69.5 131t43.5 80.5l119 -111q-18 -29 -52.5 -92.5t-73 -147.5t-77.5 -184t-69 -202.5t-44 -201t-4 -180.5q20 12 51 55.5t63.5 98.5t67.5 116.5t66 112.5l119 -112q-18 -25 -42 -69t-53.5 -94 t-64.5 -98.5t-75 -79t-84 -36.5t-93 29z" />
<glyph unicode="m" horiz-adv-x="1069" d="M-12 -4l-6 8l-115 96q29 186 84 364.5t131 352.5l119 -110q-31 -68 -57.5 -136.5t-49.5 -140.5q33 47 69 99.5t72.5 101.5t74.5 92t79 72q25 12 52.5 6t52 -23.5t40 -45t13.5 -58.5q-8 -51 -18.5 -94t-22.5 -82q27 37 52.5 72.5t51.5 72.5q31 39 69 84t87 64 q8 2 29.5 -1.5t48 -13.5t50.5 -26.5t36 -40.5q16 -33 15 -71t-11 -78t-25.5 -78t-27.5 -68q-25 -63 -62 -135t-61 -138q49 29 80 64q63 72 106 158t94 163l117 -112q-27 -39 -50.5 -80t-48 -83t-52 -81t-60.5 -72q-18 -18 -46 -37.5t-59.5 -32t-62.5 -14.5t-55 13 q-31 18 -67 43.5t-40 54.5q-4 39 12.5 92t39 108.5t47 106.5t41.5 88q6 16 20 45t23 56q-23 -27 -47.5 -53.5t-44.5 -55.5l-267 -369q-23 -35 -44 -70.5t-46 -68.5l-47 43l-72 64q35 127 74 235.5t70 224.5q-51 -55 -105.5 -126.5t-105.5 -148.5t-96.5 -153.5t-75.5 -146.5 h-2z" />
<glyph unicode="n" horiz-adv-x="704" d="M-20 -4l-123 104q29 186 84 364.5t131 352.5l118 -110q-35 -76 -63.5 -152t-52.5 -152q43 59 86 120t86 120q29 39 66.5 84t86.5 64q8 2 31 -1.5t49.5 -13.5t50 -26.5t33.5 -40.5q18 -33 17.5 -71t-12 -78t-27 -78t-27.5 -68q-25 -63 -60.5 -135t-62.5 -138 q23 14 45.5 30.5t34.5 33.5q63 72 107.5 158t95.5 163l117 -112q-27 -39 -49.5 -80t-46 -82t-50.5 -80t-61 -74q-18 -18 -47 -37.5t-61 -32t-63.5 -14.5t-56.5 13q-31 18 -67.5 43.5t-38.5 54.5q-4 39 12.5 92t39 108.5t47 106.5t40.5 88q6 16 20.5 45t20.5 56 q-23 -27 -47.5 -53.5t-42.5 -55.5l-266 -369q-23 -35 -46.5 -72.5t-47.5 -70.5v-4z" />
<glyph unicode="o" horiz-adv-x="653" d="M-121 307q4 59 27.5 110.5t58.5 94.5q10 59 39 109q12 23 31.5 50t42.5 44q25 18 44 29.5t50 21.5q59 18 113.5 1t97.5 -55t70.5 -91.5t33.5 -108.5q12 -102 -24 -211l16 14q59 59 90 119t54 92l114 -112q-27 -47 -54.5 -95.5t-60 -91.5t-72.5 -77.5t-91 -55.5 q-29 -12 -61.5 -15t-65.5 1q-37 -41 -86 -70q-59 -37 -118.5 -27.5t-109 46.5t-86 92t-51.5 112q-4 18 -4 37t2 37zM119 242q27 -18 54.5 -25.5t53.5 -11.5q35 41 67 97t52.5 116.5t25.5 122t-14 110.5q-57 6 -107 -15.5t-85 -62.5l57 -61q-39 -20 -73.5 -48t-63.5 -61 q-6 -41 2 -83.5t31 -77.5zM160 143q-88 55 -144 144q-14 -43 -16 -89t12 -94q39 -12 77 1t71 38z" />
<glyph unicode="p" horiz-adv-x="669" d="M168 6q-78 -4 -148 64q-23 20 -40 41q-33 -111 -49.5 -231t-14.5 -255l-129 109q-2 156 19.5 291t62.5 262t98.5 252t128.5 260l97 -82q49 25 85.5 33t70.5 -0.5t64.5 -33t67.5 -61.5q35 -35 44.5 -88t2.5 -98q-6 -41 -23.5 -90t-41.5 -100q41 41 82 101t92 146l119 -112 q-117 -225 -262.5 -321.5t-325.5 -88.5v2zM137 514q-39 -80 -71.5 -157.5t-61.5 -155.5q6 -18 13.5 -38t17.5 -36q55 -12 110.5 24.5t102.5 94t82 122t51 109.5q12 33 19.5 70t9.5 86q-37 -2 -74 -17q-51 -23 -95 -54.5t-85 -65.5z" />
<glyph unicode="q" horiz-adv-x="663" d="M475 614q-94 33 -181 -7t-152.5 -118.5t-102.5 -178t-27 -183.5q68 8 126.5 61.5t107.5 126t87 152.5t66 139l119 -110l-4 -9l2 -2q-29 -86 -49.5 -160.5t-38.5 -148.5q51 80 94 164t96 164l121 -101q-47 -86 -94 -179t-100 -183q25 -66 26.5 -144.5t-15.5 -156.5 t-54 -148.5t-88 -119.5q-25 -25 -62 -16t-65 30q-57 43 -84 85t-33 88t4 98.5t29 115.5q16 55 29.5 105.5t25.5 99.5q-43 -41 -95 -61.5t-110 3.5q-51 23 -94 74t-63 107q-20 57 -10 124.5t42.5 135t83.5 126t112.5 99.5t128 55.5t130.5 -8.5zM381 -305q49 102 66.5 209.5 t-33.5 212.5q-14 -59 -35 -126t-39 -136.5t-32.5 -138t-16.5 -130.5q14 4 28.5 17.5t25.5 30t20.5 33t15.5 28.5z" />
<glyph unicode="r" horiz-adv-x="585" d="M-102 401q39 72 89 159t101 181q-18 72 9.5 126.5t72.5 84t95 33.5t77 -19.5t16.5 -80t-84.5 -146.5q27 -14 39.5 -26.5t21.5 -29.5t20.5 -43t33.5 -67q25 -43 15.5 -97t-33 -109.5t-50 -107.5t-38.5 -91q49 25 89 72t72.5 99t60 103.5t50.5 83.5l119 -112 q-10 -12 -26.5 -44t-40 -74t-51.5 -87t-58 -82q-29 -37 -62 -62.5t-66.5 -38t-67.5 -7t-60 33.5q-18 18 -36 37t-34 37q-20 25 -19 64.5t14 87t33.5 97.5t40 95t32 80t8.5 51l-35 17.5t-37 15.5q-12 -23 -23.5 -43.5t-21.5 -38.5q-35 -66 -71 -126t-77 -130z" />
<glyph unicode="s" horiz-adv-x="638" d="M-70 463q82 137 133.5 213t88 113.5t67.5 51t72 27.5q104 -23 142 -38t36 -15q-18 -12 -40.5 -30.5t-43 -40t-36 -47t-21.5 -54.5q-10 -49 -2 -97t22 -94t29.5 -90.5t19.5 -82.5q41 23 77 55.5t63 79.5q12 18 32.5 54t36.5 58l115 -112q-57 -131 -142 -202t-208 -99 q-27 -47 -81 -77t-116.5 -38t-122 8.5t-96.5 63.5q-6 6 -23.5 25.5t-32 42t-18.5 44t17 31.5q33 18 79 16t93 -8t93 -8t79 16q0 43 -11.5 83t-27 81t-27.5 85t-14 93q-29 -49 -55.5 -105t-57.5 -118z" />
<glyph unicode="t" horiz-adv-x="368" d="M20 1055q47 0 85 -1t73 -3q41 76 71 130t42 81l119 -111q-10 -16 -25.5 -42t-32.5 -60q4 0 10.5 1t12.5 1l18 -121q-33 -2 -56.5 -3t-45.5 -1q-39 -84 -79 -185.5t-70.5 -206t-46 -206t-3.5 -185.5q20 12 50 55.5t64 98.5t67.5 116.5t64.5 112.5l117 -110 q-14 -27 -37 -73t-51.5 -96t-64.5 -97.5t-77 -77t-86 -35.5t-94 29q-82 55 -100.5 154t2 219t68.5 247t104 242h-33z" />
<glyph unicode="u" horiz-adv-x="714" d="M203 694q-16 -49 -45 -119.5t-54.5 -146.5t-40 -150.5t-2.5 -132.5q25 0 57 21.5t64.5 57.5t61 83t47.5 99q14 53 36.5 109t49 108.5t55.5 98.5t55 83l119 -113q-59 -92 -109.5 -191.5t-86.5 -213.5q-10 -33 -19.5 -65t-9.5 -66q68 51 115 99t80.5 94t58 90t49.5 87 l117 -112q-41 -72 -79 -137.5t-87 -126.5q-88 -117 -162 -118t-166 120q-8 12 -10 18q-61 -80 -133 -106.5t-129 -14.5q-53 10 -89 55.5t-42 133.5q0 78 16.5 148.5t40 139t52 137t55.5 142.5z" />
<glyph unicode="v" horiz-adv-x="612" d="M367 295q-10 -45 -44 -93t-81 -85t-102.5 -57.5t-106.5 -10.5q-53 10 -89 55.5t-42 133.5q2 78 17 148.5t40 139t52.5 137t54.5 142.5l135 -111q-16 -49 -45 -119.5t-53.5 -146.5t-39 -150.5t-2.5 -132.5q23 0 51.5 18.5t59.5 51.5t58.5 75t48.5 89q10 33 22 61 q-12 59 -7 121t21 121q2 12 9.5 31.5t17.5 42t22.5 43t26.5 32.5q16 16 32.5 12.5t35.5 -20.5q27 -23 47 -54.5t24 -51.5q6 -37 -3 -81t-28.5 -90t-45 -93t-47.5 -88q8 -16 16 -25q18 -6 37.5 11.5t40 47t41 65.5t41.5 64l114 -112q-29 -61 -60.5 -118.5t-72.5 -96.5 q-23 -23 -51.5 -18t-57 23.5t-52 44.5t-35.5 44z" />
<glyph unicode="w" horiz-adv-x="974" d="M205 694q-16 -49 -45 -119.5t-54.5 -146.5t-40 -150.5t-2.5 -132.5q23 0 51.5 18.5t57.5 49.5t56.5 72t47.5 86q23 113 67 215t85 219l135 -111q-16 -49 -45 -119.5t-54.5 -146.5t-39.5 -150.5t-2 -132.5q23 0 52.5 18.5t59 51.5t58.5 75t49 89q10 33 23 61 q-12 59 -7 121t21 121q2 12 9 31.5t17.5 42t22.5 43t27 32.5q16 16 32.5 12.5t34.5 -20.5q27 -23 47.5 -54.5t24.5 -51.5q6 -37 -3 -81t-29.5 -90t-45 -93t-49.5 -88q4 -6 8 -12.5t8 -12.5q18 -6 39 11.5t41.5 47t41 65.5t40.5 64l113 -112q-29 -61 -59.5 -118.5 t-71.5 -96.5q-23 -23 -52.5 -18t-58.5 23.5t-52.5 44t-33.5 44.5q-10 -45 -44 -93t-81 -85t-102.5 -57.5t-106.5 -10.5q-80 16 -112 101q-61 -66 -127 -88.5t-119 -12.5t-89 55.5t-42 133.5q0 78 16.5 148.5t40 139t52 137t55.5 142.5z" />
<glyph unicode="x" horiz-adv-x="724" d="M-78 444q33 57 71 125t75.5 123.5t70.5 86t56 12.5q29 -20 59.5 -47t52.5 -52q10 -12 16.5 -33.5t9.5 -44t4 -46t3 -40.5v-4q80 90 129 151.5t84 123.5l117 -111q-53 -102 -133 -190t-166 -181q8 -41 17 -82.5t22 -82.5q43 14 82.5 58t75.5 99.5t67 113.5t57 103 l119 -112q-53 -98 -105.5 -191.5t-127.5 -154.5q-35 -31 -80 -41.5t-86 22.5q-53 43 -78 86t-41 101q-55 -61 -93 -105.5t-64.5 -76t-43 -55.5t-31.5 -48l-116 110q55 104 138 190.5t167 174.5q0 4 -1 11t-4 26.5t-10.5 57.5t-19.5 104q-10 -12 -17.5 -23.5t-17.5 -23.5 q-41 -57 -73.5 -122t-67.5 -122z" />
<glyph unicode="y" horiz-adv-x="669" d="M203 694q-16 -49 -45 -119.5t-54.5 -146.5t-40 -150.5t-2.5 -132.5q25 0 61 20.5t75 54.5t73.5 78t55.5 93q31 104 64.5 204.5t68.5 190.5l119 -110q-37 -106 -69 -223t-63 -238q43 63 92.5 141t98.5 168l121 -108q-41 -68 -72 -123t-60.5 -102.5t-62.5 -88.5t-76 -84 q-31 -29 -62.5 -53t-66.5 -47q-37 -115 -82 -218t-104 -196q-31 -47 -81 -87t-109 -40q-27 0 -53.5 13.5t-45.5 31.5q-51 49 -82.5 102.5t-7.5 127.5q25 70 70 120t102.5 90t121 72.5t122.5 63.5l29 94q-55 -33 -108.5 -43t-94.5 0q-53 10 -89 55.5t-42 133.5 q0 78 16.5 148.5t40 139t52 137t55.5 142.5zM-94 -498q51 2 87 30t62.5 70t46 93t41.5 102q-35 -25 -75.5 -54.5t-75.5 -66t-59.5 -80t-26.5 -94.5z" />
<glyph unicode="z" horiz-adv-x="714" d="M-94 430q20 37 44.5 82t53.5 90q27 43 56.5 78t68.5 55q27 12 63.5 17.5t76.5 4.5t78 -5t65 -11q25 -6 50 -22.5t46.5 -39t37 -49t15.5 -52.5q0 -27 -17.5 -53.5t-31.5 -45.5q-45 -59 -95 -109.5t-104 -97.5q41 -10 77 -31.5t65 -50.5q74 63 125 153.5t104 182.5 l117 -112q-45 -86 -92 -170t-119 -148q-16 -14 -31.5 -27.5t-32.5 -23.5q4 -66 -38 -154t-108.5 -173t-143 -150.5t-140.5 -85.5q-41 -12 -91 10.5t-90 63.5t-61.5 91t-5.5 93q23 49 68 92t88 74q49 37 95 67.5t92.5 58t96.5 56.5t109 64q-20 8 -54 9t-70.5 -4t-71.5 -14.5 t-56 -21.5l-110 119q43 43 94 88t104.5 94t102.5 102.5t86 108.5q-35 2 -69 2t-67.5 -6t-63 -21.5t-54.5 -46.5q-45 -53 -76 -117l-67 -127zM-37 -397q43 8 94.5 36.5t100.5 71.5t94 97.5t80 113.5q-55 -29 -118.5 -67.5t-118 -80.5t-92.5 -86t-40 -85z" />
<glyph unicode="{" />
<glyph unicode="|" />
<glyph unicode="}" />
<glyph unicode="~" />
<glyph unicode="&#x25fc;" horiz-adv-x="798" d="M0 799h799v-799h-799v799z" />
</font>
</defs>
</svg>
